<svg width="733" height="325" viewBox="0 0 733 325" fill="none" xmlns="http://www.w3.org/2000/svg">
<path d="M0.000488281 176.5L611 177.12" stroke="white" stroke-dasharray="2 2"/>
<path d="M369 122.113L366.113 125L369 127.887L371.887 125L369 122.113ZM369.5 177V176H368.5V177H369.5ZM369.5 174V172H368.5V174H369.5ZM369.5 170V168H368.5V170H369.5ZM369.5 166V164H368.5V166H369.5ZM369.5 162V160H368.5V162H369.5ZM369.5 158V156H368.5V158H369.5ZM369.5 154V152H368.5V154H369.5ZM369.5 150V148H368.5V150H369.5ZM369.5 146V144H368.5V146H369.5ZM369.5 142V140H368.5V142H369.5ZM369.5 138V136H368.5V138H369.5ZM369.5 134V132H368.5V134H369.5ZM369.5 130V128H368.5V130H369.5ZM369.5 126V125H368.5V126H369.5Z" fill="white"/>
<path d="M127 231.887L129.887 229L127 226.113L124.113 229L127 231.887ZM126.5 177V178H127.5V177H126.5ZM126.5 180V182H127.5V180H126.5ZM126.5 184V186H127.5V184H126.5ZM126.5 188V190H127.5V188H126.5ZM126.5 192V194H127.5V192H126.5ZM126.5 196V198H127.5V196H126.5ZM126.5 200V202H127.5V200H126.5ZM126.5 204V206H127.5V204H126.5ZM126.5 208V210H127.5V208H126.5ZM126.5 212V214H127.5V212H126.5ZM126.5 216V218H127.5V216H126.5ZM126.5 220V222H127.5V220H126.5ZM126.5 224V226H127.5V224H126.5ZM126.5 228V229H127.5V228H126.5Z" fill="white"/>
<path d="M611 231.887L613.887 229L611 226.113L608.113 229L611 231.887ZM610.5 177V178H611.5V177H610.5ZM610.5 180V182H611.5V180H610.5ZM610.5 184V186H611.5V184H610.5ZM610.5 188V190H611.5V188H610.5ZM610.5 192V194H611.5V192H610.5ZM610.5 196V198H611.5V196H610.5ZM610.5 200V202H611.5V200H610.5ZM610.5 204V206H611.5V204H610.5ZM610.5 208V210H611.5V208H610.5ZM610.5 212V214H611.5V212H610.5ZM610.5 216V218H611.5V216H610.5ZM610.5 220V222H611.5V220H610.5ZM610.5 224V226H611.5V224H610.5ZM610.5 228V229H611.5V228H610.5Z" fill="white"/>
<path d="M612.84 257V255.48H616.26V244.72H613.54V243.9L614.44 243.2H617.94V255.48H621.04V257H612.84ZM623.843 248.34V246.26C623.843 244.22 624.863 243.2 626.903 243.2H629.783C631.823 243.2 632.842 244.22 632.842 246.26V253.32C632.842 255.773 631.616 257 629.163 257H625.343L624.443 256.3V255.48H629.243C630.523 255.48 631.163 254.84 631.163 253.56V251.4H626.903C624.863 251.4 623.843 250.38 623.843 248.34ZM625.523 248.52C625.523 249.427 625.976 249.88 626.883 249.88H631.163V246.08C631.163 245.173 630.709 244.72 629.803 244.72H626.883C625.976 244.72 625.523 245.173 625.523 246.08V248.52ZM634.525 257.5L640.145 242.2L641.525 242.7L635.905 258L634.525 257.5ZM643.198 253.94V246.26C643.198 244.22 644.218 243.2 646.258 243.2H649.138C651.178 243.2 652.198 244.22 652.198 246.26V253.94C652.198 255.98 651.178 257 649.138 257H646.258C644.218 257 643.198 255.98 643.198 253.94ZM644.878 254.12C644.878 255.027 645.331 255.48 646.238 255.48H649.158C650.065 255.48 650.518 255.027 650.518 254.12V246.08C650.518 245.173 650.065 244.72 649.158 244.72H646.238C645.331 244.72 644.878 245.173 644.878 246.08V254.12ZM654.76 257V252.8C654.76 251.12 655.494 250.133 656.96 249.84L661.06 249.02C661.74 248.887 662.08 248.44 662.08 247.68V246.08C662.08 245.173 661.627 244.72 660.72 244.72H655.16V243.9L656.06 243.2H660.7C662.74 243.2 663.76 244.22 663.76 246.26V247.56C663.76 249.24 663.027 250.227 661.56 250.52L657.46 251.34C656.78 251.473 656.44 251.92 656.44 252.68V255.48H663.76V257H654.76ZM665.443 257.5L671.063 242.2L672.443 242.7L666.823 258L665.443 257.5ZM674.116 257V252.8C674.116 251.12 674.849 250.133 676.316 249.84L680.416 249.02C681.096 248.887 681.436 248.44 681.436 247.68V246.08C681.436 245.173 680.983 244.72 680.076 244.72H674.516V243.9L675.416 243.2H680.056C682.096 243.2 683.116 244.22 683.116 246.26V247.56C683.116 249.24 682.383 250.227 680.916 250.52L676.816 251.34C676.136 251.473 675.796 251.92 675.796 252.68V255.48H683.116V257H674.116ZM685.678 254.42V253.02L690.298 243.2H691.698L691.918 243.6L687.538 252.9H692.998V248.4H694.678V257H692.998V254.42H685.678Z" fill="#B0B0B0"/>
<path d="M129.208 254V237.44H139.864V238.904H130.816V245.264H139.144V246.704H130.816V254H129.208ZM142.466 254V242.96C143.026 242.032 144.042 241.568 145.514 241.568H147.866L148.682 242.192V242.912H145.586C144.85 242.912 144.314 243.112 143.978 243.512V254H142.466ZM151.089 250.472V245.096C151.089 242.744 152.265 241.568 154.617 241.568H157.977C160.313 241.568 161.481 242.744 161.481 245.096V250.472C161.481 252.824 160.313 254 157.977 254H154.617C152.265 254 151.089 252.824 151.089 250.472ZM152.601 250.712C152.601 252.024 153.257 252.68 154.569 252.68H158.025C159.321 252.68 159.969 252.024 159.969 250.712V244.856C159.969 243.56 159.321 242.912 158.025 242.912H154.569C153.257 242.912 152.601 243.56 152.601 244.856V250.712ZM165.249 254V241.568H171.897C174.233 241.568 175.401 242.744 175.401 245.096V254H173.889V244.856C173.889 243.56 173.241 242.912 171.945 242.912H166.761V254H165.249ZM179.169 250.472V237.44H180.681V241.568H185.385V242.912H180.681V250.712C180.681 252.024 181.337 252.68 182.649 252.68H185.625V253.376L184.809 254H182.697C180.345 254 179.169 252.824 179.169 250.472ZM188.26 250.472V245.096C188.26 242.744 189.436 241.568 191.788 241.568H194.908C197.244 241.568 198.412 242.744 198.412 245.096V248.384H189.772V250.712C189.772 252.024 190.428 252.68 191.74 252.68H197.932V253.376L197.116 254H191.788C189.436 254 188.26 252.824 188.26 250.472ZM189.772 247.112H196.9V244.856C196.9 243.56 196.252 242.912 194.956 242.912H191.74C190.428 242.912 189.772 243.56 189.772 244.856V247.112ZM202.187 254V241.568H208.835C211.171 241.568 212.339 242.744 212.339 245.096V254H210.827V244.856C210.827 243.56 210.179 242.912 208.883 242.912H203.699V254H202.187ZM216.01 250.472V245.096C216.01 242.744 217.186 241.568 219.538 241.568H224.65V236.24H226.162V254H219.538C217.186 254 216.01 252.824 216.01 250.472ZM217.522 250.712C217.522 252.024 218.178 252.68 219.49 252.68H224.65V242.912H219.49C218.178 242.912 217.522 243.56 217.522 244.856V250.712ZM235.698 250.472V245.096C235.698 242.744 236.874 241.568 239.226 241.568H244.338V236.24H245.85V254H239.226C236.874 254 235.698 252.824 235.698 250.472ZM237.21 250.712C237.21 252.024 237.866 252.68 239.178 252.68H244.338V242.912H239.178C237.866 242.912 237.21 243.56 237.21 244.856V250.712ZM249.62 250.472V245.096C249.62 242.744 250.796 241.568 253.148 241.568H256.268C258.604 241.568 259.772 242.744 259.772 245.096V248.384H251.132V250.712C251.132 252.024 251.788 252.68 253.1 252.68H259.292V253.376L258.476 254H253.148C250.796 254 249.62 252.824 249.62 250.472ZM251.132 247.112H258.26V244.856C258.26 243.56 257.612 242.912 256.316 242.912H253.1C251.788 242.912 251.132 243.56 251.132 244.856V247.112ZM262.058 241.88L262.25 241.568H263.57L267.41 252.68H267.962L271.826 241.568H273.122L273.314 241.88L269.018 254H266.378L262.058 241.88ZM275.565 250.472V245.096C275.565 242.744 276.741 241.568 279.093 241.568H282.213C284.549 241.568 285.717 242.744 285.717 245.096V248.384H277.077V250.712C277.077 252.024 277.733 252.68 279.045 252.68H285.237V253.376L284.421 254H279.093C276.741 254 275.565 252.824 275.565 250.472ZM277.077 247.112H284.205V244.856C284.205 243.56 283.557 242.912 282.261 242.912H279.045C277.733 242.912 277.077 243.56 277.077 244.856V247.112ZM289.395 250.952V236.24H290.907V251.072C290.907 252.224 291.491 252.824 292.659 252.872V254.192C290.483 254.192 289.395 253.112 289.395 250.952ZM295.182 250.472V245.096C295.182 242.744 296.358 241.568 298.71 241.568H302.07C304.406 241.568 305.574 242.744 305.574 245.096V250.472C305.574 252.824 304.406 254 302.07 254H298.71C296.358 254 295.182 252.824 295.182 250.472ZM296.694 250.712C296.694 252.024 297.35 252.68 298.662 252.68H302.118C303.414 252.68 304.062 252.024 304.062 250.712V244.856C304.062 243.56 303.414 242.912 302.118 242.912H298.662C297.35 242.912 296.694 243.56 296.694 244.856V250.712ZM309.343 258.8V241.568H315.991C318.327 241.568 319.495 242.744 319.495 245.096V250.472C319.495 252.824 318.327 254 315.991 254H310.855V258.8H309.343ZM310.855 252.68H316.039C317.335 252.68 317.983 252.024 317.983 250.712V244.856C317.983 243.56 317.335 242.912 316.039 242.912H310.855V252.68ZM323.265 254V241.568H337.353C339.689 241.568 340.857 242.744 340.857 245.096V254H339.345V244.856C339.345 243.56 338.697 242.912 337.401 242.912H332.817V254H331.305V242.912H324.777V254H323.265ZM344.518 250.472V245.096C344.518 242.744 345.694 241.568 348.046 241.568H351.166C353.502 241.568 354.67 242.744 354.67 245.096V248.384H346.03V250.712C346.03 252.024 346.686 252.68 347.998 252.68H354.19V253.376L353.374 254H348.046C345.694 254 344.518 252.824 344.518 250.472ZM346.03 247.112H353.158V244.856C353.158 243.56 352.51 242.912 351.214 242.912H347.998C346.686 242.912 346.03 243.56 346.03 244.856V247.112ZM358.445 254V241.568H365.093C367.429 241.568 368.597 242.744 368.597 245.096V254H367.085V244.856C367.085 243.56 366.437 242.912 365.141 242.912H359.957V254H358.445ZM372.364 250.472V237.44H373.876V241.568H378.58V242.912H373.876V250.712C373.876 252.024 374.532 252.68 375.844 252.68H378.82V253.376L378.004 254H375.892C373.54 254 372.364 252.824 372.364 250.472ZM131.848 284C129.48 284 128.296 282.816 128.296 280.448C128.296 278.064 129.48 276.872 131.848 276.872H136.552V274.856C136.552 273.56 135.904 272.912 134.608 272.912H129.448V272.192L130.288 271.568H134.56C136.896 271.568 138.064 272.744 138.064 275.096V284H131.848ZM129.808 280.712C129.808 282.024 130.464 282.68 131.776 282.68H136.552V278.144H131.776C130.464 278.144 129.808 278.792 129.808 280.088V280.712ZM141.929 284V271.568H148.577C150.913 271.568 152.081 272.744 152.081 275.096V284H150.569V274.856C150.569 273.56 149.921 272.912 148.625 272.912H143.441V284H141.929ZM155.753 280.472V275.096C155.753 272.744 156.929 271.568 159.281 271.568H164.393V266.24H165.905V284H159.281C156.929 284 155.753 282.824 155.753 280.472ZM157.265 280.712C157.265 282.024 157.921 282.68 159.233 282.68H164.393V272.912H159.233C157.921 272.912 157.265 273.56 157.265 274.856V280.712ZM175.632 280.424V271.016C175.632 268.632 176.824 267.44 179.208 267.44H186.072L187.008 268.16V268.904H179.136C177.872 268.904 177.24 269.528 177.24 270.776V280.664C177.24 281.912 177.872 282.536 179.136 282.536H187.008V283.28L186.072 284H179.208C176.824 284 175.632 282.808 175.632 280.424ZM189.995 280.472V275.096C189.995 272.744 191.171 271.568 193.523 271.568H196.883C199.219 271.568 200.387 272.744 200.387 275.096V280.472C200.387 282.824 199.219 284 196.883 284H193.523C191.171 284 189.995 282.824 189.995 280.472ZM191.507 280.712C191.507 282.024 192.163 282.68 193.475 282.68H196.931C198.227 282.68 198.875 282.024 198.875 280.712V274.856C198.875 273.56 198.227 272.912 196.931 272.912H193.475C192.163 272.912 191.507 273.56 191.507 274.856V280.712ZM204.156 284V271.568H210.804C213.14 271.568 214.307 272.744 214.307 275.096V284H212.796V274.856C212.796 273.56 212.148 272.912 210.852 272.912H205.668V284H204.156ZM217.979 280.472V275.096C217.979 272.744 219.155 271.568 221.507 271.568H224.627C226.963 271.568 228.131 272.744 228.131 275.096V278.384H219.491V280.712C219.491 282.024 220.147 282.68 221.459 282.68H227.651V283.376L226.835 284H221.507C219.155 284 217.979 282.824 217.979 280.472ZM219.491 277.112H226.619V274.856C226.619 273.56 225.971 272.912 224.675 272.912H221.459C220.147 272.912 219.491 273.56 219.491 274.856V277.112ZM231.714 280.472V275.096C231.714 272.744 232.89 271.568 235.242 271.568H240.018L240.834 272.192V272.912H235.194C233.882 272.912 233.226 273.56 233.226 274.856V280.712C233.226 282.024 233.882 282.68 235.194 282.68H240.834V283.376L240.018 284H235.242C232.89 284 231.714 282.824 231.714 280.472ZM243.81 280.472V267.44H245.322V271.568H250.026V272.912H245.322V280.712C245.322 282.024 245.978 282.68 247.29 282.68H250.266V283.376L249.45 284H247.338C244.986 284 243.81 282.824 243.81 280.472ZM252.997 269.192V267.224H254.725V269.192H252.997ZM253.093 284V271.568H254.605V284H253.093ZM258.362 280.472V275.096C258.362 272.744 259.538 271.568 261.89 271.568H265.25C267.586 271.568 268.754 272.744 268.754 275.096V280.472C268.754 282.824 267.586 284 265.25 284H261.89C259.538 284 258.362 282.824 258.362 280.472ZM259.874 280.712C259.874 282.024 260.53 282.68 261.842 282.68H265.298C266.594 282.68 267.242 282.024 267.242 280.712V274.856C267.242 273.56 266.594 272.912 265.298 272.912H261.842C260.53 272.912 259.874 273.56 259.874 274.856V280.712ZM272.523 284V271.568H279.171C281.507 271.568 282.675 272.744 282.675 275.096V284H281.163V274.856C281.163 273.56 280.515 272.912 279.219 272.912H274.035V284H272.523ZM290.912 271.88L291.128 271.568H292.352L295.088 282.68H295.472L298.736 271.568H300.488L303.728 282.68H304.136L306.872 271.568H308.096L308.288 271.88L305.264 284H302.72L299.6 273.248L296.504 284H293.96L290.912 271.88ZM310.77 269.192V267.224H312.498V269.192H310.77ZM310.866 284V271.568H312.378V284H310.866ZM316.231 280.472V267.44H317.743V271.568H322.447V272.912H317.743V280.712C317.743 282.024 318.399 282.68 319.711 282.68H322.687V283.376L321.871 284H319.759C317.407 284 316.231 282.824 316.231 280.472ZM325.515 284V266.24H327.027V271.568H332.163C334.499 271.568 335.667 272.744 335.667 275.096V284H334.155V274.856C334.155 273.56 333.507 272.912 332.211 272.912H327.027V284H325.515ZM129.208 314V297.44H136.984C139.368 297.44 140.56 298.632 140.56 301.016V304.112C140.56 306.48 139.368 307.664 136.984 307.664H130.816V314H129.208ZM130.816 306.224H137.08C138.328 306.224 138.952 305.592 138.952 304.328V300.776C138.952 299.528 138.328 298.904 137.08 298.904H130.816V306.224ZM146.45 314C144.082 314 142.898 312.816 142.898 310.448C142.898 308.064 144.082 306.872 146.45 306.872H151.154V304.856C151.154 303.56 150.506 302.912 149.21 302.912H144.05V302.192L144.89 301.568H149.162C151.498 301.568 152.666 302.744 152.666 305.096V314H146.45ZM144.41 310.712C144.41 312.024 145.066 312.68 146.378 312.68H151.154V308.144H146.378C145.066 308.144 144.41 308.792 144.41 310.088V310.712ZM156.435 314V302.96C156.995 302.032 158.011 301.568 159.483 301.568H161.835L162.651 302.192V302.912H159.555C158.819 302.912 158.283 303.112 157.947 303.512V314H156.435ZM165.153 310.472V297.44H166.665V301.568H171.369V302.912H166.665V310.712C166.665 312.024 167.321 312.68 168.633 312.68H171.609V313.376L170.793 314H168.681C166.329 314 165.153 312.824 165.153 310.472ZM174.341 299.192V297.224H176.069V299.192H174.341ZM174.437 314V301.568H175.949V314H174.437ZM179.706 310.472V305.096C179.706 302.744 180.882 301.568 183.234 301.568H188.01L188.826 302.192V302.912H183.186C181.874 302.912 181.218 303.56 181.218 304.856V310.712C181.218 312.024 181.874 312.68 183.186 312.68H188.826V313.376L188.01 314H183.234C180.882 314 179.706 312.824 179.706 310.472ZM191.802 310.952V296.24H193.314V311.072C193.314 312.224 193.898 312.824 195.066 312.872V314.192C192.89 314.192 191.802 313.112 191.802 310.952ZM197.589 310.472V305.096C197.589 302.744 198.765 301.568 201.117 301.568H204.237C206.573 301.568 207.741 302.744 207.741 305.096V308.384H199.101V310.712C199.101 312.024 199.757 312.68 201.069 312.68H207.261V313.376L206.445 314H201.117C198.765 314 197.589 312.824 197.589 310.472ZM199.101 307.112H206.229V304.856C206.229 303.56 205.581 302.912 204.285 302.912H201.069C199.757 302.912 199.101 303.56 199.101 304.856V307.112Z" fill="white"/>
<path d="M371.208 22V5.43999H373.44L379.248 17.728L385.032 5.43999H387.264V22H385.656V7.57599L380.04 19.528H378.432L372.816 7.57599V22H371.208ZM391.669 22V5.43999H399.445C401.829 5.43999 403.021 6.63199 403.021 9.01599V12.112C403.021 14.48 401.829 15.664 399.445 15.664H393.277V22H391.669ZM393.277 14.224H399.541C400.789 14.224 401.413 13.592 401.413 12.328V8.77599C401.413 7.52799 400.789 6.90399 399.541 6.90399H393.277V14.224ZM405.011 5.82399L405.275 5.43999H406.595L411.539 20.536H412.163L417.107 5.43999H418.427L418.667 5.82399L413.291 22H410.411L405.011 5.82399ZM426.89 22V7.76799C426.89 5.41599 428.066 4.23999 430.418 4.23999H432.53L433.346 4.86399V5.55999H430.37C429.058 5.55999 428.402 6.21599 428.402 7.52799V9.56799H433.106V10.912H428.402V22H426.89ZM435.7 7.19199V5.22399H437.428V7.19199H435.7ZM435.796 22V9.56799H437.308V22H435.796ZM441.257 22V9.56799H447.905C450.241 9.56799 451.409 10.744 451.409 13.096V22H449.897V12.856C449.897 11.56 449.249 10.912 447.953 10.912H442.769V22H441.257ZM458.153 22C455.785 22 454.601 20.816 454.601 18.448C454.601 16.064 455.785 14.872 458.153 14.872H462.857V12.856C462.857 11.56 462.209 10.912 460.913 10.912H455.753V10.192L456.593 9.56799H460.865C463.201 9.56799 464.369 10.744 464.369 13.096V22H458.153ZM456.113 18.712C456.113 20.024 456.769 20.68 458.081 20.68H462.857V16.144H458.081C456.769 16.144 456.113 16.792 456.113 18.088V18.712ZM468.138 18.952V4.23999H469.65V19.072C469.65 20.224 470.234 20.824 471.402 20.872V22.192C469.226 22.192 468.138 21.112 468.138 18.952ZM474.02 7.19199V5.22399H475.748V7.19199H474.02ZM474.116 22V9.56799H475.628V22H474.116ZM478.857 22V20.8L486.393 10.912H479.097V9.56799H488.289V10.768L480.753 20.68H488.529V22H478.857ZM494.645 22C492.277 22 491.093 20.816 491.093 18.448C491.093 16.064 492.277 14.872 494.645 14.872H499.349V12.856C499.349 11.56 498.701 10.912 497.405 10.912H492.245V10.192L493.085 9.56799H497.357C499.693 9.56799 500.861 10.744 500.861 13.096V22H494.645ZM492.605 18.712C492.605 20.024 493.261 20.68 494.573 20.68H499.349V16.144H494.573C493.261 16.144 492.605 16.792 492.605 18.088V18.712ZM504.63 18.472V5.43999H506.142V9.56799H510.846V10.912H506.142V18.712C506.142 20.024 506.798 20.68 508.11 20.68H511.086V21.376L510.27 22H508.158C505.806 22 504.63 20.824 504.63 18.472ZM513.817 7.19199V5.22399H515.545V7.19199H513.817ZM513.913 22V9.56799H515.425V22H513.913ZM519.182 18.472V13.096C519.182 10.744 520.358 9.56799 522.71 9.56799H526.07C528.406 9.56799 529.574 10.744 529.574 13.096V18.472C529.574 20.824 528.406 22 526.07 22H522.71C520.358 22 519.182 20.824 519.182 18.472ZM520.694 18.712C520.694 20.024 521.35 20.68 522.662 20.68H526.118C527.414 20.68 528.062 20.024 528.062 18.712V12.856C528.062 11.56 527.414 10.912 526.118 10.912H522.662C521.35 10.912 520.694 11.56 520.694 12.856V18.712ZM533.343 22V9.56799H539.991C542.327 9.56799 543.495 10.744 543.495 13.096V22H541.983V12.856C541.983 11.56 541.335 10.912 540.039 10.912H534.855V22H533.343ZM371.208 52V35.44H377.76C381.6 35.44 383.52 37.368 383.52 41.224V46.216C383.52 50.072 381.6 52 377.76 52H371.208ZM372.816 50.536H377.856C380.56 50.536 381.912 49.184 381.912 46.48V40.96C381.912 38.256 380.56 36.904 377.856 36.904H372.816V50.536ZM387.042 48.472V43.096C387.042 40.744 388.218 39.568 390.57 39.568H393.69C396.026 39.568 397.194 40.744 397.194 43.096V46.384H388.554V48.712C388.554 50.024 389.21 50.68 390.522 50.68H396.714V51.376L395.898 52H390.57C388.218 52 387.042 50.824 387.042 48.472ZM388.554 45.112H395.682V42.856C395.682 41.56 395.034 40.912 393.738 40.912H390.522C389.21 40.912 388.554 41.56 388.554 42.856V45.112ZM400.968 56.8V39.568H407.616C409.952 39.568 411.12 40.744 411.12 43.096V48.472C411.12 50.824 409.952 52 407.616 52H402.48V56.8H400.968ZM402.48 50.68H407.664C408.96 50.68 409.608 50.024 409.608 48.712V42.856C409.608 41.56 408.96 40.912 407.664 40.912H402.48V50.68ZM414.794 48.952V34.24H416.306V49.072C416.306 50.224 416.89 50.824 418.058 50.872V52.192C415.882 52.192 414.794 51.112 414.794 48.952ZM420.581 48.472V43.096C420.581 40.744 421.757 39.568 424.109 39.568H427.469C429.805 39.568 430.973 40.744 430.973 43.096V48.472C430.973 50.824 429.805 52 427.469 52H424.109C421.757 52 420.581 50.824 420.581 48.472ZM422.093 48.712C422.093 50.024 422.749 50.68 424.061 50.68H427.517C428.813 50.68 429.461 50.024 429.461 48.712V42.856C429.461 41.56 428.813 40.912 427.517 40.912H424.061C422.749 40.912 422.093 41.56 422.093 42.856V48.712ZM433.253 39.88L433.445 39.568H434.765L438.605 50.68H439.157L443.021 39.568H444.317L444.509 39.88L438.485 56.8H437.189L436.997 56.512L438.677 52H437.573L433.253 39.88ZM452.526 48.472V43.096C452.526 40.744 453.702 39.568 456.054 39.568H460.83L461.646 40.192V40.912H456.006C454.694 40.912 454.038 41.56 454.038 42.856V48.712C454.038 50.024 454.694 50.68 456.006 50.68H461.646V51.376L460.83 52H456.054C453.702 52 452.526 50.824 452.526 48.472ZM464.526 48.472V43.096C464.526 40.744 465.702 39.568 468.054 39.568H471.414C473.75 39.568 474.918 40.744 474.918 43.096V48.472C474.918 50.824 473.75 52 471.414 52H468.054C465.702 52 464.526 50.824 464.526 48.472ZM466.038 48.712C466.038 50.024 466.694 50.68 468.006 50.68H471.462C472.758 50.68 473.406 50.024 473.406 48.712V42.856C473.406 41.56 472.758 40.912 471.462 40.912H468.006C466.694 40.912 466.038 41.56 466.038 42.856V48.712ZM478.687 52V39.568H485.335C487.671 39.568 488.839 40.744 488.839 43.096V52H487.327V42.856C487.327 41.56 486.679 40.912 485.383 40.912H480.199V52H478.687ZM492.606 48.472V35.44H494.118V39.568H498.822V40.912H494.118V48.712C494.118 50.024 494.774 50.68 496.086 50.68H499.062V51.376L498.246 52H496.134C493.782 52 492.606 50.824 492.606 48.472ZM501.794 52V40.96C502.354 40.032 503.37 39.568 504.842 39.568H507.194L508.01 40.192V40.912H504.914C504.178 40.912 503.642 41.112 503.306 41.512V52H501.794ZM513.254 52C510.886 52 509.702 50.816 509.702 48.448C509.702 46.064 510.886 44.872 513.254 44.872H517.958V42.856C517.958 41.56 517.31 40.912 516.014 40.912H510.854V40.192L511.694 39.568H515.966C518.302 39.568 519.47 40.744 519.47 43.096V52H513.254ZM511.214 48.712C511.214 50.024 511.87 50.68 513.182 50.68H517.958V46.144H513.182C511.87 46.144 511.214 46.792 511.214 48.088V48.712ZM523.143 48.472V43.096C523.143 40.744 524.319 39.568 526.671 39.568H531.447L532.263 40.192V40.912H526.623C525.311 40.912 524.655 41.56 524.655 42.856V48.712C524.655 50.024 525.311 50.68 526.623 50.68H532.263V51.376L531.447 52H526.671C524.319 52 523.143 50.824 523.143 48.472ZM535.239 48.472V35.44H536.751V39.568H541.455V40.912H536.751V48.712C536.751 50.024 537.407 50.68 538.719 50.68H541.695V51.376L540.879 52H538.767C536.415 52 535.239 50.824 535.239 48.472ZM550.288 48.424V39.016C550.288 36.632 551.48 35.44 553.864 35.44H560.728L561.664 36.16V36.904H553.792C552.528 36.904 551.896 37.528 551.896 38.776V48.664C551.896 49.912 552.528 50.536 553.792 50.536H561.664V51.28L560.728 52H553.864C551.48 52 550.288 50.808 550.288 48.424ZM564.843 48.424V39.016C564.843 36.632 566.035 35.44 568.419 35.44H574.059C576.443 35.44 577.635 36.632 577.635 39.016V48.424C577.635 50.808 576.443 52 574.059 52H568.419C566.035 52 564.843 50.808 564.843 48.424ZM566.451 48.664C566.451 49.912 567.083 50.536 568.347 50.536H574.155C575.403 50.536 576.027 49.912 576.027 48.664V38.776C576.027 37.528 575.403 36.904 574.155 36.904H568.347C567.083 36.904 566.451 37.528 566.451 38.776V48.664ZM581.841 52V35.44H592.497V36.904H583.449V43.264H591.777V44.704H583.449V52H581.841ZM595.435 52V35.44H606.091V36.904H597.043V43.264H605.371V44.704H597.043V52H595.435ZM369.48 65.824L369.744 65.44H371.064L376.008 80.536H376.632L381.576 65.44H382.896L383.136 65.824L377.76 82H374.88L369.48 65.824ZM385.233 82V77.056C385.233 75.104 386.089 73.952 387.801 73.6L392.865 72.592C393.809 72.4 394.281 71.784 394.281 70.744V68.776C394.281 67.528 393.649 66.904 392.385 66.904H385.713V66.16L386.649 65.44H392.313C394.697 65.44 395.889 66.632 395.889 69.016V70.576C395.889 72.528 395.033 73.68 393.321 74.032L388.257 75.04C387.313 75.232 386.841 75.848 386.841 76.888V80.536H395.889V82H385.233ZM399.588 82V79.672H401.556V82H399.588ZM405.225 78.424V69.016C405.225 66.632 406.417 65.44 408.801 65.44H412.305C414.689 65.44 415.881 66.632 415.881 69.016V78.424C415.881 80.808 414.689 82 412.305 82H408.801C406.417 82 405.225 80.808 405.225 78.424ZM406.833 78.664C406.833 79.912 407.465 80.536 408.729 80.536H412.377C413.641 80.536 414.273 79.912 414.273 78.664V68.776C414.273 67.528 413.641 66.904 412.377 66.904H408.729C407.465 66.904 406.833 67.528 406.833 68.776V78.664ZM423.738 81.616L429.33 65.44H432.066L437.634 81.616L437.394 82H436.074L434.61 77.584H426.762L425.298 82H424.002L423.738 81.616ZM427.29 76.144H434.106L431.01 66.904H430.386L427.29 76.144ZM438.128 69.88L438.32 69.568H439.64L443.48 80.68H444.032L447.896 69.568H449.192L449.384 69.88L445.088 82H442.448L438.128 69.88ZM454.473 82C452.105 82 450.921 80.816 450.921 78.448C450.921 76.064 452.105 74.872 454.473 74.872H459.177V72.856C459.177 71.56 458.529 70.912 457.233 70.912H452.073V70.192L452.913 69.568H457.185C459.521 69.568 460.689 70.744 460.689 73.096V82H454.473ZM452.433 78.712C452.433 80.024 453.089 80.68 454.401 80.68H459.177V76.144H454.401C453.089 76.144 452.433 76.792 452.433 78.088V78.712ZM464.458 78.952V64.24H465.97V79.072C465.97 80.224 466.554 80.824 467.722 80.872V82.192C465.546 82.192 464.458 81.112 464.458 78.952ZM473.317 82C470.949 82 469.765 80.816 469.765 78.448C469.765 76.064 470.949 74.872 473.317 74.872H478.021V72.856C478.021 71.56 477.373 70.912 476.077 70.912H470.917V70.192L471.757 69.568H476.029C478.365 69.568 479.533 70.744 479.533 73.096V82H473.317ZM471.277 78.712C471.277 80.024 471.933 80.68 473.245 80.68H478.021V76.144H473.245C471.933 76.144 471.277 76.792 471.277 78.088V78.712ZM483.398 82V69.568H490.046C492.382 69.568 493.55 70.744 493.55 73.096V82H492.038V72.856C492.038 71.56 491.39 70.912 490.094 70.912H484.91V82H483.398ZM497.221 78.472V73.096C497.221 70.744 498.397 69.568 500.749 69.568H505.525L506.341 70.192V70.912H500.701C499.389 70.912 498.733 71.56 498.733 72.856V78.712C498.733 80.024 499.389 80.68 500.701 80.68H506.341V81.376L505.525 82H500.749C498.397 82 497.221 80.824 497.221 78.472ZM509.413 82V64.24H510.925V69.568H516.061C518.397 69.568 519.565 70.744 519.565 73.096V82H518.053V72.856C518.053 71.56 517.405 70.912 516.109 70.912H510.925V82H509.413ZM523.237 78.472V73.096C523.237 70.744 524.413 69.568 526.765 69.568H529.885C532.221 69.568 533.389 70.744 533.389 73.096V76.384H524.749V78.712C524.749 80.024 525.405 80.68 526.717 80.68H532.909V81.376L532.093 82H526.765C524.413 82 523.237 80.824 523.237 78.472ZM524.749 75.112H531.877V72.856C531.877 71.56 531.229 70.912 529.933 70.912H526.717C525.405 70.912 524.749 71.56 524.749 72.856V75.112ZM543.169 82V65.44H553.825V66.904H544.777V73.264H553.105V74.704H544.777V82H543.169ZM556.619 78.424V65.44H558.227V78.664C558.227 79.912 558.859 80.536 560.123 80.536H565.451C566.699 80.536 567.323 79.912 567.323 78.664V65.44H568.931V78.424C568.931 80.808 567.739 82 565.355 82H560.195C557.811 82 556.619 80.808 556.619 78.424ZM572.496 78.424V76.048H574.104V78.664C574.104 79.912 574.736 80.536 576 80.536H579.888C581.136 80.536 581.76 79.912 581.76 78.664V66.904H576.096V65.44H583.368V78.424C583.368 80.808 582.176 82 579.792 82H576.072C573.688 82 572.496 80.808 572.496 78.424ZM587.653 82V65.44H589.261V82H587.653ZM369.576 96.904V95.44H382.488V96.904H376.824V112H375.24V96.904H369.576ZM383.878 108.472V103.096C383.878 100.744 385.054 99.568 387.406 99.568H390.526C392.862 99.568 394.03 100.744 394.03 103.096V106.384H385.39V108.712C385.39 110.024 386.046 110.68 387.358 110.68H393.55V111.376L392.734 112H387.406C385.054 112 383.878 110.824 383.878 108.472ZM385.39 105.112H392.518V102.856C392.518 101.56 391.87 100.912 390.574 100.912H387.358C386.046 100.912 385.39 101.56 385.39 102.856V105.112ZM397.3 111.376V110.68H402.868C404.148 110.68 404.788 110.04 404.788 108.76C404.788 107.48 404.276 106.76 403.252 106.6L400.324 106.096C398.308 105.76 397.3 104.696 397.3 102.904C397.3 100.68 398.484 99.568 400.852 99.568H404.908L405.724 100.192V100.912H400.756C399.46 100.912 398.812 101.544 398.812 102.808C398.812 103.928 399.348 104.576 400.42 104.752L403.372 105.256C405.324 105.576 406.3 106.712 406.3 108.664C406.3 110.888 405.116 112 402.748 112H398.116L397.3 111.376ZM409.661 108.472V95.44H411.173V99.568H415.877V100.912H411.173V108.712C411.173 110.024 411.829 110.68 413.141 110.68H416.117V111.376L415.301 112H413.189C410.837 112 409.661 110.824 409.661 108.472ZM418.945 112V99.568H425.593C427.929 99.568 429.097 100.744 429.097 103.096V112H427.585V102.856C427.585 101.56 426.937 100.912 425.641 100.912H420.457V112H418.945ZM432.768 108.472V103.096C432.768 100.744 433.944 99.568 436.296 99.568H439.416C441.752 99.568 442.92 100.744 442.92 103.096V106.384H434.28V108.712C434.28 110.024 434.936 110.68 436.248 110.68H442.44V111.376L441.624 112H436.296C433.944 112 432.768 110.824 432.768 108.472ZM434.28 105.112H441.408V102.856C441.408 101.56 440.76 100.912 439.464 100.912H436.248C434.936 100.912 434.28 101.56 434.28 102.856V105.112ZM446.599 108.472V95.44H448.111V99.568H452.815V100.912H448.111V108.712C448.111 110.024 448.767 110.68 450.079 110.68H453.055V111.376L452.239 112H450.127C447.775 112 446.599 110.824 446.599 108.472Z" fill="white"/>
<path d="M613.04 287V270.44H615.968V277.088H622.952V270.44H625.88V287H622.952V279.752H615.968V287H613.04ZM632.842 287C630.314 287 629.05 285.752 629.05 283.256C629.05 280.76 630.314 279.512 632.842 279.512H636.538V277.952C636.538 277.216 636.17 276.848 635.434 276.848H630.346V275.336L631.594 274.4H635.578C638.09 274.4 639.346 275.664 639.346 278.192V287H632.842ZM631.858 283.448C631.858 284.184 632.226 284.552 632.962 284.552H636.538V281.696H632.962C632.226 281.696 631.858 282.056 631.858 282.776V283.448ZM642.655 283.208V278.192C642.655 275.664 643.919 274.4 646.447 274.4H650.983L652.255 275.336V276.848H646.567C645.831 276.848 645.463 277.216 645.463 277.952V283.448C645.463 284.184 645.831 284.552 646.567 284.552H652.255V286.064L650.983 287H646.447C643.919 287 642.655 285.736 642.655 283.208ZM655.152 287V269.24H657.96V279.752L662.856 274.4H665.616L665.856 274.88L661.44 279.656L666.192 286.52L665.952 287H663.192L659.592 281.672L657.96 283.424V287H655.152ZM671.725 287C669.197 287 667.933 285.752 667.933 283.256C667.933 280.76 669.197 279.512 671.725 279.512H675.421V277.952C675.421 277.216 675.053 276.848 674.317 276.848H669.229V275.336L670.477 274.4H674.461C676.973 274.4 678.229 275.664 678.229 278.192V287H671.725ZM670.741 283.448C670.741 284.184 671.109 284.552 671.845 284.552H675.421V281.696H671.845C671.109 281.696 670.741 282.056 670.741 282.776V283.448ZM681.634 283.208V270.44H684.442V274.4H688.738V276.848H684.442V283.448C684.442 284.184 684.81 284.552 685.546 284.552H688.978V286.064L687.706 287H685.426C682.898 287 681.634 285.736 681.634 283.208ZM691.644 287V269.24H694.452V274.4H698.556C701.068 274.4 702.324 275.664 702.324 278.192V287H699.516V277.952C699.516 277.216 699.148 276.848 698.412 276.848H694.452V287H691.644ZM705.631 283.208V278.192C705.631 275.664 706.895 274.4 709.423 274.4H712.783C715.295 274.4 716.551 275.664 716.551 278.192V283.208C716.551 285.736 715.295 287 712.783 287H709.423C706.895 287 705.631 285.736 705.631 283.208ZM708.439 283.448C708.439 284.184 708.807 284.552 709.543 284.552H712.639C713.375 284.552 713.743 284.184 713.743 283.448V277.952C713.743 277.216 713.375 276.848 712.639 276.848H709.543C708.807 276.848 708.439 277.216 708.439 277.952V283.448ZM719.956 287V274.4H726.868C729.38 274.4 730.636 275.664 730.636 278.192V287H727.828V277.952C727.828 277.216 727.46 276.848 726.724 276.848H722.764V287H719.956ZM612.344 316.064V314.552H617.888C618.624 314.552 618.992 314.16 618.992 313.376C618.992 312.56 618.688 312.096 618.08 311.984L615.392 311.552C613.36 311.2 612.344 310.048 612.344 308.096C612.344 305.632 613.608 304.4 616.136 304.4H619.952L621.224 305.336V306.848H616.256C615.504 306.848 615.128 307.24 615.128 308.024C615.128 308.808 615.448 309.256 616.088 309.368L618.776 309.8C620.792 310.136 621.8 311.296 621.8 313.28C621.8 315.76 620.528 317 617.984 317H613.616L612.344 316.064ZM624.821 313.208V304.4H627.629V313.448C627.629 314.184 627.997 314.552 628.733 314.552H632.693V304.4H635.501V317H628.613C626.085 317 624.821 315.736 624.821 313.208ZM639.097 317V299.24H641.905V304.4H646.009C648.521 304.4 649.777 305.664 649.777 308.192V313.208C649.777 315.736 648.521 317 646.009 317H639.097ZM641.905 314.552H645.865C646.601 314.552 646.969 314.184 646.969 313.448V307.952C646.969 307.216 646.601 306.848 645.865 306.848H641.905V314.552ZM653.183 317V304.4H667.535C670.047 304.4 671.303 305.664 671.303 308.192V317H668.495V307.952C668.495 307.216 668.127 306.848 667.391 306.848H663.647V317H660.839V306.848H655.991V317H653.183ZM674.744 302.216V299.36H677.696V302.216H674.744ZM674.816 317V304.4H677.624V317H674.816ZM681.118 313.208V300.44H683.926V304.4H688.222V306.848H683.926V313.448C683.926 314.184 684.294 314.552 685.03 314.552H688.462V316.064L687.19 317H684.91C682.382 317 681.118 315.736 681.118 313.208ZM691.056 302.216V299.36H694.008V302.216H691.056ZM691.128 317V304.4H693.936V317H691.128ZM697.335 313.208V308.192C697.335 305.664 698.599 304.4 701.127 304.4H704.487C706.999 304.4 708.255 305.664 708.255 308.192V313.208C708.255 315.736 706.999 317 704.487 317H701.127C698.599 317 697.335 315.736 697.335 313.208ZM700.143 313.448C700.143 314.184 700.511 314.552 701.247 314.552H704.343C705.079 314.552 705.447 314.184 705.447 313.448V307.952C705.447 307.216 705.079 306.848 704.343 306.848H701.247C700.511 306.848 700.143 307.216 700.143 307.952V313.448ZM711.659 317V304.4H718.571C721.083 304.4 722.339 305.664 722.339 308.192V317H719.531V307.952C719.531 307.216 719.163 306.848 718.427 306.848H714.467V317H711.659Z" fill="#EB5D47"/>
</svg>
