<svg width="669" height="256" viewBox="0 0 669 256" fill="none" xmlns="http://www.w3.org/2000/svg">
<path d="M2.99977 110.861H603" stroke="white" stroke-dasharray="2 2"/>
<path d="M3 56.1133L0.113243 59.0001L3 61.8869L5.88675 59.0001L3 56.1133ZM3.5 111V110H2.5V111H3.5ZM3.5 108V106H2.5V108H3.5ZM3.5 104V102H2.5V104H3.5ZM3.5 100V98.0001H2.5V100H3.5ZM3.5 96.0001V94.0001H2.5V96.0001H3.5ZM3.5 92.0001V90.0001H2.5V92.0001H3.5ZM3.5 88.0001V86.0001H2.5V88.0001H3.5ZM3.5 84.0001V82.0001H2.5V84.0001H3.5ZM3.5 80.0001V78.0001H2.5V80.0001H3.5ZM3.5 76.0001V74.0001H2.5V76.0001H3.5ZM3.5 72.0001V70.0001H2.5V72.0001H3.5ZM3.5 68.0001V66.0001H2.5V68.0001H3.5ZM3.5 64.0001V62.0001H2.5V64.0001H3.5ZM3.5 60.0001V59.0001H2.5V60.0001H3.5Z" fill="white"/>
<path d="M245 165.887L247.887 163L245 160.113L242.113 163L245 165.887ZM244.5 111V112H245.5V111H244.5ZM244.5 114V116H245.5V114H244.5ZM244.5 118V120H245.5V118H244.5ZM244.5 122V124H245.5V122H244.5ZM244.5 126V128H245.5V126H244.5ZM244.5 130V132H245.5V130H244.5ZM244.5 134V136H245.5V134H244.5ZM244.5 138V140H245.5V138H244.5ZM244.5 142V144H245.5V142H244.5ZM244.5 146V148H245.5V146H244.5ZM244.5 150V152H245.5V150H244.5ZM244.5 154V156H245.5V154H244.5ZM244.5 158V160H245.5V158H244.5ZM244.5 162V163H245.5V162H244.5Z" fill="white"/>
<path d="M487 56.1133L484.113 59.0001L487 61.8869L489.887 59.0001L487 56.1133ZM487.5 111V110H486.5V111H487.5ZM487.5 108V106H486.5V108H487.5ZM487.5 104V102H486.5V104H487.5ZM487.5 100V98.0001H486.5V100H487.5ZM487.5 96.0001V94.0001H486.5V96.0001H487.5ZM487.5 92.0001V90.0001H486.5V92.0001H487.5ZM487.5 88.0001V86.0001H486.5V88.0001H487.5ZM487.5 84.0001V82.0001H486.5V84.0001H487.5ZM487.5 80.0001V78.0001H486.5V80.0001H487.5ZM487.5 76.0001V74.0001H486.5V76.0001H487.5ZM487.5 72.0001V70.0001H486.5V72.0001H487.5ZM487.5 68.0001V66.0001H486.5V68.0001H487.5ZM487.5 64.0001V62.0001H486.5V64.0001H487.5ZM487.5 60.0001V59.0001H486.5V60.0001H487.5Z" fill="white"/>
<path d="M2.576 33.1041V30.4401H15.944V33.1041H10.736V47.0001H7.784V33.1041H2.576ZM17.1783 43.2081V38.1921C17.1783 35.6641 18.4423 34.4001 20.9703 34.4001H24.0903C26.6023 34.4001 27.8583 35.6641 27.8583 38.1921V41.7441H19.9863V43.4481C19.9863 44.1841 20.3543 44.5521 21.0903 44.5521H27.3783V46.0641L26.1063 47.0001H20.9703C18.4423 47.0001 17.1783 45.7361 17.1783 43.2081ZM19.9863 39.5601H25.0503V37.9521C25.0503 37.2161 24.6823 36.8481 23.9463 36.8481H21.0903C20.3543 36.8481 19.9863 37.2161 19.9863 37.9521V39.5601ZM34.3888 47.0001C31.8608 47.0001 30.5968 45.7521 30.5968 43.2561C30.5968 40.7601 31.8608 39.5121 34.3888 39.5121H38.0848V37.9521C38.0848 37.2161 37.7168 36.8481 36.9808 36.8481H31.8928V35.3361L33.1408 34.4001H37.1248C39.6368 34.4001 40.8928 35.6641 40.8928 38.1921V47.0001H34.3888ZM33.4048 43.4481C33.4048 44.1841 33.7728 44.5521 34.5088 44.5521H38.0848V41.6961H34.5088C33.7728 41.6961 33.4048 42.0561 33.4048 42.7761V43.4481ZM44.3938 47.0001V34.4001H58.7458C61.2578 34.4001 62.5138 35.6641 62.5138 38.1921V47.0001H59.7058V37.9521C59.7058 37.2161 59.3378 36.8481 58.6018 36.8481H54.8578V47.0001H52.0498V36.8481H47.2018V47.0001H44.3938ZM71.7202 32.2161V29.3601H74.6722V32.2161H71.7202ZM71.7922 47.0001V34.4001H74.6002V47.0001H71.7922ZM78.1906 47.0001V34.4001H85.1026C87.6146 34.4001 88.8706 35.6641 88.8706 38.1921V47.0001H86.0626V37.9521C86.0626 37.2161 85.6946 36.8481 84.9586 36.8481H80.9986V47.0001H78.1906ZM91.9143 46.0641V44.5521H97.4583C98.1943 44.5521 98.5623 44.1601 98.5623 43.3761C98.5623 42.5601 98.2583 42.0961 97.6503 41.9841L94.9623 41.5521C92.9303 41.2001 91.9143 40.0481 91.9143 38.0961C91.9143 35.6321 93.1783 34.4001 95.7063 34.4001H99.5223L100.794 35.3361V36.8481H95.8263C95.0743 36.8481 94.6983 37.2401 94.6983 38.0241C94.6983 38.8081 95.0183 39.2561 95.6583 39.3681L98.3463 39.8001C100.362 40.1361 101.37 41.2961 101.37 43.2801C101.37 45.7601 100.098 47.0001 97.5543 47.0001H93.1863L91.9143 46.0641ZM104.296 43.2081V38.1921C104.296 35.6641 105.56 34.4001 108.088 34.4001H112.624L113.896 35.3361V36.8481H108.208C107.472 36.8481 107.104 37.2161 107.104 37.9521V43.4481C107.104 44.1841 107.472 44.5521 108.208 44.5521H113.896V46.0641L112.624 47.0001H108.088C105.56 47.0001 104.296 45.7361 104.296 43.2081ZM116.696 47.0001V35.9601C117.272 34.9201 118.376 34.4001 120.008 34.4001H122.528L123.8 35.3361V36.8481H120.656C120.112 36.8481 119.728 36.9841 119.504 37.2561V47.0001H116.696ZM126.142 32.2161V29.3601H129.094V32.2161H126.142ZM126.214 47.0001V34.4001H129.022V47.0001H126.214ZM132.613 51.8001V34.4001H139.525C142.037 34.4001 143.293 35.6641 143.293 38.1921V43.2081C143.293 45.7361 142.037 47.0001 139.525 47.0001H135.421V51.8001H132.613ZM135.421 44.5521H139.381C140.117 44.5521 140.485 44.1841 140.485 43.4481V37.9521C140.485 37.2161 140.117 36.8481 139.381 36.8481H135.421V44.5521ZM146.602 43.2081V30.4401H149.41V34.4001H153.706V36.8481H149.41V43.4481C149.41 44.1841 149.778 44.5521 150.514 44.5521H153.946V46.0641L152.674 47.0001H150.394C147.866 47.0001 146.602 45.7361 146.602 43.2081ZM156.541 32.2161V29.3601H159.493V32.2161H156.541ZM156.613 47.0001V34.4001H159.421V47.0001H156.613ZM162.819 43.2081V38.1921C162.819 35.6641 164.083 34.4001 166.611 34.4001H169.971C172.483 34.4001 173.739 35.6641 173.739 38.1921V43.2081C173.739 45.7361 172.483 47.0001 169.971 47.0001H166.611C164.083 47.0001 162.819 45.7361 162.819 43.2081ZM165.627 43.4481C165.627 44.1841 165.995 44.5521 166.731 44.5521H169.827C170.563 44.5521 170.931 44.1841 170.931 43.4481V37.9521C170.931 37.2161 170.563 36.8481 169.827 36.8481H166.731C165.995 36.8481 165.627 37.2161 165.627 37.9521V43.4481ZM177.144 47.0001V34.4001H184.056C186.568 34.4001 187.824 35.6641 187.824 38.1921V47.0001H185.016V37.9521C185.016 37.2161 184.648 36.8481 183.912 36.8481H179.952V47.0001H177.144Z" fill="#EB5D47"/>
<path d="M3.84 18V16.48H7.26V5.71995H4.54V4.89995L5.44 4.19995H8.94V16.48H12.04V18H3.84ZM14.8425 5.71995V4.19995H23.8425V7.69995L18.4425 18H16.9425L16.7225 17.6L22.1625 7.31995V5.71995H14.8425ZM25.525 18.5L31.145 3.19995L32.525 3.69995L26.905 19L25.525 18.5ZM34.198 14.94V7.25995C34.198 5.21995 35.218 4.19995 37.258 4.19995H40.138C42.178 4.19995 43.198 5.21995 43.198 7.25995V14.94C43.198 16.98 42.178 18 40.138 18H37.258C35.218 18 34.198 16.98 34.198 14.94ZM35.878 15.12C35.878 16.0267 36.3313 16.48 37.238 16.48H40.158C41.0646 16.48 41.518 16.0267 41.518 15.12V7.07995C41.518 6.17328 41.0646 5.71995 40.158 5.71995H37.238C36.3313 5.71995 35.878 6.17328 35.878 7.07995V15.12ZM46.3205 18V16.48H49.7405V5.71995H47.0205V4.89995L47.9205 4.19995H51.4205V16.48H54.5205V18H46.3205ZM56.443 18.5L62.063 3.19995L63.443 3.69995L57.823 19L56.443 18.5ZM65.1159 18V13.8C65.1159 12.12 65.8493 11.1333 67.3159 10.84L71.4159 10.02C72.0959 9.88662 72.4359 9.43995 72.4359 8.67995V7.07995C72.4359 6.17328 71.9826 5.71995 71.0759 5.71995H65.5159V4.89995L66.4159 4.19995H71.0559C73.0959 4.19995 74.1159 5.21995 74.1159 7.25995V8.55995C74.1159 10.24 73.3826 11.2267 71.9159 11.52L67.8159 12.34C67.1359 12.4733 66.7959 12.92 66.7959 13.68V16.48H74.1159V18H65.1159ZM76.6784 15.42V14.02L81.2984 4.19995H82.6984L82.9184 4.59995L78.5384 13.9H83.9984V9.39995H85.6784V18H83.9984V15.42H76.6784Z" fill="#B0B0B0"/>
<path d="M247.208 188V171.44H253.76C257.6 171.44 259.52 173.368 259.52 177.224V182.216C259.52 186.072 257.6 188 253.76 188H247.208ZM248.816 186.536H253.856C256.56 186.536 257.912 185.184 257.912 182.48V176.96C257.912 174.256 256.56 172.904 253.856 172.904H248.816V186.536ZM263.042 184.472V179.096C263.042 176.744 264.218 175.568 266.57 175.568H269.69C272.026 175.568 273.194 176.744 273.194 179.096V182.384H264.554V184.712C264.554 186.024 265.21 186.68 266.522 186.68H272.714V187.376L271.898 188H266.57C264.218 188 263.042 186.824 263.042 184.472ZM264.554 181.112H271.682V178.856C271.682 177.56 271.034 176.912 269.738 176.912H266.522C265.21 176.912 264.554 177.56 264.554 178.856V181.112ZM276.968 192.8V175.568H283.616C285.952 175.568 287.12 176.744 287.12 179.096V184.472C287.12 186.824 285.952 188 283.616 188H278.48V192.8H276.968ZM278.48 186.68H283.664C284.96 186.68 285.608 186.024 285.608 184.712V178.856C285.608 177.56 284.96 176.912 283.664 176.912H278.48V186.68ZM290.794 184.952V170.24H292.306V185.072C292.306 186.224 292.89 186.824 294.058 186.872V188.192C291.882 188.192 290.794 187.112 290.794 184.952ZM296.581 184.472V179.096C296.581 176.744 297.757 175.568 300.109 175.568H303.469C305.805 175.568 306.973 176.744 306.973 179.096V184.472C306.973 186.824 305.805 188 303.469 188H300.109C297.757 188 296.581 186.824 296.581 184.472ZM298.093 184.712C298.093 186.024 298.749 186.68 300.061 186.68H303.517C304.813 186.68 305.461 186.024 305.461 184.712V178.856C305.461 177.56 304.813 176.912 303.517 176.912H300.061C298.749 176.912 298.093 177.56 298.093 178.856V184.712ZM309.253 175.88L309.445 175.568H310.765L314.605 186.68H315.157L319.021 175.568H320.317L320.509 175.88L314.485 192.8H313.189L312.997 192.512L314.677 188H313.573L309.253 175.88ZM328.526 184.472V179.096C328.526 176.744 329.702 175.568 332.054 175.568H336.83L337.646 176.192V176.912H332.006C330.694 176.912 330.038 177.56 330.038 178.856V184.712C330.038 186.024 330.694 186.68 332.006 186.68H337.646V187.376L336.83 188H332.054C329.702 188 328.526 186.824 328.526 184.472ZM340.526 184.472V179.096C340.526 176.744 341.702 175.568 344.054 175.568H347.414C349.75 175.568 350.918 176.744 350.918 179.096V184.472C350.918 186.824 349.75 188 347.414 188H344.054C341.702 188 340.526 186.824 340.526 184.472ZM342.038 184.712C342.038 186.024 342.694 186.68 344.006 186.68H347.462C348.758 186.68 349.406 186.024 349.406 184.712V178.856C349.406 177.56 348.758 176.912 347.462 176.912H344.006C342.694 176.912 342.038 177.56 342.038 178.856V184.712ZM354.687 188V175.568H361.335C363.671 175.568 364.839 176.744 364.839 179.096V188H363.327V178.856C363.327 177.56 362.679 176.912 361.383 176.912H356.199V188H354.687ZM368.606 184.472V171.44H370.118V175.568H374.822V176.912H370.118V184.712C370.118 186.024 370.774 186.68 372.086 186.68H375.062V187.376L374.246 188H372.134C369.782 188 368.606 186.824 368.606 184.472ZM377.794 188V176.96C378.354 176.032 379.37 175.568 380.842 175.568H383.194L384.01 176.192V176.912H380.914C380.178 176.912 379.642 177.112 379.306 177.512V188H377.794ZM389.254 188C386.886 188 385.702 186.816 385.702 184.448C385.702 182.064 386.886 180.872 389.254 180.872H393.958V178.856C393.958 177.56 393.31 176.912 392.014 176.912H386.854V176.192L387.694 175.568H391.966C394.302 175.568 395.47 176.744 395.47 179.096V188H389.254ZM387.214 184.712C387.214 186.024 387.87 186.68 389.182 186.68H393.958V182.144H389.182C387.87 182.144 387.214 182.792 387.214 184.088V184.712ZM399.143 184.472V179.096C399.143 176.744 400.319 175.568 402.671 175.568H407.447L408.263 176.192V176.912H402.623C401.311 176.912 400.655 177.56 400.655 178.856V184.712C400.655 186.024 401.311 186.68 402.623 186.68H408.263V187.376L407.447 188H402.671C400.319 188 399.143 186.824 399.143 184.472ZM411.239 184.472V171.44H412.751V175.568H417.455V176.912H412.751V184.712C412.751 186.024 413.407 186.68 414.719 186.68H417.695V187.376L416.879 188H414.767C412.415 188 411.239 186.824 411.239 184.472ZM426.288 184.424V175.016C426.288 172.632 427.48 171.44 429.864 171.44H436.728L437.664 172.16V172.904H429.792C428.528 172.904 427.896 173.528 427.896 174.776V184.664C427.896 185.912 428.528 186.536 429.792 186.536H437.664V187.28L436.728 188H429.864C427.48 188 426.288 186.808 426.288 184.424ZM440.843 184.424V175.016C440.843 172.632 442.035 171.44 444.419 171.44H450.059C452.443 171.44 453.635 172.632 453.635 175.016V184.424C453.635 186.808 452.443 188 450.059 188H444.419C442.035 188 440.843 186.808 440.843 184.424ZM442.451 184.664C442.451 185.912 443.083 186.536 444.347 186.536H450.155C451.403 186.536 452.027 185.912 452.027 184.664V174.776C452.027 173.528 451.403 172.904 450.155 172.904H444.347C443.083 172.904 442.451 173.528 442.451 174.776V184.664ZM457.841 188V171.44H468.497V172.904H459.449V179.264H467.777V180.704H459.449V188H457.841ZM471.435 188V171.44H482.091V172.904H473.043V179.264H481.371V180.704H473.043V188H471.435ZM245.48 201.824L245.744 201.44H247.064L252.008 216.536H252.632L257.576 201.44H258.896L259.136 201.824L253.76 218H250.88L245.48 201.824ZM261.905 218V216.536H266.153V202.904H262.817V202.16L263.753 201.44H267.737V216.536H271.601V218H261.905ZM275.588 218V215.672H277.556V218H275.588ZM281.225 214.424V205.016C281.225 202.632 282.417 201.44 284.801 201.44H288.305C290.689 201.44 291.881 202.632 291.881 205.016V214.424C291.881 216.808 290.689 218 288.305 218H284.801C282.417 218 281.225 216.808 281.225 214.424ZM282.833 214.664C282.833 215.912 283.465 216.536 284.729 216.536H288.377C289.641 216.536 290.273 215.912 290.273 214.664V204.776C290.273 203.528 289.641 202.904 288.377 202.904H284.729C283.465 202.904 282.833 203.528 282.833 204.776V214.664ZM299.738 217.616L305.33 201.44H308.066L313.634 217.616L313.394 218H312.074L310.61 213.584H302.762L301.298 218H300.002L299.738 217.616ZM303.29 212.144H310.106L307.01 202.904H306.386L303.29 212.144ZM314.128 205.88L314.32 205.568H315.64L319.48 216.68H320.032L323.896 205.568H325.192L325.384 205.88L321.088 218H318.448L314.128 205.88ZM330.473 218C328.105 218 326.921 216.816 326.921 214.448C326.921 212.064 328.105 210.872 330.473 210.872H335.177V208.856C335.177 207.56 334.529 206.912 333.233 206.912H328.073V206.192L328.913 205.568H333.185C335.521 205.568 336.689 206.744 336.689 209.096V218H330.473ZM328.433 214.712C328.433 216.024 329.089 216.68 330.401 216.68H335.177V212.144H330.401C329.089 212.144 328.433 212.792 328.433 214.088V214.712ZM340.458 214.952V200.24H341.97V215.072C341.97 216.224 342.554 216.824 343.722 216.872V218.192C341.546 218.192 340.458 217.112 340.458 214.952ZM349.317 218C346.949 218 345.765 216.816 345.765 214.448C345.765 212.064 346.949 210.872 349.317 210.872H354.021V208.856C354.021 207.56 353.373 206.912 352.077 206.912H346.917V206.192L347.757 205.568H352.029C354.365 205.568 355.533 206.744 355.533 209.096V218H349.317ZM347.277 214.712C347.277 216.024 347.933 216.68 349.245 216.68H354.021V212.144H349.245C347.933 212.144 347.277 212.792 347.277 214.088V214.712ZM359.398 218V205.568H366.046C368.382 205.568 369.55 206.744 369.55 209.096V218H368.038V208.856C368.038 207.56 367.39 206.912 366.094 206.912H360.91V218H359.398ZM373.221 214.472V209.096C373.221 206.744 374.397 205.568 376.749 205.568H381.525L382.341 206.192V206.912H376.701C375.389 206.912 374.733 207.56 374.733 208.856V214.712C374.733 216.024 375.389 216.68 376.701 216.68H382.341V217.376L381.525 218H376.749C374.397 218 373.221 216.824 373.221 214.472ZM385.413 218V200.24H386.925V205.568H392.061C394.397 205.568 395.565 206.744 395.565 209.096V218H394.053V208.856C394.053 207.56 393.405 206.912 392.109 206.912H386.925V218H385.413ZM399.237 214.472V209.096C399.237 206.744 400.413 205.568 402.765 205.568H405.885C408.221 205.568 409.389 206.744 409.389 209.096V212.384H400.749V214.712C400.749 216.024 401.405 216.68 402.717 216.68H408.909V217.376L408.093 218H402.765C400.413 218 399.237 216.824 399.237 214.472ZM400.749 211.112H407.877V208.856C407.877 207.56 407.229 206.912 405.933 206.912H402.717C401.405 206.912 400.749 207.56 400.749 208.856V211.112ZM419.169 218V201.44H429.825V202.904H420.777V209.264H429.105V210.704H420.777V218H419.169ZM432.619 214.424V201.44H434.227V214.664C434.227 215.912 434.859 216.536 436.123 216.536H441.451C442.699 216.536 443.323 215.912 443.323 214.664V201.44H444.931V214.424C444.931 216.808 443.739 218 441.355 218H436.195C433.811 218 432.619 216.808 432.619 214.424ZM448.496 214.424V212.048H450.104V214.664C450.104 215.912 450.736 216.536 452 216.536H455.888C457.136 216.536 457.76 215.912 457.76 214.664V202.904H452.096V201.44H459.368V214.424C459.368 216.808 458.176 218 455.792 218H452.072C449.688 218 448.496 216.808 448.496 214.424ZM463.653 218V201.44H465.261V218H463.653ZM245.576 232.904V231.44H258.488V232.904H252.824V248H251.24V232.904H245.576ZM259.878 244.472V239.096C259.878 236.744 261.054 235.568 263.406 235.568H266.526C268.862 235.568 270.03 236.744 270.03 239.096V242.384H261.39V244.712C261.39 246.024 262.046 246.68 263.358 246.68H269.55V247.376L268.734 248H263.406C261.054 248 259.878 246.824 259.878 244.472ZM261.39 241.112H268.518V238.856C268.518 237.56 267.87 236.912 266.574 236.912H263.358C262.046 236.912 261.39 237.56 261.39 238.856V241.112ZM273.3 247.376V246.68H278.868C280.148 246.68 280.788 246.04 280.788 244.76C280.788 243.48 280.276 242.76 279.252 242.6L276.324 242.096C274.308 241.76 273.3 240.696 273.3 238.904C273.3 236.68 274.484 235.568 276.852 235.568H280.908L281.724 236.192V236.912H276.756C275.46 236.912 274.812 237.544 274.812 238.808C274.812 239.928 275.348 240.576 276.42 240.752L279.372 241.256C281.324 241.576 282.3 242.712 282.3 244.664C282.3 246.888 281.116 248 278.748 248H274.116L273.3 247.376ZM285.661 244.472V231.44H287.173V235.568H291.877V236.912H287.173V244.712C287.173 246.024 287.829 246.68 289.141 246.68H292.117V247.376L291.301 248H289.189C286.837 248 285.661 246.824 285.661 244.472ZM294.945 248V235.568H301.593C303.929 235.568 305.097 236.744 305.097 239.096V248H303.585V238.856C303.585 237.56 302.937 236.912 301.641 236.912H296.457V248H294.945ZM308.768 244.472V239.096C308.768 236.744 309.944 235.568 312.296 235.568H315.416C317.752 235.568 318.92 236.744 318.92 239.096V242.384H310.28V244.712C310.28 246.024 310.936 246.68 312.248 246.68H318.44V247.376L317.624 248H312.296C309.944 248 308.768 246.824 308.768 244.472ZM310.28 241.112H317.408V238.856C317.408 237.56 316.76 236.912 315.464 236.912H312.248C310.936 236.912 310.28 237.56 310.28 238.856V241.112ZM322.599 244.472V231.44H324.111V235.568H328.815V236.912H324.111V244.712C324.111 246.024 324.767 246.68 326.079 246.68H329.055V247.376L328.239 248H326.127C323.775 248 322.599 246.824 322.599 244.472Z" fill="white"/>
<path d="M489.208 46V29.44H491.44L497.248 41.728L503.032 29.44H505.264V46H503.656V31.576L498.04 43.528H496.432L490.816 31.576V46H489.208ZM507.941 29.824L508.205 29.44H509.525L514.469 44.536H515.093L520.037 29.44H521.357L521.597 29.824L516.221 46H513.341L507.941 29.824ZM524.294 46V29.44H532.07C534.454 29.44 535.646 30.632 535.646 33.016V36.112C535.646 38.48 534.454 39.664 532.07 39.664H525.902V46H524.294ZM525.902 38.224H532.166C533.414 38.224 534.038 37.592 534.038 36.328V32.776C534.038 31.528 533.414 30.904 532.166 30.904H525.902V38.224ZM544.89 46V31.768C544.89 29.416 546.066 28.24 548.418 28.24H550.53L551.346 28.864V29.56H548.37C547.058 29.56 546.402 30.216 546.402 31.528V33.568H551.106V34.912H546.402V46H544.89ZM553.7 31.192V29.224H555.428V31.192H553.7ZM553.796 46V33.568H555.308V46H553.796ZM559.257 46V33.568H565.905C568.241 33.568 569.409 34.744 569.409 37.096V46H567.897V36.856C567.897 35.56 567.249 34.912 565.953 34.912H560.769V46H559.257ZM576.153 46C573.785 46 572.601 44.816 572.601 42.448C572.601 40.064 573.785 38.872 576.153 38.872H580.857V36.856C580.857 35.56 580.209 34.912 578.913 34.912H573.753V34.192L574.593 33.568H578.865C581.201 33.568 582.369 34.744 582.369 37.096V46H576.153ZM574.113 42.712C574.113 44.024 574.769 44.68 576.081 44.68H580.857V40.144H576.081C574.769 40.144 574.113 40.792 574.113 42.088V42.712ZM586.138 42.952V28.24H587.65V43.072C587.65 44.224 588.234 44.824 589.402 44.872V46.192C587.226 46.192 586.138 45.112 586.138 42.952ZM597.69 42.472V37.096C597.69 34.744 598.866 33.568 601.218 33.568H606.33V28.24H607.842V46H601.218C598.866 46 597.69 44.824 597.69 42.472ZM599.202 42.712C599.202 44.024 599.858 44.68 601.17 44.68H606.33V34.912H601.17C599.858 34.912 599.202 35.56 599.202 36.856V42.712ZM611.612 42.472V37.096C611.612 34.744 612.788 33.568 615.14 33.568H618.26C620.596 33.568 621.764 34.744 621.764 37.096V40.384H613.124V42.712C613.124 44.024 613.78 44.68 615.092 44.68H621.284V45.376L620.468 46H615.14C612.788 46 611.612 44.824 611.612 42.472ZM613.124 39.112H620.252V36.856C620.252 35.56 619.604 34.912 618.308 34.912H615.092C613.78 34.912 613.124 35.56 613.124 36.856V39.112ZM625.034 45.376V44.68H630.602C631.882 44.68 632.522 44.04 632.522 42.76C632.522 41.48 632.01 40.76 630.986 40.6L628.058 40.096C626.042 39.76 625.034 38.696 625.034 36.904C625.034 34.68 626.218 33.568 628.586 33.568H632.642L633.458 34.192V34.912H628.49C627.194 34.912 626.546 35.544 626.546 36.808C626.546 37.928 627.082 38.576 628.154 38.752L631.106 39.256C633.058 39.576 634.034 40.712 634.034 42.664C634.034 44.888 632.85 46 630.482 46H625.85L625.034 45.376ZM637.395 31.192V29.224H639.123V31.192H637.395ZM637.491 46V33.568H639.003V46H637.491ZM642.952 46V33.568H649.6C651.936 33.568 653.104 34.744 653.104 37.096V46H651.592V36.856C651.592 35.56 650.944 34.912 649.648 34.912H644.464V46H642.952ZM656.8 42.472V37.096C656.8 34.744 657.976 33.568 660.328 33.568H666.976V47.272C666.976 49.624 665.8 50.8 663.448 50.8H658.552L657.736 50.176V49.48H663.496C664.808 49.48 665.464 48.824 665.464 47.512V46H660.328C657.976 46 656.8 44.824 656.8 42.472ZM658.312 42.712C658.312 44.024 658.968 44.68 660.28 44.68H665.464V34.912H660.28C658.968 34.912 658.312 35.56 658.312 36.856V42.712Z" fill="white"/>
</svg>
