<svg width="1335" height="325" viewBox="0 0 1335 325" fill="none" xmlns="http://www.w3.org/2000/svg">
<path d="M2.99988 177.12H1213" stroke="white" stroke-dasharray="2 2"/>
<path d="M3 122.113L0.113251 125L3 127.887L5.88675 125L3 122.113ZM3.5 177V176H2.5V177H3.5ZM3.5 174V172H2.5V174H3.5ZM3.5 170V168H2.5V170H3.5ZM3.5 166V164H2.5V166H3.5ZM3.5 162V160H2.5V162H3.5ZM3.5 158V156H2.5V158H3.5ZM3.5 154V152H2.5V154H3.5ZM3.5 150V148H2.5V150H3.5ZM3.5 146V144H2.5V146H3.5ZM3.5 142V140H2.5V142H3.5ZM3.5 138V136H2.5V138H3.5ZM3.5 134V132H2.5V134H3.5ZM3.5 130V128H2.5V130H3.5ZM3.5 126V125H2.5V126H3.5Z" fill="white"/>
<path d="M245 231.887L247.887 229L245 226.113L242.113 229L245 231.887ZM244.5 177V178H245.5V177H244.5ZM244.5 180V182H245.5V180H244.5ZM244.5 184V186H245.5V184H244.5ZM244.5 188V190H245.5V188H244.5ZM244.5 192V194H245.5V192H244.5ZM244.5 196V198H245.5V196H244.5ZM244.5 200V202H245.5V200H244.5ZM244.5 204V206H245.5V204H244.5ZM244.5 208V210H245.5V208H244.5ZM244.5 212V214H245.5V212H244.5ZM244.5 216V218H245.5V216H244.5ZM244.5 220V222H245.5V220H244.5ZM244.5 224V226H245.5V224H244.5ZM244.5 228V229H245.5V228H244.5Z" fill="white"/>
<path d="M487 122.113L484.113 125L487 127.887L489.887 125L487 122.113ZM487.5 177V176H486.5V177H487.5ZM487.5 174V172H486.5V174H487.5ZM487.5 170V168H486.5V170H487.5ZM487.5 166V164H486.5V166H487.5ZM487.5 162V160H486.5V162H487.5ZM487.5 158V156H486.5V158H487.5ZM487.5 154V152H486.5V154H487.5ZM487.5 150V148H486.5V150H487.5ZM487.5 146V144H486.5V146H487.5ZM487.5 142V140H486.5V142H487.5ZM487.5 138V136H486.5V138H487.5ZM487.5 134V132H486.5V134H487.5ZM487.5 130V128H486.5V130H487.5ZM487.5 126V125H486.5V126H487.5Z" fill="white"/>
<path d="M971 122.113L968.113 125L971 127.887L973.887 125L971 122.113ZM971.5 177V176H970.5V177H971.5ZM971.5 174V172H970.5V174H971.5ZM971.5 170V168H970.5V170H971.5ZM971.5 166V164H970.5V166H971.5ZM971.5 162V160H970.5V162H971.5ZM971.5 158V156H970.5V158H971.5ZM971.5 154V152H970.5V154H971.5ZM971.5 150V148H970.5V150H971.5ZM971.5 146V144H970.5V146H971.5ZM971.5 142V140H970.5V142H971.5ZM971.5 138V136H970.5V138H971.5ZM971.5 134V132H970.5V134H971.5ZM971.5 130V128H970.5V130H971.5ZM971.5 126V125H970.5V126H971.5Z" fill="white"/>
<path d="M729 231.887L731.887 229L729 226.113L726.113 229L729 231.887ZM728.5 177V178H729.5V177H728.5ZM728.5 180V182H729.5V180H728.5ZM728.5 184V186H729.5V184H728.5ZM728.5 188V190H729.5V188H728.5ZM728.5 192V194H729.5V192H728.5ZM728.5 196V198H729.5V196H728.5ZM728.5 200V202H729.5V200H728.5ZM728.5 204V206H729.5V204H728.5ZM728.5 208V210H729.5V208H728.5ZM728.5 212V214H729.5V212H728.5ZM728.5 216V218H729.5V216H728.5ZM728.5 220V222H729.5V220H728.5ZM728.5 224V226H729.5V224H728.5ZM728.5 228V229H729.5V228H728.5Z" fill="white"/>
<path d="M1213 231.887L1215.89 229L1213 226.113L1210.11 229L1213 231.887ZM1212.5 177V178H1213.5V177H1212.5ZM1212.5 180V182H1213.5V180H1212.5ZM1212.5 184V186H1213.5V184H1212.5ZM1212.5 188V190H1213.5V188H1212.5ZM1212.5 192V194H1213.5V192H1212.5ZM1212.5 196V198H1213.5V196H1212.5ZM1212.5 200V202H1213.5V200H1212.5ZM1212.5 204V206H1213.5V204H1212.5ZM1212.5 208V210H1213.5V208H1212.5ZM1212.5 212V214H1213.5V212H1212.5ZM1212.5 216V218H1213.5V216H1212.5ZM1212.5 220V222H1213.5V220H1212.5ZM1212.5 224V226H1213.5V224H1212.5ZM1212.5 228V229H1213.5V228H1212.5Z" fill="white"/>
<path d="M2.576 99.1041V96.4401H15.944V99.1041H10.736V113H7.784V99.1041H2.576ZM17.1783 109.208V104.192C17.1783 101.664 18.4423 100.4 20.9703 100.4H24.0903C26.6023 100.4 27.8583 101.664 27.8583 104.192V107.744H19.9863V109.448C19.9863 110.184 20.3543 110.552 21.0903 110.552H27.3783V112.064L26.1063 113H20.9703C18.4423 113 17.1783 111.736 17.1783 109.208ZM19.9863 105.56H25.0503V103.952C25.0503 103.216 24.6823 102.848 23.9463 102.848H21.0903C20.3543 102.848 19.9863 103.216 19.9863 103.952V105.56ZM34.3888 113C31.8608 113 30.5968 111.752 30.5968 109.256C30.5968 106.76 31.8608 105.512 34.3888 105.512H38.0848V103.952C38.0848 103.216 37.7168 102.848 36.9808 102.848H31.8928V101.336L33.1408 100.4H37.1248C39.6368 100.4 40.8928 101.664 40.8928 104.192V113H34.3888ZM33.4048 109.448C33.4048 110.184 33.7728 110.552 34.5088 110.552H38.0848V107.696H34.5088C33.7728 107.696 33.4048 108.056 33.4048 108.776V109.448ZM44.3938 113V100.4H58.7458C61.2578 100.4 62.5138 101.664 62.5138 104.192V113H59.7058V103.952C59.7058 103.216 59.3378 102.848 58.6018 102.848H54.8578V113H52.0498V102.848H47.2018V113H44.3938ZM71.7202 98.2161V95.3601H74.6722V98.2161H71.7202ZM71.7922 113V100.4H74.6002V113H71.7922ZM78.1906 113V100.4H85.1026C87.6146 100.4 88.8706 101.664 88.8706 104.192V113H86.0626V103.952C86.0626 103.216 85.6946 102.848 84.9586 102.848H80.9986V113H78.1906ZM91.9143 112.064V110.552H97.4583C98.1943 110.552 98.5623 110.16 98.5623 109.376C98.5623 108.56 98.2583 108.096 97.6503 107.984L94.9623 107.552C92.9303 107.2 91.9143 106.048 91.9143 104.096C91.9143 101.632 93.1783 100.4 95.7063 100.4H99.5223L100.794 101.336V102.848H95.8263C95.0743 102.848 94.6983 103.24 94.6983 104.024C94.6983 104.808 95.0183 105.256 95.6583 105.368L98.3463 105.8C100.362 106.136 101.37 107.296 101.37 109.28C101.37 111.76 100.098 113 97.5543 113H93.1863L91.9143 112.064ZM104.296 109.208V104.192C104.296 101.664 105.56 100.4 108.088 100.4H112.624L113.896 101.336V102.848H108.208C107.472 102.848 107.104 103.216 107.104 103.952V109.448C107.104 110.184 107.472 110.552 108.208 110.552H113.896V112.064L112.624 113H108.088C105.56 113 104.296 111.736 104.296 109.208ZM116.696 113V101.96C117.272 100.92 118.376 100.4 120.008 100.4H122.528L123.8 101.336V102.848H120.656C120.112 102.848 119.728 102.984 119.504 103.256V113H116.696ZM126.142 98.2161V95.3601H129.094V98.2161H126.142ZM126.214 113V100.4H129.022V113H126.214ZM132.613 117.8V100.4H139.525C142.037 100.4 143.293 101.664 143.293 104.192V109.208C143.293 111.736 142.037 113 139.525 113H135.421V117.8H132.613ZM135.421 110.552H139.381C140.117 110.552 140.485 110.184 140.485 109.448V103.952C140.485 103.216 140.117 102.848 139.381 102.848H135.421V110.552ZM146.602 109.208V96.4401H149.41V100.4H153.706V102.848H149.41V109.448C149.41 110.184 149.778 110.552 150.514 110.552H153.946V112.064L152.674 113H150.394C147.866 113 146.602 111.736 146.602 109.208ZM156.541 98.2161V95.3601H159.493V98.2161H156.541ZM156.613 113V100.4H159.421V113H156.613ZM162.819 109.208V104.192C162.819 101.664 164.083 100.4 166.611 100.4H169.971C172.483 100.4 173.739 101.664 173.739 104.192V109.208C173.739 111.736 172.483 113 169.971 113H166.611C164.083 113 162.819 111.736 162.819 109.208ZM165.627 109.448C165.627 110.184 165.995 110.552 166.731 110.552H169.827C170.563 110.552 170.931 110.184 170.931 109.448V103.952C170.931 103.216 170.563 102.848 169.827 102.848H166.731C165.995 102.848 165.627 103.216 165.627 103.952V109.448ZM177.144 113V100.4H184.056C186.568 100.4 187.824 101.664 187.824 104.192V113H185.016V103.952C185.016 103.216 184.648 102.848 183.912 102.848H179.952V113H177.144Z" fill="#EB5D47"/>
<path d="M3.84 84V82.48H7.26V71.72H4.54V70.9L5.44 70.2H8.94V82.48H12.04V84H3.84ZM14.8425 71.72V70.2H23.8425V73.7L18.4425 84H16.9425L16.7225 83.6L22.1625 73.32V71.72H14.8425ZM25.525 84.5L31.145 69.2L32.525 69.7L26.905 85L25.525 84.5ZM34.198 80.94V73.26C34.198 71.22 35.218 70.2 37.258 70.2H40.138C42.178 70.2 43.198 71.22 43.198 73.26V80.94C43.198 82.98 42.178 84 40.138 84H37.258C35.218 84 34.198 82.98 34.198 80.94ZM35.878 81.12C35.878 82.0267 36.3313 82.48 37.238 82.48H40.158C41.0646 82.48 41.518 82.0267 41.518 81.12V73.08C41.518 72.1733 41.0646 71.72 40.158 71.72H37.238C36.3313 71.72 35.878 72.1733 35.878 73.08V81.12ZM46.3205 84V82.48H49.7405V71.72H47.0205V70.9L47.9205 70.2H51.4205V82.48H54.5205V84H46.3205ZM56.443 84.5L62.063 69.2L63.443 69.7L57.823 85L56.443 84.5ZM65.1159 84V79.8C65.1159 78.12 65.8493 77.1333 67.3159 76.84L71.4159 76.02C72.0959 75.8867 72.4359 75.44 72.4359 74.68V73.08C72.4359 72.1733 71.9826 71.72 71.0759 71.72H65.5159V70.9L66.4159 70.2H71.0559C73.0959 70.2 74.1159 71.22 74.1159 73.26V74.56C74.1159 76.24 73.3826 77.2267 71.9159 77.52L67.8159 78.34C67.1359 78.4733 66.7959 78.92 66.7959 79.68V82.48H74.1159V84H65.1159ZM76.6784 81.42V80.02L81.2984 70.2H82.6984L82.9184 70.6L78.5384 79.9H83.9984V75.4H85.6784V84H83.9984V81.42H76.6784Z" fill="#B0B0B0"/>
<path d="M1214.84 257V255.48H1218.26V244.72H1215.54V243.9L1216.44 243.2H1219.94V255.48H1223.04V257H1214.84ZM1225.84 248.34V246.26C1225.84 244.22 1226.86 243.2 1228.9 243.2H1231.78C1233.82 243.2 1234.84 244.22 1234.84 246.26V253.32C1234.84 255.773 1233.62 257 1231.16 257H1227.34L1226.44 256.3V255.48H1231.24C1232.52 255.48 1233.16 254.84 1233.16 253.56V251.4H1228.9C1226.86 251.4 1225.84 250.38 1225.84 248.34ZM1227.52 248.52C1227.52 249.427 1227.98 249.88 1228.88 249.88H1233.16V246.08C1233.16 245.173 1232.71 244.72 1231.8 244.72H1228.88C1227.98 244.72 1227.52 245.173 1227.52 246.08V248.52ZM1236.53 257.5L1242.15 242.2L1243.53 242.7L1237.91 258L1236.53 257.5ZM1245.2 253.94V246.26C1245.2 244.22 1246.22 243.2 1248.26 243.2H1251.14C1253.18 243.2 1254.2 244.22 1254.2 246.26V253.94C1254.2 255.98 1253.18 257 1251.14 257H1248.26C1246.22 257 1245.2 255.98 1245.2 253.94ZM1246.88 254.12C1246.88 255.027 1247.33 255.48 1248.24 255.48H1251.16C1252.06 255.48 1252.52 255.027 1252.52 254.12V246.08C1252.52 245.173 1252.06 244.72 1251.16 244.72H1248.24C1247.33 244.72 1246.88 245.173 1246.88 246.08V254.12ZM1256.76 257V252.8C1256.76 251.12 1257.49 250.133 1258.96 249.84L1263.06 249.02C1263.74 248.887 1264.08 248.44 1264.08 247.68V246.08C1264.08 245.173 1263.63 244.72 1262.72 244.72H1257.16V243.9L1258.06 243.2H1262.7C1264.74 243.2 1265.76 244.22 1265.76 246.26V247.56C1265.76 249.24 1265.03 250.227 1263.56 250.52L1259.46 251.34C1258.78 251.473 1258.44 251.92 1258.44 252.68V255.48H1265.76V257H1256.76ZM1267.44 257.5L1273.06 242.2L1274.44 242.7L1268.82 258L1267.44 257.5ZM1276.12 257V252.8C1276.12 251.12 1276.85 250.133 1278.32 249.84L1282.42 249.02C1283.1 248.887 1283.44 248.44 1283.44 247.68V246.08C1283.44 245.173 1282.98 244.72 1282.08 244.72H1276.52V243.9L1277.42 243.2H1282.06C1284.1 243.2 1285.12 244.22 1285.12 246.26V247.56C1285.12 249.24 1284.38 250.227 1282.92 250.52L1278.82 251.34C1278.14 251.473 1277.8 251.92 1277.8 252.68V255.48H1285.12V257H1276.12ZM1287.68 254.42V253.02L1292.3 243.2H1293.7L1293.92 243.6L1289.54 252.9H1295V248.4H1296.68V257H1295V254.42H1287.68Z" fill="#B0B0B0"/>
<path d="M731.208 254V237.44H741.864V238.904H732.816V245.264H741.144V246.704H732.816V254H731.208ZM744.466 254V242.96C745.026 242.032 746.042 241.568 747.514 241.568H749.866L750.682 242.192V242.912H747.586C746.85 242.912 746.314 243.112 745.978 243.512V254H744.466ZM753.089 250.472V245.096C753.089 242.744 754.265 241.568 756.617 241.568H759.977C762.313 241.568 763.481 242.744 763.481 245.096V250.472C763.481 252.824 762.313 254 759.977 254H756.617C754.265 254 753.089 252.824 753.089 250.472ZM754.601 250.712C754.601 252.024 755.257 252.68 756.569 252.68H760.025C761.321 252.68 761.969 252.024 761.969 250.712V244.856C761.969 243.56 761.321 242.912 760.025 242.912H756.569C755.257 242.912 754.601 243.56 754.601 244.856V250.712ZM767.249 254V241.568H773.897C776.233 241.568 777.401 242.744 777.401 245.096V254H775.889V244.856C775.889 243.56 775.241 242.912 773.945 242.912H768.761V254H767.249ZM781.169 250.472V237.44H782.681V241.568H787.385V242.912H782.681V250.712C782.681 252.024 783.337 252.68 784.649 252.68H787.625V253.376L786.809 254H784.697C782.345 254 781.169 252.824 781.169 250.472ZM790.26 250.472V245.096C790.26 242.744 791.436 241.568 793.788 241.568H796.908C799.244 241.568 800.412 242.744 800.412 245.096V248.384H791.772V250.712C791.772 252.024 792.428 252.68 793.74 252.68H799.932V253.376L799.116 254H793.788C791.436 254 790.26 252.824 790.26 250.472ZM791.772 247.112H798.9V244.856C798.9 243.56 798.252 242.912 796.956 242.912H793.74C792.428 242.912 791.772 243.56 791.772 244.856V247.112ZM804.187 254V241.568H810.835C813.171 241.568 814.339 242.744 814.339 245.096V254H812.827V244.856C812.827 243.56 812.179 242.912 810.883 242.912H805.699V254H804.187ZM818.01 250.472V245.096C818.01 242.744 819.186 241.568 821.538 241.568H826.65V236.24H828.162V254H821.538C819.186 254 818.01 252.824 818.01 250.472ZM819.522 250.712C819.522 252.024 820.178 252.68 821.49 252.68H826.65V242.912H821.49C820.178 242.912 819.522 243.56 819.522 244.856V250.712ZM837.698 250.472V245.096C837.698 242.744 838.874 241.568 841.226 241.568H846.338V236.24H847.85V254H841.226C838.874 254 837.698 252.824 837.698 250.472ZM839.21 250.712C839.21 252.024 839.866 252.68 841.178 252.68H846.338V242.912H841.178C839.866 242.912 839.21 243.56 839.21 244.856V250.712ZM851.62 250.472V245.096C851.62 242.744 852.796 241.568 855.148 241.568H858.268C860.604 241.568 861.772 242.744 861.772 245.096V248.384H853.132V250.712C853.132 252.024 853.788 252.68 855.1 252.68H861.292V253.376L860.476 254H855.148C852.796 254 851.62 252.824 851.62 250.472ZM853.132 247.112H860.26V244.856C860.26 243.56 859.612 242.912 858.316 242.912H855.1C853.788 242.912 853.132 243.56 853.132 244.856V247.112ZM864.058 241.88L864.25 241.568H865.57L869.41 252.68H869.962L873.826 241.568H875.122L875.314 241.88L871.018 254H868.378L864.058 241.88ZM877.565 250.472V245.096C877.565 242.744 878.741 241.568 881.093 241.568H884.213C886.549 241.568 887.717 242.744 887.717 245.096V248.384H879.077V250.712C879.077 252.024 879.733 252.68 881.045 252.68H887.237V253.376L886.421 254H881.093C878.741 254 877.565 252.824 877.565 250.472ZM879.077 247.112H886.205V244.856C886.205 243.56 885.557 242.912 884.261 242.912H881.045C879.733 242.912 879.077 243.56 879.077 244.856V247.112ZM891.395 250.952V236.24H892.907V251.072C892.907 252.224 893.491 252.824 894.659 252.872V254.192C892.483 254.192 891.395 253.112 891.395 250.952ZM897.182 250.472V245.096C897.182 242.744 898.358 241.568 900.71 241.568H904.07C906.406 241.568 907.574 242.744 907.574 245.096V250.472C907.574 252.824 906.406 254 904.07 254H900.71C898.358 254 897.182 252.824 897.182 250.472ZM898.694 250.712C898.694 252.024 899.35 252.68 900.662 252.68H904.118C905.414 252.68 906.062 252.024 906.062 250.712V244.856C906.062 243.56 905.414 242.912 904.118 242.912H900.662C899.35 242.912 898.694 243.56 898.694 244.856V250.712ZM911.343 258.8V241.568H917.991C920.327 241.568 921.495 242.744 921.495 245.096V250.472C921.495 252.824 920.327 254 917.991 254H912.855V258.8H911.343ZM912.855 252.68H918.039C919.335 252.68 919.983 252.024 919.983 250.712V244.856C919.983 243.56 919.335 242.912 918.039 242.912H912.855V252.68ZM925.265 254V241.568H939.353C941.689 241.568 942.857 242.744 942.857 245.096V254H941.345V244.856C941.345 243.56 940.697 242.912 939.401 242.912H934.817V254H933.305V242.912H926.777V254H925.265ZM946.518 250.472V245.096C946.518 242.744 947.694 241.568 950.046 241.568H953.166C955.502 241.568 956.67 242.744 956.67 245.096V248.384H948.03V250.712C948.03 252.024 948.686 252.68 949.998 252.68H956.19V253.376L955.374 254H950.046C947.694 254 946.518 252.824 946.518 250.472ZM948.03 247.112H955.158V244.856C955.158 243.56 954.51 242.912 953.214 242.912H949.998C948.686 242.912 948.03 243.56 948.03 244.856V247.112ZM960.445 254V241.568H967.093C969.429 241.568 970.597 242.744 970.597 245.096V254H969.085V244.856C969.085 243.56 968.437 242.912 967.141 242.912H961.957V254H960.445ZM974.364 250.472V237.44H975.876V241.568H980.58V242.912H975.876V250.712C975.876 252.024 976.532 252.68 977.844 252.68H980.82V253.376L980.004 254H977.892C975.54 254 974.364 252.824 974.364 250.472ZM733.848 284C731.48 284 730.296 282.816 730.296 280.448C730.296 278.064 731.48 276.872 733.848 276.872H738.552V274.856C738.552 273.56 737.904 272.912 736.608 272.912H731.448V272.192L732.288 271.568H736.56C738.896 271.568 740.064 272.744 740.064 275.096V284H733.848ZM731.808 280.712C731.808 282.024 732.464 282.68 733.776 282.68H738.552V278.144H733.776C732.464 278.144 731.808 278.792 731.808 280.088V280.712ZM743.929 284V271.568H750.577C752.913 271.568 754.081 272.744 754.081 275.096V284H752.569V274.856C752.569 273.56 751.921 272.912 750.625 272.912H745.441V284H743.929ZM757.753 280.472V275.096C757.753 272.744 758.929 271.568 761.281 271.568H766.393V266.24H767.905V284H761.281C758.929 284 757.753 282.824 757.753 280.472ZM759.265 280.712C759.265 282.024 759.921 282.68 761.233 282.68H766.393V272.912H761.233C759.921 272.912 759.265 273.56 759.265 274.856V280.712ZM777.632 280.424V271.016C777.632 268.632 778.824 267.44 781.208 267.44H788.072L789.008 268.16V268.904H781.136C779.872 268.904 779.24 269.528 779.24 270.776V280.664C779.24 281.912 779.872 282.536 781.136 282.536H789.008V283.28L788.072 284H781.208C778.824 284 777.632 282.808 777.632 280.424ZM791.995 280.472V275.096C791.995 272.744 793.171 271.568 795.523 271.568H798.883C801.219 271.568 802.387 272.744 802.387 275.096V280.472C802.387 282.824 801.219 284 798.883 284H795.523C793.171 284 791.995 282.824 791.995 280.472ZM793.507 280.712C793.507 282.024 794.163 282.68 795.475 282.68H798.931C800.227 282.68 800.875 282.024 800.875 280.712V274.856C800.875 273.56 800.227 272.912 798.931 272.912H795.475C794.163 272.912 793.507 273.56 793.507 274.856V280.712ZM806.156 284V271.568H812.804C815.14 271.568 816.307 272.744 816.307 275.096V284H814.796V274.856C814.796 273.56 814.148 272.912 812.852 272.912H807.668V284H806.156ZM819.979 280.472V275.096C819.979 272.744 821.155 271.568 823.507 271.568H826.627C828.963 271.568 830.131 272.744 830.131 275.096V278.384H821.491V280.712C821.491 282.024 822.147 282.68 823.459 282.68H829.651V283.376L828.835 284H823.507C821.155 284 819.979 282.824 819.979 280.472ZM821.491 277.112H828.619V274.856C828.619 273.56 827.971 272.912 826.675 272.912H823.459C822.147 272.912 821.491 273.56 821.491 274.856V277.112ZM833.714 280.472V275.096C833.714 272.744 834.89 271.568 837.242 271.568H842.018L842.834 272.192V272.912H837.194C835.882 272.912 835.226 273.56 835.226 274.856V280.712C835.226 282.024 835.882 282.68 837.194 282.68H842.834V283.376L842.018 284H837.242C834.89 284 833.714 282.824 833.714 280.472ZM845.81 280.472V267.44H847.322V271.568H852.026V272.912H847.322V280.712C847.322 282.024 847.978 282.68 849.29 282.68H852.266V283.376L851.45 284H849.338C846.986 284 845.81 282.824 845.81 280.472ZM854.997 269.192V267.224H856.725V269.192H854.997ZM855.093 284V271.568H856.605V284H855.093ZM860.362 280.472V275.096C860.362 272.744 861.538 271.568 863.89 271.568H867.25C869.586 271.568 870.754 272.744 870.754 275.096V280.472C870.754 282.824 869.586 284 867.25 284H863.89C861.538 284 860.362 282.824 860.362 280.472ZM861.874 280.712C861.874 282.024 862.53 282.68 863.842 282.68H867.298C868.594 282.68 869.242 282.024 869.242 280.712V274.856C869.242 273.56 868.594 272.912 867.298 272.912H863.842C862.53 272.912 861.874 273.56 861.874 274.856V280.712ZM874.523 284V271.568H881.171C883.507 271.568 884.675 272.744 884.675 275.096V284H883.163V274.856C883.163 273.56 882.515 272.912 881.219 272.912H876.035V284H874.523ZM892.912 271.88L893.128 271.568H894.352L897.088 282.68H897.472L900.736 271.568H902.488L905.728 282.68H906.136L908.872 271.568H910.096L910.288 271.88L907.264 284H904.72L901.6 273.248L898.504 284H895.96L892.912 271.88ZM912.77 269.192V267.224H914.498V269.192H912.77ZM912.866 284V271.568H914.378V284H912.866ZM918.231 280.472V267.44H919.743V271.568H924.447V272.912H919.743V280.712C919.743 282.024 920.399 282.68 921.711 282.68H924.687V283.376L923.871 284H921.759C919.407 284 918.231 282.824 918.231 280.472ZM927.515 284V266.24H929.027V271.568H934.163C936.499 271.568 937.667 272.744 937.667 275.096V284H936.155V274.856C936.155 273.56 935.507 272.912 934.211 272.912H929.027V284H927.515ZM731.208 314V297.44H738.984C741.368 297.44 742.56 298.632 742.56 301.016V304.112C742.56 306.48 741.368 307.664 738.984 307.664H732.816V314H731.208ZM732.816 306.224H739.08C740.328 306.224 740.952 305.592 740.952 304.328V300.776C740.952 299.528 740.328 298.904 739.08 298.904H732.816V306.224ZM748.45 314C746.082 314 744.898 312.816 744.898 310.448C744.898 308.064 746.082 306.872 748.45 306.872H753.154V304.856C753.154 303.56 752.506 302.912 751.21 302.912H746.05V302.192L746.89 301.568H751.162C753.498 301.568 754.666 302.744 754.666 305.096V314H748.45ZM746.41 310.712C746.41 312.024 747.066 312.68 748.378 312.68H753.154V308.144H748.378C747.066 308.144 746.41 308.792 746.41 310.088V310.712ZM758.435 314V302.96C758.995 302.032 760.011 301.568 761.483 301.568H763.835L764.651 302.192V302.912H761.555C760.819 302.912 760.283 303.112 759.947 303.512V314H758.435ZM767.153 310.472V297.44H768.665V301.568H773.369V302.912H768.665V310.712C768.665 312.024 769.321 312.68 770.633 312.68H773.609V313.376L772.793 314H770.681C768.329 314 767.153 312.824 767.153 310.472ZM776.341 299.192V297.224H778.069V299.192H776.341ZM776.437 314V301.568H777.949V314H776.437ZM781.706 310.472V305.096C781.706 302.744 782.882 301.568 785.234 301.568H790.01L790.826 302.192V302.912H785.186C783.874 302.912 783.218 303.56 783.218 304.856V310.712C783.218 312.024 783.874 312.68 785.186 312.68H790.826V313.376L790.01 314H785.234C782.882 314 781.706 312.824 781.706 310.472ZM793.802 310.952V296.24H795.314V311.072C795.314 312.224 795.898 312.824 797.066 312.872V314.192C794.89 314.192 793.802 313.112 793.802 310.952ZM799.589 310.472V305.096C799.589 302.744 800.765 301.568 803.117 301.568H806.237C808.573 301.568 809.741 302.744 809.741 305.096V308.384H801.101V310.712C801.101 312.024 801.757 312.68 803.069 312.68H809.261V313.376L808.445 314H803.117C800.765 314 799.589 312.824 799.589 310.472ZM801.101 307.112H808.229V304.856C808.229 303.56 807.581 302.912 806.285 302.912H803.069C801.757 302.912 801.101 303.56 801.101 304.856V307.112Z" fill="white"/>
<path d="M247.208 254V237.44H253.76C257.6 237.44 259.52 239.368 259.52 243.224V248.216C259.52 252.072 257.6 254 253.76 254H247.208ZM248.816 252.536H253.856C256.56 252.536 257.912 251.184 257.912 248.48V242.96C257.912 240.256 256.56 238.904 253.856 238.904H248.816V252.536ZM263.042 250.472V245.096C263.042 242.744 264.218 241.568 266.57 241.568H269.69C272.026 241.568 273.194 242.744 273.194 245.096V248.384H264.554V250.712C264.554 252.024 265.21 252.68 266.522 252.68H272.714V253.376L271.898 254H266.57C264.218 254 263.042 252.824 263.042 250.472ZM264.554 247.112H271.682V244.856C271.682 243.56 271.034 242.912 269.738 242.912H266.522C265.21 242.912 264.554 243.56 264.554 244.856V247.112ZM276.968 258.8V241.568H283.616C285.952 241.568 287.12 242.744 287.12 245.096V250.472C287.12 252.824 285.952 254 283.616 254H278.48V258.8H276.968ZM278.48 252.68H283.664C284.96 252.68 285.608 252.024 285.608 250.712V244.856C285.608 243.56 284.96 242.912 283.664 242.912H278.48V252.68ZM290.794 250.952V236.24H292.306V251.072C292.306 252.224 292.89 252.824 294.058 252.872V254.192C291.882 254.192 290.794 253.112 290.794 250.952ZM296.581 250.472V245.096C296.581 242.744 297.757 241.568 300.109 241.568H303.469C305.805 241.568 306.973 242.744 306.973 245.096V250.472C306.973 252.824 305.805 254 303.469 254H300.109C297.757 254 296.581 252.824 296.581 250.472ZM298.093 250.712C298.093 252.024 298.749 252.68 300.061 252.68H303.517C304.813 252.68 305.461 252.024 305.461 250.712V244.856C305.461 243.56 304.813 242.912 303.517 242.912H300.061C298.749 242.912 298.093 243.56 298.093 244.856V250.712ZM309.253 241.88L309.445 241.568H310.765L314.605 252.68H315.157L319.021 241.568H320.317L320.509 241.88L314.485 258.8H313.189L312.997 258.512L314.677 254H313.573L309.253 241.88ZM328.526 250.472V245.096C328.526 242.744 329.702 241.568 332.054 241.568H336.83L337.646 242.192V242.912H332.006C330.694 242.912 330.038 243.56 330.038 244.856V250.712C330.038 252.024 330.694 252.68 332.006 252.68H337.646V253.376L336.83 254H332.054C329.702 254 328.526 252.824 328.526 250.472ZM340.526 250.472V245.096C340.526 242.744 341.702 241.568 344.054 241.568H347.414C349.75 241.568 350.918 242.744 350.918 245.096V250.472C350.918 252.824 349.75 254 347.414 254H344.054C341.702 254 340.526 252.824 340.526 250.472ZM342.038 250.712C342.038 252.024 342.694 252.68 344.006 252.68H347.462C348.758 252.68 349.406 252.024 349.406 250.712V244.856C349.406 243.56 348.758 242.912 347.462 242.912H344.006C342.694 242.912 342.038 243.56 342.038 244.856V250.712ZM354.687 254V241.568H361.335C363.671 241.568 364.839 242.744 364.839 245.096V254H363.327V244.856C363.327 243.56 362.679 242.912 361.383 242.912H356.199V254H354.687ZM368.606 250.472V237.44H370.118V241.568H374.822V242.912H370.118V250.712C370.118 252.024 370.774 252.68 372.086 252.68H375.062V253.376L374.246 254H372.134C369.782 254 368.606 252.824 368.606 250.472ZM377.794 254V242.96C378.354 242.032 379.37 241.568 380.842 241.568H383.194L384.01 242.192V242.912H380.914C380.178 242.912 379.642 243.112 379.306 243.512V254H377.794ZM389.254 254C386.886 254 385.702 252.816 385.702 250.448C385.702 248.064 386.886 246.872 389.254 246.872H393.958V244.856C393.958 243.56 393.31 242.912 392.014 242.912H386.854V242.192L387.694 241.568H391.966C394.302 241.568 395.47 242.744 395.47 245.096V254H389.254ZM387.214 250.712C387.214 252.024 387.87 252.68 389.182 252.68H393.958V248.144H389.182C387.87 248.144 387.214 248.792 387.214 250.088V250.712ZM399.143 250.472V245.096C399.143 242.744 400.319 241.568 402.671 241.568H407.447L408.263 242.192V242.912H402.623C401.311 242.912 400.655 243.56 400.655 244.856V250.712C400.655 252.024 401.311 252.68 402.623 252.68H408.263V253.376L407.447 254H402.671C400.319 254 399.143 252.824 399.143 250.472ZM411.239 250.472V237.44H412.751V241.568H417.455V242.912H412.751V250.712C412.751 252.024 413.407 252.68 414.719 252.68H417.695V253.376L416.879 254H414.767C412.415 254 411.239 252.824 411.239 250.472ZM426.288 250.424V241.016C426.288 238.632 427.48 237.44 429.864 237.44H436.728L437.664 238.16V238.904H429.792C428.528 238.904 427.896 239.528 427.896 240.776V250.664C427.896 251.912 428.528 252.536 429.792 252.536H437.664V253.28L436.728 254H429.864C427.48 254 426.288 252.808 426.288 250.424ZM440.843 250.424V241.016C440.843 238.632 442.035 237.44 444.419 237.44H450.059C452.443 237.44 453.635 238.632 453.635 241.016V250.424C453.635 252.808 452.443 254 450.059 254H444.419C442.035 254 440.843 252.808 440.843 250.424ZM442.451 250.664C442.451 251.912 443.083 252.536 444.347 252.536H450.155C451.403 252.536 452.027 251.912 452.027 250.664V240.776C452.027 239.528 451.403 238.904 450.155 238.904H444.347C443.083 238.904 442.451 239.528 442.451 240.776V250.664ZM457.841 254V237.44H468.497V238.904H459.449V245.264H467.777V246.704H459.449V254H457.841ZM471.435 254V237.44H482.091V238.904H473.043V245.264H481.371V246.704H473.043V254H471.435ZM245.48 267.824L245.744 267.44H247.064L252.008 282.536H252.632L257.576 267.44H258.896L259.136 267.824L253.76 284H250.88L245.48 267.824ZM261.905 284V282.536H266.153V268.904H262.817V268.16L263.753 267.44H267.737V282.536H271.601V284H261.905ZM275.588 284V281.672H277.556V284H275.588ZM281.225 280.424V271.016C281.225 268.632 282.417 267.44 284.801 267.44H288.305C290.689 267.44 291.881 268.632 291.881 271.016V280.424C291.881 282.808 290.689 284 288.305 284H284.801C282.417 284 281.225 282.808 281.225 280.424ZM282.833 280.664C282.833 281.912 283.465 282.536 284.729 282.536H288.377C289.641 282.536 290.273 281.912 290.273 280.664V270.776C290.273 269.528 289.641 268.904 288.377 268.904H284.729C283.465 268.904 282.833 269.528 282.833 270.776V280.664ZM299.738 283.616L305.33 267.44H308.066L313.634 283.616L313.394 284H312.074L310.61 279.584H302.762L301.298 284H300.002L299.738 283.616ZM303.29 278.144H310.106L307.01 268.904H306.386L303.29 278.144ZM314.128 271.88L314.32 271.568H315.64L319.48 282.68H320.032L323.896 271.568H325.192L325.384 271.88L321.088 284H318.448L314.128 271.88ZM330.473 284C328.105 284 326.921 282.816 326.921 280.448C326.921 278.064 328.105 276.872 330.473 276.872H335.177V274.856C335.177 273.56 334.529 272.912 333.233 272.912H328.073V272.192L328.913 271.568H333.185C335.521 271.568 336.689 272.744 336.689 275.096V284H330.473ZM328.433 280.712C328.433 282.024 329.089 282.68 330.401 282.68H335.177V278.144H330.401C329.089 278.144 328.433 278.792 328.433 280.088V280.712ZM340.458 280.952V266.24H341.97V281.072C341.97 282.224 342.554 282.824 343.722 282.872V284.192C341.546 284.192 340.458 283.112 340.458 280.952ZM349.317 284C346.949 284 345.765 282.816 345.765 280.448C345.765 278.064 346.949 276.872 349.317 276.872H354.021V274.856C354.021 273.56 353.373 272.912 352.077 272.912H346.917V272.192L347.757 271.568H352.029C354.365 271.568 355.533 272.744 355.533 275.096V284H349.317ZM347.277 280.712C347.277 282.024 347.933 282.68 349.245 282.68H354.021V278.144H349.245C347.933 278.144 347.277 278.792 347.277 280.088V280.712ZM359.398 284V271.568H366.046C368.382 271.568 369.55 272.744 369.55 275.096V284H368.038V274.856C368.038 273.56 367.39 272.912 366.094 272.912H360.91V284H359.398ZM373.221 280.472V275.096C373.221 272.744 374.397 271.568 376.749 271.568H381.525L382.341 272.192V272.912H376.701C375.389 272.912 374.733 273.56 374.733 274.856V280.712C374.733 282.024 375.389 282.68 376.701 282.68H382.341V283.376L381.525 284H376.749C374.397 284 373.221 282.824 373.221 280.472ZM385.413 284V266.24H386.925V271.568H392.061C394.397 271.568 395.565 272.744 395.565 275.096V284H394.053V274.856C394.053 273.56 393.405 272.912 392.109 272.912H386.925V284H385.413ZM399.237 280.472V275.096C399.237 272.744 400.413 271.568 402.765 271.568H405.885C408.221 271.568 409.389 272.744 409.389 275.096V278.384H400.749V280.712C400.749 282.024 401.405 282.68 402.717 282.68H408.909V283.376L408.093 284H402.765C400.413 284 399.237 282.824 399.237 280.472ZM400.749 277.112H407.877V274.856C407.877 273.56 407.229 272.912 405.933 272.912H402.717C401.405 272.912 400.749 273.56 400.749 274.856V277.112ZM419.169 284V267.44H429.825V268.904H420.777V275.264H429.105V276.704H420.777V284H419.169ZM432.619 280.424V267.44H434.227V280.664C434.227 281.912 434.859 282.536 436.123 282.536H441.451C442.699 282.536 443.323 281.912 443.323 280.664V267.44H444.931V280.424C444.931 282.808 443.739 284 441.355 284H436.195C433.811 284 432.619 282.808 432.619 280.424ZM448.496 280.424V278.048H450.104V280.664C450.104 281.912 450.736 282.536 452 282.536H455.888C457.136 282.536 457.76 281.912 457.76 280.664V268.904H452.096V267.44H459.368V280.424C459.368 282.808 458.176 284 455.792 284H452.072C449.688 284 448.496 282.808 448.496 280.424ZM463.653 284V267.44H465.261V284H463.653ZM245.576 298.904V297.44H258.488V298.904H252.824V314H251.24V298.904H245.576ZM259.878 310.472V305.096C259.878 302.744 261.054 301.568 263.406 301.568H266.526C268.862 301.568 270.03 302.744 270.03 305.096V308.384H261.39V310.712C261.39 312.024 262.046 312.68 263.358 312.68H269.55V313.376L268.734 314H263.406C261.054 314 259.878 312.824 259.878 310.472ZM261.39 307.112H268.518V304.856C268.518 303.56 267.87 302.912 266.574 302.912H263.358C262.046 302.912 261.39 303.56 261.39 304.856V307.112ZM273.3 313.376V312.68H278.868C280.148 312.68 280.788 312.04 280.788 310.76C280.788 309.48 280.276 308.76 279.252 308.6L276.324 308.096C274.308 307.76 273.3 306.696 273.3 304.904C273.3 302.68 274.484 301.568 276.852 301.568H280.908L281.724 302.192V302.912H276.756C275.46 302.912 274.812 303.544 274.812 304.808C274.812 305.928 275.348 306.576 276.42 306.752L279.372 307.256C281.324 307.576 282.3 308.712 282.3 310.664C282.3 312.888 281.116 314 278.748 314H274.116L273.3 313.376ZM285.661 310.472V297.44H287.173V301.568H291.877V302.912H287.173V310.712C287.173 312.024 287.829 312.68 289.141 312.68H292.117V313.376L291.301 314H289.189C286.837 314 285.661 312.824 285.661 310.472ZM294.945 314V301.568H301.593C303.929 301.568 305.097 302.744 305.097 305.096V314H303.585V304.856C303.585 303.56 302.937 302.912 301.641 302.912H296.457V314H294.945ZM308.768 310.472V305.096C308.768 302.744 309.944 301.568 312.296 301.568H315.416C317.752 301.568 318.92 302.744 318.92 305.096V308.384H310.28V310.712C310.28 312.024 310.936 312.68 312.248 312.68H318.44V313.376L317.624 314H312.296C309.944 314 308.768 312.824 308.768 310.472ZM310.28 307.112H317.408V304.856C317.408 303.56 316.76 302.912 315.464 302.912H312.248C310.936 302.912 310.28 303.56 310.28 304.856V307.112ZM322.599 310.472V297.44H324.111V301.568H328.815V302.912H324.111V310.712C324.111 312.024 324.767 312.68 326.079 312.68H329.055V313.376L328.239 314H326.127C323.775 314 322.599 312.824 322.599 310.472Z" fill="white"/>
<path d="M489.208 112V95.44H491.44L497.248 107.728L503.032 95.44H505.264V112H503.656V97.576L498.04 109.528H496.432L490.816 97.576V112H489.208ZM507.941 95.824L508.205 95.44H509.525L514.469 110.536H515.093L520.037 95.44H521.357L521.597 95.824L516.221 112H513.341L507.941 95.824ZM524.294 112V95.44H532.07C534.454 95.44 535.646 96.632 535.646 99.016V102.112C535.646 104.48 534.454 105.664 532.07 105.664H525.902V112H524.294ZM525.902 104.224H532.166C533.414 104.224 534.038 103.592 534.038 102.328V98.776C534.038 97.528 533.414 96.904 532.166 96.904H525.902V104.224ZM544.89 112V97.768C544.89 95.416 546.066 94.24 548.418 94.24H550.53L551.346 94.864V95.56H548.37C547.058 95.56 546.402 96.216 546.402 97.528V99.568H551.106V100.912H546.402V112H544.89ZM553.7 97.192V95.224H555.428V97.192H553.7ZM553.796 112V99.568H555.308V112H553.796ZM559.257 112V99.568H565.905C568.241 99.568 569.409 100.744 569.409 103.096V112H567.897V102.856C567.897 101.56 567.249 100.912 565.953 100.912H560.769V112H559.257ZM576.153 112C573.785 112 572.601 110.816 572.601 108.448C572.601 106.064 573.785 104.872 576.153 104.872H580.857V102.856C580.857 101.56 580.209 100.912 578.913 100.912H573.753V100.192L574.593 99.568H578.865C581.201 99.568 582.369 100.744 582.369 103.096V112H576.153ZM574.113 108.712C574.113 110.024 574.769 110.68 576.081 110.68H580.857V106.144H576.081C574.769 106.144 574.113 106.792 574.113 108.088V108.712ZM586.138 108.952V94.24H587.65V109.072C587.65 110.224 588.234 110.824 589.402 110.872V112.192C587.226 112.192 586.138 111.112 586.138 108.952ZM597.69 108.472V103.096C597.69 100.744 598.866 99.568 601.218 99.568H606.33V94.24H607.842V112H601.218C598.866 112 597.69 110.824 597.69 108.472ZM599.202 108.712C599.202 110.024 599.858 110.68 601.17 110.68H606.33V100.912H601.17C599.858 100.912 599.202 101.56 599.202 102.856V108.712ZM611.612 108.472V103.096C611.612 100.744 612.788 99.568 615.14 99.568H618.26C620.596 99.568 621.764 100.744 621.764 103.096V106.384H613.124V108.712C613.124 110.024 613.78 110.68 615.092 110.68H621.284V111.376L620.468 112H615.14C612.788 112 611.612 110.824 611.612 108.472ZM613.124 105.112H620.252V102.856C620.252 101.56 619.604 100.912 618.308 100.912H615.092C613.78 100.912 613.124 101.56 613.124 102.856V105.112ZM625.034 111.376V110.68H630.602C631.882 110.68 632.522 110.04 632.522 108.76C632.522 107.48 632.01 106.76 630.986 106.6L628.058 106.096C626.042 105.76 625.034 104.696 625.034 102.904C625.034 100.68 626.218 99.568 628.586 99.568H632.642L633.458 100.192V100.912H628.49C627.194 100.912 626.546 101.544 626.546 102.808C626.546 103.928 627.082 104.576 628.154 104.752L631.106 105.256C633.058 105.576 634.034 106.712 634.034 108.664C634.034 110.888 632.85 112 630.482 112H625.85L625.034 111.376ZM637.395 97.192V95.224H639.123V97.192H637.395ZM637.491 112V99.568H639.003V112H637.491ZM642.952 112V99.568H649.6C651.936 99.568 653.104 100.744 653.104 103.096V112H651.592V102.856C651.592 101.56 650.944 100.912 649.648 100.912H644.464V112H642.952ZM656.8 108.472V103.096C656.8 100.744 657.976 99.568 660.328 99.568H666.976V113.272C666.976 115.624 665.8 116.8 663.448 116.8H658.552L657.736 116.176V115.48H663.496C664.808 115.48 665.464 114.824 665.464 113.512V112H660.328C657.976 112 656.8 110.824 656.8 108.472ZM658.312 108.712C658.312 110.024 658.968 110.68 660.28 110.68H665.464V100.912H660.28C658.968 100.912 658.312 101.56 658.312 102.856V108.712Z" fill="white"/>
<path d="M973.208 22V5.43999H975.44L981.248 17.728L987.032 5.43999H989.264V22H987.656V7.57599L982.04 19.528H980.432L974.816 7.57599V22H973.208ZM993.669 22V5.43999H1001.44C1003.83 5.43999 1005.02 6.63199 1005.02 9.01599V12.112C1005.02 14.48 1003.83 15.664 1001.44 15.664H995.277V22H993.669ZM995.277 14.224H1001.54C1002.79 14.224 1003.41 13.592 1003.41 12.328V8.77599C1003.41 7.52799 1002.79 6.90399 1001.54 6.90399H995.277V14.224ZM1007.01 5.82399L1007.28 5.43999H1008.6L1013.54 20.536H1014.16L1019.11 5.43999H1020.43L1020.67 5.82399L1015.29 22H1012.41L1007.01 5.82399ZM1028.89 22V7.76799C1028.89 5.41599 1030.07 4.23999 1032.42 4.23999H1034.53L1035.35 4.86399V5.55999H1032.37C1031.06 5.55999 1030.4 6.21599 1030.4 7.52799V9.56799H1035.11V10.912H1030.4V22H1028.89ZM1037.7 7.19199V5.22399H1039.43V7.19199H1037.7ZM1037.8 22V9.56799H1039.31V22H1037.8ZM1043.26 22V9.56799H1049.91C1052.24 9.56799 1053.41 10.744 1053.41 13.096V22H1051.9V12.856C1051.9 11.56 1051.25 10.912 1049.95 10.912H1044.77V22H1043.26ZM1060.15 22C1057.78 22 1056.6 20.816 1056.6 18.448C1056.6 16.064 1057.78 14.872 1060.15 14.872H1064.86V12.856C1064.86 11.56 1064.21 10.912 1062.91 10.912H1057.75V10.192L1058.59 9.56799H1062.86C1065.2 9.56799 1066.37 10.744 1066.37 13.096V22H1060.15ZM1058.11 18.712C1058.11 20.024 1058.77 20.68 1060.08 20.68H1064.86V16.144H1060.08C1058.77 16.144 1058.11 16.792 1058.11 18.088V18.712ZM1070.14 18.952V4.23999H1071.65V19.072C1071.65 20.224 1072.23 20.824 1073.4 20.872V22.192C1071.23 22.192 1070.14 21.112 1070.14 18.952ZM1076.02 7.19199V5.22399H1077.75V7.19199H1076.02ZM1076.12 22V9.56799H1077.63V22H1076.12ZM1080.86 22V20.8L1088.39 10.912H1081.1V9.56799H1090.29V10.768L1082.75 20.68H1090.53V22H1080.86ZM1096.64 22C1094.28 22 1093.09 20.816 1093.09 18.448C1093.09 16.064 1094.28 14.872 1096.64 14.872H1101.35V12.856C1101.35 11.56 1100.7 10.912 1099.4 10.912H1094.24V10.192L1095.08 9.56799H1099.36C1101.69 9.56799 1102.86 10.744 1102.86 13.096V22H1096.64ZM1094.6 18.712C1094.6 20.024 1095.26 20.68 1096.57 20.68H1101.35V16.144H1096.57C1095.26 16.144 1094.6 16.792 1094.6 18.088V18.712ZM1106.63 18.472V5.43999H1108.14V9.56799H1112.85V10.912H1108.14V18.712C1108.14 20.024 1108.8 20.68 1110.11 20.68H1113.09V21.376L1112.27 22H1110.16C1107.81 22 1106.63 20.824 1106.63 18.472ZM1115.82 7.19199V5.22399H1117.55V7.19199H1115.82ZM1115.91 22V9.56799H1117.43V22H1115.91ZM1121.18 18.472V13.096C1121.18 10.744 1122.36 9.56799 1124.71 9.56799H1128.07C1130.41 9.56799 1131.57 10.744 1131.57 13.096V18.472C1131.57 20.824 1130.41 22 1128.07 22H1124.71C1122.36 22 1121.18 20.824 1121.18 18.472ZM1122.69 18.712C1122.69 20.024 1123.35 20.68 1124.66 20.68H1128.12C1129.41 20.68 1130.06 20.024 1130.06 18.712V12.856C1130.06 11.56 1129.41 10.912 1128.12 10.912H1124.66C1123.35 10.912 1122.69 11.56 1122.69 12.856V18.712ZM1135.34 22V9.56799H1141.99C1144.33 9.56799 1145.49 10.744 1145.49 13.096V22H1143.98V12.856C1143.98 11.56 1143.34 10.912 1142.04 10.912H1136.86V22H1135.34ZM973.208 52V35.44H979.76C983.6 35.44 985.52 37.368 985.52 41.224V46.216C985.52 50.072 983.6 52 979.76 52H973.208ZM974.816 50.536H979.856C982.56 50.536 983.912 49.184 983.912 46.48V40.96C983.912 38.256 982.56 36.904 979.856 36.904H974.816V50.536ZM989.042 48.472V43.096C989.042 40.744 990.218 39.568 992.57 39.568H995.69C998.026 39.568 999.194 40.744 999.194 43.096V46.384H990.554V48.712C990.554 50.024 991.21 50.68 992.522 50.68H998.714V51.376L997.898 52H992.57C990.218 52 989.042 50.824 989.042 48.472ZM990.554 45.112H997.682V42.856C997.682 41.56 997.034 40.912 995.738 40.912H992.522C991.21 40.912 990.554 41.56 990.554 42.856V45.112ZM1002.97 56.8V39.568H1009.62C1011.95 39.568 1013.12 40.744 1013.12 43.096V48.472C1013.12 50.824 1011.95 52 1009.62 52H1004.48V56.8H1002.97ZM1004.48 50.68H1009.66C1010.96 50.68 1011.61 50.024 1011.61 48.712V42.856C1011.61 41.56 1010.96 40.912 1009.66 40.912H1004.48V50.68ZM1016.79 48.952V34.24H1018.31V49.072C1018.31 50.224 1018.89 50.824 1020.06 50.872V52.192C1017.88 52.192 1016.79 51.112 1016.79 48.952ZM1022.58 48.472V43.096C1022.58 40.744 1023.76 39.568 1026.11 39.568H1029.47C1031.8 39.568 1032.97 40.744 1032.97 43.096V48.472C1032.97 50.824 1031.8 52 1029.47 52H1026.11C1023.76 52 1022.58 50.824 1022.58 48.472ZM1024.09 48.712C1024.09 50.024 1024.75 50.68 1026.06 50.68H1029.52C1030.81 50.68 1031.46 50.024 1031.46 48.712V42.856C1031.46 41.56 1030.81 40.912 1029.52 40.912H1026.06C1024.75 40.912 1024.09 41.56 1024.09 42.856V48.712ZM1035.25 39.88L1035.45 39.568H1036.77L1040.61 50.68H1041.16L1045.02 39.568H1046.32L1046.51 39.88L1040.49 56.8H1039.19L1039 56.512L1040.68 52H1039.57L1035.25 39.88ZM1054.53 48.472V43.096C1054.53 40.744 1055.7 39.568 1058.05 39.568H1062.83L1063.65 40.192V40.912H1058.01C1056.69 40.912 1056.04 41.56 1056.04 42.856V48.712C1056.04 50.024 1056.69 50.68 1058.01 50.68H1063.65V51.376L1062.83 52H1058.05C1055.7 52 1054.53 50.824 1054.53 48.472ZM1066.53 48.472V43.096C1066.53 40.744 1067.7 39.568 1070.05 39.568H1073.41C1075.75 39.568 1076.92 40.744 1076.92 43.096V48.472C1076.92 50.824 1075.75 52 1073.41 52H1070.05C1067.7 52 1066.53 50.824 1066.53 48.472ZM1068.04 48.712C1068.04 50.024 1068.69 50.68 1070.01 50.68H1073.46C1074.76 50.68 1075.41 50.024 1075.41 48.712V42.856C1075.41 41.56 1074.76 40.912 1073.46 40.912H1070.01C1068.69 40.912 1068.04 41.56 1068.04 42.856V48.712ZM1080.69 52V39.568H1087.33C1089.67 39.568 1090.84 40.744 1090.84 43.096V52H1089.33V42.856C1089.33 41.56 1088.68 40.912 1087.38 40.912H1082.2V52H1080.69ZM1094.61 48.472V35.44H1096.12V39.568H1100.82V40.912H1096.12V48.712C1096.12 50.024 1096.77 50.68 1098.09 50.68H1101.06V51.376L1100.25 52H1098.13C1095.78 52 1094.61 50.824 1094.61 48.472ZM1103.79 52V40.96C1104.35 40.032 1105.37 39.568 1106.84 39.568H1109.19L1110.01 40.192V40.912H1106.91C1106.18 40.912 1105.64 41.112 1105.31 41.512V52H1103.79ZM1115.25 52C1112.89 52 1111.7 50.816 1111.7 48.448C1111.7 46.064 1112.89 44.872 1115.25 44.872H1119.96V42.856C1119.96 41.56 1119.31 40.912 1118.01 40.912H1112.85V40.192L1113.69 39.568H1117.97C1120.3 39.568 1121.47 40.744 1121.47 43.096V52H1115.25ZM1113.21 48.712C1113.21 50.024 1113.87 50.68 1115.18 50.68H1119.96V46.144H1115.18C1113.87 46.144 1113.21 46.792 1113.21 48.088V48.712ZM1125.14 48.472V43.096C1125.14 40.744 1126.32 39.568 1128.67 39.568H1133.45L1134.26 40.192V40.912H1128.62C1127.31 40.912 1126.66 41.56 1126.66 42.856V48.712C1126.66 50.024 1127.31 50.68 1128.62 50.68H1134.26V51.376L1133.45 52H1128.67C1126.32 52 1125.14 50.824 1125.14 48.472ZM1137.24 48.472V35.44H1138.75V39.568H1143.46V40.912H1138.75V48.712C1138.75 50.024 1139.41 50.68 1140.72 50.68H1143.7V51.376L1142.88 52H1140.77C1138.42 52 1137.24 50.824 1137.24 48.472ZM1152.29 48.424V39.016C1152.29 36.632 1153.48 35.44 1155.86 35.44H1162.73L1163.66 36.16V36.904H1155.79C1154.53 36.904 1153.9 37.528 1153.9 38.776V48.664C1153.9 49.912 1154.53 50.536 1155.79 50.536H1163.66V51.28L1162.73 52H1155.86C1153.48 52 1152.29 50.808 1152.29 48.424ZM1166.84 48.424V39.016C1166.84 36.632 1168.04 35.44 1170.42 35.44H1176.06C1178.44 35.44 1179.64 36.632 1179.64 39.016V48.424C1179.64 50.808 1178.44 52 1176.06 52H1170.42C1168.04 52 1166.84 50.808 1166.84 48.424ZM1168.45 48.664C1168.45 49.912 1169.08 50.536 1170.35 50.536H1176.16C1177.4 50.536 1178.03 49.912 1178.03 48.664V38.776C1178.03 37.528 1177.4 36.904 1176.16 36.904H1170.35C1169.08 36.904 1168.45 37.528 1168.45 38.776V48.664ZM1183.84 52V35.44H1194.5V36.904H1185.45V43.264H1193.78V44.704H1185.45V52H1183.84ZM1197.43 52V35.44H1208.09V36.904H1199.04V43.264H1207.37V44.704H1199.04V52H1197.43ZM971.48 65.824L971.744 65.44H973.064L978.008 80.536H978.632L983.576 65.44H984.896L985.136 65.824L979.76 82H976.88L971.48 65.824ZM987.233 82V77.056C987.233 75.104 988.089 73.952 989.801 73.6L994.865 72.592C995.809 72.4 996.281 71.784 996.281 70.744V68.776C996.281 67.528 995.649 66.904 994.385 66.904H987.713V66.16L988.649 65.44H994.313C996.697 65.44 997.889 66.632 997.889 69.016V70.576C997.889 72.528 997.033 73.68 995.321 74.032L990.257 75.04C989.313 75.232 988.841 75.848 988.841 76.888V80.536H997.889V82H987.233ZM1001.59 82V79.672H1003.56V82H1001.59ZM1007.23 78.424V69.016C1007.23 66.632 1008.42 65.44 1010.8 65.44H1014.31C1016.69 65.44 1017.88 66.632 1017.88 69.016V78.424C1017.88 80.808 1016.69 82 1014.31 82H1010.8C1008.42 82 1007.23 80.808 1007.23 78.424ZM1008.83 78.664C1008.83 79.912 1009.47 80.536 1010.73 80.536H1014.38C1015.64 80.536 1016.27 79.912 1016.27 78.664V68.776C1016.27 67.528 1015.64 66.904 1014.38 66.904H1010.73C1009.47 66.904 1008.83 67.528 1008.83 68.776V78.664ZM1025.74 81.616L1031.33 65.44H1034.07L1039.63 81.616L1039.39 82H1038.07L1036.61 77.584H1028.76L1027.3 82H1026L1025.74 81.616ZM1029.29 76.144H1036.11L1033.01 66.904H1032.39L1029.29 76.144ZM1040.13 69.88L1040.32 69.568H1041.64L1045.48 80.68H1046.03L1049.9 69.568H1051.19L1051.38 69.88L1047.09 82H1044.45L1040.13 69.88ZM1056.47 82C1054.11 82 1052.92 80.816 1052.92 78.448C1052.92 76.064 1054.11 74.872 1056.47 74.872H1061.18V72.856C1061.18 71.56 1060.53 70.912 1059.23 70.912H1054.07V70.192L1054.91 69.568H1059.19C1061.52 69.568 1062.69 70.744 1062.69 73.096V82H1056.47ZM1054.43 78.712C1054.43 80.024 1055.09 80.68 1056.4 80.68H1061.18V76.144H1056.4C1055.09 76.144 1054.43 76.792 1054.43 78.088V78.712ZM1066.46 78.952V64.24H1067.97V79.072C1067.97 80.224 1068.55 80.824 1069.72 80.872V82.192C1067.55 82.192 1066.46 81.112 1066.46 78.952ZM1075.32 82C1072.95 82 1071.76 80.816 1071.76 78.448C1071.76 76.064 1072.95 74.872 1075.32 74.872H1080.02V72.856C1080.02 71.56 1079.37 70.912 1078.08 70.912H1072.92V70.192L1073.76 69.568H1078.03C1080.36 69.568 1081.53 70.744 1081.53 73.096V82H1075.32ZM1073.28 78.712C1073.28 80.024 1073.93 80.68 1075.24 80.68H1080.02V76.144H1075.24C1073.93 76.144 1073.28 76.792 1073.28 78.088V78.712ZM1085.4 82V69.568H1092.05C1094.38 69.568 1095.55 70.744 1095.55 73.096V82H1094.04V72.856C1094.04 71.56 1093.39 70.912 1092.09 70.912H1086.91V82H1085.4ZM1099.22 78.472V73.096C1099.22 70.744 1100.4 69.568 1102.75 69.568H1107.53L1108.34 70.192V70.912H1102.7C1101.39 70.912 1100.73 71.56 1100.73 72.856V78.712C1100.73 80.024 1101.39 80.68 1102.7 80.68H1108.34V81.376L1107.53 82H1102.75C1100.4 82 1099.22 80.824 1099.22 78.472ZM1111.41 82V64.24H1112.93V69.568H1118.06C1120.4 69.568 1121.57 70.744 1121.57 73.096V82H1120.05V72.856C1120.05 71.56 1119.41 70.912 1118.11 70.912H1112.93V82H1111.41ZM1125.24 78.472V73.096C1125.24 70.744 1126.41 69.568 1128.76 69.568H1131.88C1134.22 69.568 1135.39 70.744 1135.39 73.096V76.384H1126.75V78.712C1126.75 80.024 1127.4 80.68 1128.72 80.68H1134.91V81.376L1134.09 82H1128.76C1126.41 82 1125.24 80.824 1125.24 78.472ZM1126.75 75.112H1133.88V72.856C1133.88 71.56 1133.23 70.912 1131.93 70.912H1128.72C1127.4 70.912 1126.75 71.56 1126.75 72.856V75.112ZM1145.17 82V65.44H1155.82V66.904H1146.78V73.264H1155.1V74.704H1146.78V82H1145.17ZM1158.62 78.424V65.44H1160.23V78.664C1160.23 79.912 1160.86 80.536 1162.12 80.536H1167.45C1168.7 80.536 1169.32 79.912 1169.32 78.664V65.44H1170.93V78.424C1170.93 80.808 1169.74 82 1167.35 82H1162.19C1159.81 82 1158.62 80.808 1158.62 78.424ZM1174.5 78.424V76.048H1176.1V78.664C1176.1 79.912 1176.74 80.536 1178 80.536H1181.89C1183.14 80.536 1183.76 79.912 1183.76 78.664V66.904H1178.1V65.44H1185.37V78.424C1185.37 80.808 1184.18 82 1181.79 82H1178.07C1175.69 82 1174.5 80.808 1174.5 78.424ZM1189.65 82V65.44H1191.26V82H1189.65ZM971.576 96.904V95.44H984.488V96.904H978.824V112H977.24V96.904H971.576ZM985.878 108.472V103.096C985.878 100.744 987.054 99.568 989.406 99.568H992.526C994.862 99.568 996.03 100.744 996.03 103.096V106.384H987.39V108.712C987.39 110.024 988.046 110.68 989.358 110.68H995.55V111.376L994.734 112H989.406C987.054 112 985.878 110.824 985.878 108.472ZM987.39 105.112H994.518V102.856C994.518 101.56 993.87 100.912 992.574 100.912H989.358C988.046 100.912 987.39 101.56 987.39 102.856V105.112ZM999.3 111.376V110.68H1004.87C1006.15 110.68 1006.79 110.04 1006.79 108.76C1006.79 107.48 1006.28 106.76 1005.25 106.6L1002.32 106.096C1000.31 105.76 999.3 104.696 999.3 102.904C999.3 100.68 1000.48 99.568 1002.85 99.568H1006.91L1007.72 100.192V100.912H1002.76C1001.46 100.912 1000.81 101.544 1000.81 102.808C1000.81 103.928 1001.35 104.576 1002.42 104.752L1005.37 105.256C1007.32 105.576 1008.3 106.712 1008.3 108.664C1008.3 110.888 1007.12 112 1004.75 112H1000.12L999.3 111.376ZM1011.66 108.472V95.44H1013.17V99.568H1017.88V100.912H1013.17V108.712C1013.17 110.024 1013.83 110.68 1015.14 110.68H1018.12V111.376L1017.3 112H1015.19C1012.84 112 1011.66 110.824 1011.66 108.472ZM1020.94 112V99.568H1027.59C1029.93 99.568 1031.1 100.744 1031.1 103.096V112H1029.58V102.856C1029.58 101.56 1028.94 100.912 1027.64 100.912H1022.46V112H1020.94ZM1034.77 108.472V103.096C1034.77 100.744 1035.94 99.568 1038.3 99.568H1041.42C1043.75 99.568 1044.92 100.744 1044.92 103.096V106.384H1036.28V108.712C1036.28 110.024 1036.94 110.68 1038.25 110.68H1044.44V111.376L1043.62 112H1038.3C1035.94 112 1034.77 110.824 1034.77 108.472ZM1036.28 105.112H1043.41V102.856C1043.41 101.56 1042.76 100.912 1041.46 100.912H1038.25C1036.94 100.912 1036.28 101.56 1036.28 102.856V105.112ZM1048.6 108.472V95.44H1050.11V99.568H1054.81V100.912H1050.11V108.712C1050.11 110.024 1050.77 110.68 1052.08 110.68H1055.05V111.376L1054.24 112H1052.13C1049.77 112 1048.6 110.824 1048.6 108.472Z" fill="white"/>
<path d="M1215.04 287V270.44H1217.97V277.088H1224.95V270.44H1227.88V287H1224.95V279.752H1217.97V287H1215.04ZM1234.84 287C1232.31 287 1231.05 285.752 1231.05 283.256C1231.05 280.76 1232.31 279.512 1234.84 279.512H1238.54V277.952C1238.54 277.216 1238.17 276.848 1237.43 276.848H1232.35V275.336L1233.59 274.4H1237.58C1240.09 274.4 1241.35 275.664 1241.35 278.192V287H1234.84ZM1233.86 283.448C1233.86 284.184 1234.23 284.552 1234.96 284.552H1238.54V281.696H1234.96C1234.23 281.696 1233.86 282.056 1233.86 282.776V283.448ZM1244.65 283.208V278.192C1244.65 275.664 1245.92 274.4 1248.45 274.4H1252.98L1254.25 275.336V276.848H1248.57C1247.83 276.848 1247.46 277.216 1247.46 277.952V283.448C1247.46 284.184 1247.83 284.552 1248.57 284.552H1254.25V286.064L1252.98 287H1248.45C1245.92 287 1244.65 285.736 1244.65 283.208ZM1257.15 287V269.24H1259.96V279.752L1264.86 274.4H1267.62L1267.86 274.88L1263.44 279.656L1268.19 286.52L1267.95 287H1265.19L1261.59 281.672L1259.96 283.424V287H1257.15ZM1273.72 287C1271.2 287 1269.93 285.752 1269.93 283.256C1269.93 280.76 1271.2 279.512 1273.72 279.512H1277.42V277.952C1277.42 277.216 1277.05 276.848 1276.32 276.848H1271.23V275.336L1272.48 274.4H1276.46C1278.97 274.4 1280.23 275.664 1280.23 278.192V287H1273.72ZM1272.74 283.448C1272.74 284.184 1273.11 284.552 1273.84 284.552H1277.42V281.696H1273.84C1273.11 281.696 1272.74 282.056 1272.74 282.776V283.448ZM1283.63 283.208V270.44H1286.44V274.4H1290.74V276.848H1286.44V283.448C1286.44 284.184 1286.81 284.552 1287.55 284.552H1290.98V286.064L1289.71 287H1287.43C1284.9 287 1283.63 285.736 1283.63 283.208ZM1293.64 287V269.24H1296.45V274.4H1300.56C1303.07 274.4 1304.32 275.664 1304.32 278.192V287H1301.52V277.952C1301.52 277.216 1301.15 276.848 1300.41 276.848H1296.45V287H1293.64ZM1307.63 283.208V278.192C1307.63 275.664 1308.9 274.4 1311.42 274.4H1314.78C1317.3 274.4 1318.55 275.664 1318.55 278.192V283.208C1318.55 285.736 1317.3 287 1314.78 287H1311.42C1308.9 287 1307.63 285.736 1307.63 283.208ZM1310.44 283.448C1310.44 284.184 1310.81 284.552 1311.54 284.552H1314.64C1315.38 284.552 1315.74 284.184 1315.74 283.448V277.952C1315.74 277.216 1315.38 276.848 1314.64 276.848H1311.54C1310.81 276.848 1310.44 277.216 1310.44 277.952V283.448ZM1321.96 287V274.4H1328.87C1331.38 274.4 1332.64 275.664 1332.64 278.192V287H1329.83V277.952C1329.83 277.216 1329.46 276.848 1328.72 276.848H1324.76V287H1321.96ZM1214.34 316.064V314.552H1219.89C1220.62 314.552 1220.99 314.16 1220.99 313.376C1220.99 312.56 1220.69 312.096 1220.08 311.984L1217.39 311.552C1215.36 311.2 1214.34 310.048 1214.34 308.096C1214.34 305.632 1215.61 304.4 1218.14 304.4H1221.95L1223.22 305.336V306.848H1218.26C1217.5 306.848 1217.13 307.24 1217.13 308.024C1217.13 308.808 1217.45 309.256 1218.09 309.368L1220.78 309.8C1222.79 310.136 1223.8 311.296 1223.8 313.28C1223.8 315.76 1222.53 317 1219.98 317H1215.62L1214.34 316.064ZM1226.82 313.208V304.4H1229.63V313.448C1229.63 314.184 1230 314.552 1230.73 314.552H1234.69V304.4H1237.5V317H1230.61C1228.09 317 1226.82 315.736 1226.82 313.208ZM1241.1 317V299.24H1243.9V304.4H1248.01C1250.52 304.4 1251.78 305.664 1251.78 308.192V313.208C1251.78 315.736 1250.52 317 1248.01 317H1241.1ZM1243.9 314.552H1247.86C1248.6 314.552 1248.97 314.184 1248.97 313.448V307.952C1248.97 307.216 1248.6 306.848 1247.86 306.848H1243.9V314.552ZM1255.18 317V304.4H1269.53C1272.05 304.4 1273.3 305.664 1273.3 308.192V317H1270.49V307.952C1270.49 307.216 1270.13 306.848 1269.39 306.848H1265.65V317H1262.84V306.848H1257.99V317H1255.18ZM1276.74 302.216V299.36H1279.7V302.216H1276.74ZM1276.82 317V304.4H1279.62V317H1276.82ZM1283.12 313.208V300.44H1285.93V304.4H1290.22V306.848H1285.93V313.448C1285.93 314.184 1286.29 314.552 1287.03 314.552H1290.46V316.064L1289.19 317H1286.91C1284.38 317 1283.12 315.736 1283.12 313.208ZM1293.06 302.216V299.36H1296.01V302.216H1293.06ZM1293.13 317V304.4H1295.94V317H1293.13ZM1299.33 313.208V308.192C1299.33 305.664 1300.6 304.4 1303.13 304.4H1306.49C1309 304.4 1310.25 305.664 1310.25 308.192V313.208C1310.25 315.736 1309 317 1306.49 317H1303.13C1300.6 317 1299.33 315.736 1299.33 313.208ZM1302.14 313.448C1302.14 314.184 1302.51 314.552 1303.25 314.552H1306.34C1307.08 314.552 1307.45 314.184 1307.45 313.448V307.952C1307.45 307.216 1307.08 306.848 1306.34 306.848H1303.25C1302.51 306.848 1302.14 307.216 1302.14 307.952V313.448ZM1313.66 317V304.4H1320.57C1323.08 304.4 1324.34 305.664 1324.34 308.192V317H1321.53V307.952C1321.53 307.216 1321.16 306.848 1320.43 306.848H1316.47V317H1313.66Z" fill="#EB5D47"/>
</svg>
