<svg width="530" height="665" viewBox="0 0 530 665" fill="none" xmlns="http://www.w3.org/2000/svg">
<path d="M182.887 18.0001L180 15.1133L177.113 18.0001L180 20.8869L182.887 18.0001ZM0 18.5001H1V17.5001H0V18.5001ZM3 18.5001H5V17.5001H3V18.5001ZM7 18.5001H9V17.5001H7V18.5001ZM11 18.5001H13V17.5001H11V18.5001ZM15 18.5001H17V17.5001H15V18.5001ZM19 18.5001H21V17.5001H19V18.5001ZM23 18.5001H25V17.5001H23V18.5001ZM27 18.5001H29V17.5001H27V18.5001ZM31 18.5001H33V17.5001H31V18.5001ZM35 18.5001H37V17.5001H35V18.5001ZM39 18.5001H41V17.5001H39V18.5001ZM43 18.5001H45V17.5001H43V18.5001ZM47 18.5001H49V17.5001H47V18.5001ZM51 18.5001H53V17.5001H51V18.5001ZM55 18.5001H57V17.5001H55V18.5001ZM59 18.5001H61V17.5001H59V18.5001ZM63 18.5001H65V17.5001H63V18.5001ZM67 18.5001H69V17.5001H67V18.5001ZM71 18.5001H73V17.5001H71V18.5001ZM75 18.5001H77V17.5001H75V18.5001ZM79 18.5001H81V17.5001H79V18.5001ZM83 18.5001H85V17.5001H83V18.5001ZM87 18.5001H89V17.5001H87V18.5001ZM91 18.5001H93V17.5001H91V18.5001ZM95 18.5001H97V17.5001H95V18.5001ZM99 18.5001H101V17.5001H99V18.5001ZM103 18.5001H105V17.5001H103V18.5001ZM107 18.5001H109V17.5001H107V18.5001ZM111 18.5001H113V17.5001H111V18.5001ZM115 18.5001H117V17.5001H115V18.5001ZM119 18.5001H121V17.5001H119V18.5001ZM123 18.5001H125V17.5001H123V18.5001ZM127 18.5001H129V17.5001H127V18.5001ZM131 18.5001H133V17.5001H131V18.5001ZM135 18.5001H137V17.5001H135V18.5001ZM139 18.5001H141V17.5001H139V18.5001ZM143 18.5001H145V17.5001H143V18.5001ZM147 18.5001H149V17.5001H147V18.5001ZM151 18.5001H153V17.5001H151V18.5001ZM155 18.5001H157V17.5001H155V18.5001ZM159 18.5001H161V17.5001H159V18.5001ZM163 18.5001H165V17.5001H163V18.5001ZM167 18.5001H169V17.5001H167V18.5001ZM171 18.5001H173V17.5001H171V18.5001ZM175 18.5001H177V17.5001H175V18.5001ZM179 18.5001H180V17.5001H179V18.5001Z" fill="white"/>
<path d="M182.887 228L180 225.113L177.113 228L180 230.887L182.887 228ZM0 228.5H1V227.5H0V228.5ZM3 228.5H5V227.5H3V228.5ZM7 228.5H9V227.5H7V228.5ZM11 228.5H13V227.5H11V228.5ZM15 228.5H17V227.5H15V228.5ZM19 228.5H21V227.5H19V228.5ZM23 228.5H25V227.5H23V228.5ZM27 228.5H29V227.5H27V228.5ZM31 228.5H33V227.5H31V228.5ZM35 228.5H37V227.5H35V228.5ZM39 228.5H41V227.5H39V228.5ZM43 228.5H45V227.5H43V228.5ZM47 228.5H49V227.5H47V228.5ZM51 228.5H53V227.5H51V228.5ZM55 228.5H57V227.5H55V228.5ZM59 228.5H61V227.5H59V228.5ZM63 228.5H65V227.5H63V228.5ZM67 228.5H69V227.5H67V228.5ZM71 228.5H73V227.5H71V228.5ZM75 228.5H77V227.5H75V228.5ZM79 228.5H81V227.5H79V228.5ZM83 228.5H85V227.5H83V228.5ZM87 228.5H89V227.5H87V228.5ZM91 228.5H93V227.5H91V228.5ZM95 228.5H97V227.5H95V228.5ZM99 228.5H101V227.5H99V228.5ZM103 228.5H105V227.5H103V228.5ZM107 228.5H109V227.5H107V228.5ZM111 228.5H113V227.5H111V228.5ZM115 228.5H117V227.5H115V228.5ZM119 228.5H121V227.5H119V228.5ZM123 228.5H125V227.5H123V228.5ZM127 228.5H129V227.5H127V228.5ZM131 228.5H133V227.5H131V228.5ZM135 228.5H137V227.5H135V228.5ZM139 228.5H141V227.5H139V228.5ZM143 228.5H145V227.5H143V228.5ZM147 228.5H149V227.5H147V228.5ZM151 228.5H153V227.5H151V228.5ZM155 228.5H157V227.5H155V228.5ZM159 228.5H161V227.5H159V228.5ZM163 228.5H165V227.5H163V228.5ZM167 228.5H169V227.5H167V228.5ZM171 228.5H173V227.5H171V228.5ZM175 228.5H177V227.5H175V228.5ZM179 228.5H180V227.5H179V228.5Z" fill="white"/>
<path d="M185.887 378L183 375.113L180.113 378L183 380.887L185.887 378ZM3 378.5H4V377.5H3V378.5ZM6 378.5H8V377.5H6V378.5ZM10 378.5H12V377.5H10V378.5ZM14 378.5H16V377.5H14V378.5ZM18 378.5H20V377.5H18V378.5ZM22 378.5H24V377.5H22V378.5ZM26 378.5H28V377.5H26V378.5ZM30 378.5H32V377.5H30V378.5ZM34 378.5H36V377.5H34V378.5ZM38 378.5H40V377.5H38V378.5ZM42 378.5H44V377.5H42V378.5ZM46 378.5H48V377.5H46V378.5ZM50 378.5H52V377.5H50V378.5ZM54 378.5H56V377.5H54V378.5ZM58 378.5H60V377.5H58V378.5ZM62 378.5H64V377.5H62V378.5ZM66 378.5H68V377.5H66V378.5ZM70 378.5H72V377.5H70V378.5ZM74 378.5H76V377.5H74V378.5ZM78 378.5H80V377.5H78V378.5ZM82 378.5H84V377.5H82V378.5ZM86 378.5H88V377.5H86V378.5ZM90 378.5H92V377.5H90V378.5ZM94 378.5H96V377.5H94V378.5ZM98 378.5H100V377.5H98V378.5ZM102 378.5H104V377.5H102V378.5ZM106 378.5H108V377.5H106V378.5ZM110 378.5H112V377.5H110V378.5ZM114 378.5H116V377.5H114V378.5ZM118 378.5H120V377.5H118V378.5ZM122 378.5H124V377.5H122V378.5ZM126 378.5H128V377.5H126V378.5ZM130 378.5H132V377.5H130V378.5ZM134 378.5H136V377.5H134V378.5ZM138 378.5H140V377.5H138V378.5ZM142 378.5H144V377.5H142V378.5ZM146 378.5H148V377.5H146V378.5ZM150 378.5H152V377.5H150V378.5ZM154 378.5H156V377.5H154V378.5ZM158 378.5H160V377.5H158V378.5ZM162 378.5H164V377.5H162V378.5ZM166 378.5H168V377.5H166V378.5ZM170 378.5H172V377.5H170V378.5ZM174 378.5H176V377.5H174V378.5ZM178 378.5H180V377.5H178V378.5ZM182 378.5H183V377.5H182V378.5Z" fill="white"/>
<path d="M185.887 558L183 555.113L180.113 558L183 560.887L185.887 558ZM3 558.5H4V557.5H3V558.5ZM6 558.5H8V557.5H6V558.5ZM10 558.5H12V557.5H10V558.5ZM14 558.5H16V557.5H14V558.5ZM18 558.5H20V557.5H18V558.5ZM22 558.5H24V557.5H22V558.5ZM26 558.5H28V557.5H26V558.5ZM30 558.5H32V557.5H30V558.5ZM34 558.5H36V557.5H34V558.5ZM38 558.5H40V557.5H38V558.5ZM42 558.5H44V557.5H42V558.5ZM46 558.5H48V557.5H46V558.5ZM50 558.5H52V557.5H50V558.5ZM54 558.5H56V557.5H54V558.5ZM58 558.5H60V557.5H58V558.5ZM62 558.5H64V557.5H62V558.5ZM66 558.5H68V557.5H66V558.5ZM70 558.5H72V557.5H70V558.5ZM74 558.5H76V557.5H74V558.5ZM78 558.5H80V557.5H78V558.5ZM82 558.5H84V557.5H82V558.5ZM86 558.5H88V557.5H86V558.5ZM90 558.5H92V557.5H90V558.5ZM94 558.5H96V557.5H94V558.5ZM98 558.5H100V557.5H98V558.5ZM102 558.5H104V557.5H102V558.5ZM106 558.5H108V557.5H106V558.5ZM110 558.5H112V557.5H110V558.5ZM114 558.5H116V557.5H114V558.5ZM118 558.5H120V557.5H118V558.5ZM122 558.5H124V557.5H122V558.5ZM126 558.5H128V557.5H126V558.5ZM130 558.5H132V557.5H130V558.5ZM134 558.5H136V557.5H134V558.5ZM138 558.5H140V557.5H138V558.5ZM142 558.5H144V557.5H142V558.5ZM146 558.5H148V557.5H146V558.5ZM150 558.5H152V557.5H150V558.5ZM154 558.5H156V557.5H154V558.5ZM158 558.5H160V557.5H158V558.5ZM162 558.5H164V557.5H162V558.5ZM166 558.5H168V557.5H166V558.5ZM170 558.5H172V557.5H170V558.5ZM174 558.5H176V557.5H174V558.5ZM178 558.5H180V557.5H178V558.5ZM182 558.5H183V557.5H182V558.5Z" fill="white"/>
<path d="M192.208 57.0001V40.4401H202.864V41.9041H193.816V48.2641H202.144V49.7041H193.816V57.0001H192.208ZM205.802 57.0001V40.4401H207.41V57.0001H205.802ZM210.121 56.6161L215.713 40.4401H218.449L224.017 56.6161L223.777 57.0001H222.457L220.993 52.5841H213.145L211.681 57.0001H210.385L210.121 56.6161ZM213.673 51.1441H220.489L217.393 41.9041H216.769L213.673 51.1441ZM223.881 41.9041V40.4401H236.793V41.9041H231.129V57.0001H229.545V41.9041H223.881ZM245.005 57.0001V45.9601C245.565 45.0321 246.581 44.5681 248.053 44.5681H250.405L251.221 45.1921V45.9121H248.125C247.389 45.9121 246.853 46.1121 246.517 46.5121V57.0001H245.005ZM256.465 57.0001C254.097 57.0001 252.913 55.8161 252.913 53.4481C252.913 51.0641 254.097 49.8721 256.465 49.8721H261.169V47.8561C261.169 46.5601 260.521 45.9121 259.225 45.9121H254.065V45.1921L254.905 44.5681H259.177C261.513 44.5681 262.681 45.7441 262.681 48.0961V57.0001H256.465ZM254.425 53.7121C254.425 55.0241 255.081 55.6801 256.393 55.6801H261.169V51.1441H256.393C255.081 51.1441 254.425 51.7921 254.425 53.0881V53.7121ZM266.546 57.0001V44.5681H280.634C282.97 44.5681 284.138 45.7441 284.138 48.0961V57.0001H282.626V47.8561C282.626 46.5601 281.978 45.9121 280.682 45.9121H276.098V57.0001H274.586V45.9121H268.058V57.0001H266.546ZM287.991 61.8001V44.5681H294.639C296.975 44.5681 298.143 45.7441 298.143 48.0961V53.4721C298.143 55.8241 296.975 57.0001 294.639 57.0001H289.503V61.8001H287.991ZM289.503 55.6801H294.687C295.983 55.6801 296.631 55.0241 296.631 53.7121V47.8561C296.631 46.5601 295.983 45.9121 294.687 45.9121H289.503V55.6801ZM307.583 42.1921V40.2241H309.311V42.1921H307.583ZM307.679 57.0001V44.5681H309.191V57.0001H307.679ZM313.14 57.0001V44.5681H319.788C322.124 44.5681 323.292 45.7441 323.292 48.0961V57.0001H321.78V47.8561C321.78 46.5601 321.132 45.9121 319.836 45.9121H314.652V57.0001H313.14ZM332.681 53.4721V50.8081C332.681 49.9761 332.945 49.3361 333.473 48.8881L334.481 48.0481L333.641 47.0401C333.321 46.6561 333.161 46.1921 333.161 45.6481V43.9681C333.161 41.6161 334.337 40.4401 336.689 40.4401H341.297L342.113 41.0641V41.7601H336.641C335.329 41.7601 334.673 42.4161 334.673 43.7281V45.6001C334.673 46.8961 335.329 47.5441 336.641 47.5441H345.713V48.8641H343.313V57.0001H336.209C333.857 57.0001 332.681 55.8241 332.681 53.4721ZM334.193 53.7121C334.193 55.0241 334.849 55.6801 336.161 55.6801H341.801V48.8641H336.161C334.849 48.8641 334.193 49.5121 334.193 50.8081V53.7121ZM354.221 53.4721V48.0961C354.221 45.7441 355.397 44.5681 357.749 44.5681H361.109C363.445 44.5681 364.613 45.7441 364.613 48.0961V53.4721C364.613 55.8241 363.445 57.0001 361.109 57.0001H357.749C355.397 57.0001 354.221 55.8241 354.221 53.4721ZM355.733 53.7121C355.733 55.0241 356.389 55.6801 357.701 55.6801H361.157C362.453 55.6801 363.101 55.0241 363.101 53.7121V47.8561C363.101 46.5601 362.453 45.9121 361.157 45.9121H357.701C356.389 45.9121 355.733 46.5601 355.733 47.8561V53.7121ZM368.286 53.4721V44.5681H369.798V53.7121C369.798 55.0241 370.454 55.6801 371.766 55.6801H376.926V44.5681H378.438V57.0001H371.814C369.462 57.0001 368.286 55.8241 368.286 53.4721ZM382.302 53.4721V40.4401H383.814V44.5681H388.518V45.9121H383.814V53.7121C383.814 55.0241 384.47 55.6801 385.782 55.6801H388.758V56.3761L387.942 57.0001H385.83C383.478 57.0001 382.302 55.8241 382.302 53.4721ZM191.488 86.2801V85.5361H198.88C200.128 85.5361 200.752 84.9121 200.752 83.6641V81.6481C200.752 80.6081 200.288 79.9921 199.36 79.8001L194.08 78.7201C192.352 78.3841 191.488 77.2321 191.488 75.2641V74.0161C191.488 71.6321 192.68 70.4401 195.064 70.4401H200.968L201.88 71.1601V71.9041H194.992C193.728 71.9041 193.096 72.5281 193.096 73.7761V75.4321C193.096 76.4881 193.56 77.1121 194.488 77.3041L199.792 78.3361C201.504 78.6881 202.36 79.8401 202.36 81.7921V83.4241C202.36 85.8081 201.168 87.0001 198.784 87.0001H192.424L191.488 86.2801ZM205.747 83.4721V70.4401H207.259V74.5681H211.963V75.9121H207.259V83.7121C207.259 85.0241 207.915 85.6801 209.227 85.6801H212.203V86.3761L211.387 87.0001H209.275C206.923 87.0001 205.747 85.8241 205.747 83.4721ZM214.839 83.4721V78.0961C214.839 75.7441 216.015 74.5681 218.367 74.5681H221.727C224.063 74.5681 225.231 75.7441 225.231 78.0961V83.4721C225.231 85.8241 224.063 87.0001 221.727 87.0001H218.367C216.015 87.0001 214.839 85.8241 214.839 83.4721ZM216.351 83.7121C216.351 85.0241 217.007 85.6801 218.319 85.6801H221.775C223.071 85.6801 223.719 85.0241 223.719 83.7121V77.8561C223.719 76.5601 223.071 75.9121 221.775 75.9121H218.319C217.007 75.9121 216.351 76.5601 216.351 77.8561V83.7121ZM228.903 87.0001V75.9601C229.463 75.0321 230.479 74.5681 231.951 74.5681H234.303L235.119 75.1921V75.9121H232.023C231.287 75.9121 230.751 76.1121 230.415 76.5121V87.0001H228.903ZM237.526 83.4721V78.0961C237.526 75.7441 238.702 74.5681 241.054 74.5681H244.174C246.51 74.5681 247.678 75.7441 247.678 78.0961V81.3841H239.038V83.7121C239.038 85.0241 239.694 85.6801 241.006 85.6801H247.198V86.3761L246.382 87.0001H241.054C238.702 87.0001 237.526 85.8241 237.526 83.4721ZM239.038 80.1121H246.166V77.8561C246.166 76.5601 245.518 75.9121 244.222 75.9121H241.006C239.694 75.9121 239.038 76.5601 239.038 77.8561V80.1121ZM250.948 86.3761V85.6801H256.516C257.796 85.6801 258.436 85.0401 258.436 83.7601C258.436 82.4801 257.924 81.7601 256.9 81.6001L253.972 81.0961C251.956 80.7601 250.948 79.6961 250.948 77.9041C250.948 75.6801 252.132 74.5681 254.5 74.5681H258.556L259.372 75.1921V75.9121H254.404C253.108 75.9121 252.46 76.5441 252.46 77.8081C252.46 78.9281 252.996 79.5761 254.068 79.7521L257.02 80.2561C258.972 80.5761 259.948 81.7121 259.948 83.6641C259.948 85.8881 258.764 87.0001 256.396 87.0001H251.764L250.948 86.3761ZM268.667 86.3761V85.6801H274.235C275.515 85.6801 276.155 85.0401 276.155 83.7601C276.155 82.4801 275.643 81.7601 274.619 81.6001L271.691 81.0961C269.675 80.7601 268.667 79.6961 268.667 77.9041C268.667 75.6801 269.851 74.5681 272.219 74.5681H276.275L277.091 75.1921V75.9121H272.123C270.827 75.9121 270.179 76.5441 270.179 77.8081C270.179 78.9281 270.715 79.5761 271.787 79.7521L274.739 80.2561C276.691 80.5761 277.667 81.7121 277.667 83.6641C277.667 85.8881 276.483 87.0001 274.115 87.0001H269.483L268.667 86.3761ZM280.932 83.4721V78.0961C280.932 75.7441 282.108 74.5681 284.46 74.5681H287.58C289.916 74.5681 291.084 75.7441 291.084 78.0961V81.3841H282.444V83.7121C282.444 85.0241 283.1 85.6801 284.412 85.6801H290.604V86.3761L289.788 87.0001H284.46C282.108 87.0001 280.932 85.8241 280.932 83.4721ZM282.444 80.1121H289.572V77.8561C289.572 76.5601 288.924 75.9121 287.628 75.9121H284.412C283.1 75.9121 282.444 76.5601 282.444 77.8561V80.1121ZM297.739 87.0001C295.371 87.0001 294.187 85.8161 294.187 83.4481C294.187 81.0641 295.371 79.8721 297.739 79.8721H302.443V77.8561C302.443 76.5601 301.795 75.9121 300.499 75.9121H295.339V75.1921L296.179 74.5681H300.451C302.787 74.5681 303.955 75.7441 303.955 78.0961V87.0001H297.739ZM295.699 83.7121C295.699 85.0241 296.355 85.6801 297.667 85.6801H302.443V81.1441H297.667C296.355 81.1441 295.699 81.7921 295.699 83.0881V83.7121ZM307.724 87.0001V75.9601C308.284 75.0321 309.3 74.5681 310.772 74.5681H313.124L313.94 75.1921V75.9121H310.844C310.108 75.9121 309.572 76.1121 309.236 76.5121V87.0001H307.724ZM316.346 83.4721V78.0961C316.346 75.7441 317.522 74.5681 319.874 74.5681H324.65L325.466 75.1921V75.9121H319.826C318.514 75.9121 317.858 76.5601 317.858 77.8561V83.7121C317.858 85.0241 318.514 85.6801 319.826 85.6801H325.466V86.3761L324.65 87.0001H319.874C317.522 87.0001 316.346 85.8241 316.346 83.4721ZM328.538 87.0001V69.2401H330.05V74.5681H335.186C337.522 74.5681 338.69 75.7441 338.69 78.0961V87.0001H337.178V77.8561C337.178 76.5601 336.53 75.9121 335.234 75.9121H330.05V87.0001H328.538ZM348.32 91.8001V74.5681H354.968C357.304 74.5681 358.472 75.7441 358.472 78.0961V83.4721C358.472 85.8241 357.304 87.0001 354.968 87.0001H349.832V91.8001H348.32ZM349.832 85.6801H355.016C356.312 85.6801 356.96 85.0241 356.96 83.7121V77.8561C356.96 76.5601 356.312 75.9121 355.016 75.9121H349.832V85.6801ZM365.121 87.0001C362.753 87.0001 361.569 85.8161 361.569 83.4481C361.569 81.0641 362.753 79.8721 365.121 79.8721H369.825V77.8561C369.825 76.5601 369.177 75.9121 367.881 75.9121H362.721V75.1921L363.561 74.5681H367.833C370.169 74.5681 371.337 75.7441 371.337 78.0961V87.0001H365.121ZM363.081 83.7121C363.081 85.0241 363.737 85.6801 365.049 85.6801H369.825V81.1441H365.049C363.737 81.1441 363.081 81.7921 363.081 83.0881V83.7121ZM375.034 83.4721V78.0961C375.034 75.7441 376.21 74.5681 378.562 74.5681H385.21V88.2721C385.21 90.6241 384.034 91.8001 381.682 91.8001H376.786L375.97 91.1761V90.4801H381.73C383.042 90.4801 383.698 89.8241 383.698 88.5121V87.0001H378.562C376.21 87.0001 375.034 85.8241 375.034 83.4721ZM376.546 83.7121C376.546 85.0241 377.202 85.6801 378.514 85.6801H383.698V75.9121H378.514C377.202 75.9121 376.546 76.5601 376.546 77.8561V83.7121ZM388.979 83.4721V78.0961C388.979 75.7441 390.155 74.5681 392.507 74.5681H395.627C397.963 74.5681 399.131 75.7441 399.131 78.0961V81.3841H390.491V83.7121C390.491 85.0241 391.147 85.6801 392.459 85.6801H398.651V86.3761L397.835 87.0001H392.507C390.155 87.0001 388.979 85.8241 388.979 83.4721ZM390.491 80.1121H397.619V77.8561C397.619 76.5601 396.971 75.9121 395.675 75.9121H392.459C391.147 75.9121 390.491 76.5601 390.491 77.8561V80.1121ZM191.968 113.424V104.016C191.968 101.632 193.16 100.44 195.544 100.44H201.184C203.568 100.44 204.76 101.632 204.76 104.016V113.424C204.76 115.808 203.568 117 201.184 117H195.544C193.16 117 191.968 115.808 191.968 113.424ZM193.576 113.664C193.576 114.912 194.208 115.536 195.472 115.536H201.28C202.528 115.536 203.152 114.912 203.152 113.664V103.776C203.152 102.528 202.528 101.904 201.28 101.904H195.472C194.208 101.904 193.576 102.528 193.576 103.776V113.664ZM208.63 117V105.96C209.19 105.032 210.206 104.568 211.678 104.568H214.03L214.846 105.192V105.912H211.75C211.014 105.912 210.478 106.112 210.142 106.512V117H208.63ZM217.253 113.472V108.096C217.253 105.744 218.429 104.568 220.781 104.568H225.893V99.2401H227.405V117H220.781C218.429 117 217.253 115.824 217.253 113.472ZM218.765 113.712C218.765 115.024 219.421 115.68 220.733 115.68H225.893V105.912H220.733C219.421 105.912 218.765 106.56 218.765 107.856V113.712ZM231.174 113.472V108.096C231.174 105.744 232.35 104.568 234.702 104.568H237.822C240.158 104.568 241.326 105.744 241.326 108.096V111.384H232.686V113.712C232.686 115.024 233.342 115.68 234.654 115.68H240.846V116.376L240.03 117H234.702C232.35 117 231.174 115.824 231.174 113.472ZM232.686 110.112H239.814V107.856C239.814 106.56 239.166 105.912 237.87 105.912H234.654C233.342 105.912 232.686 106.56 232.686 107.856V110.112ZM245.005 117V105.96C245.565 105.032 246.581 104.568 248.053 104.568H250.405L251.221 105.192V105.912H248.125C247.389 105.912 246.853 106.112 246.517 106.512V117H245.005ZM253.316 116.376V115.68H258.884C260.164 115.68 260.804 115.04 260.804 113.76C260.804 112.48 260.292 111.76 259.268 111.6L256.34 111.096C254.324 110.76 253.316 109.696 253.316 107.904C253.316 105.68 254.5 104.568 256.868 104.568H260.924L261.74 105.192V105.912H256.772C255.476 105.912 254.828 106.544 254.828 107.808C254.828 108.928 255.364 109.576 256.436 109.752L259.388 110.256C261.34 110.576 262.316 111.712 262.316 113.664C262.316 115.888 261.132 117 258.764 117H254.132L253.316 116.376ZM271.034 116.376V115.68H276.602C277.882 115.68 278.522 115.04 278.522 113.76C278.522 112.48 278.01 111.76 276.986 111.6L274.058 111.096C272.042 110.76 271.034 109.696 271.034 107.904C271.034 105.68 272.218 104.568 274.586 104.568H278.642L279.458 105.192V105.912H274.49C273.194 105.912 272.546 106.544 272.546 107.808C272.546 108.928 273.082 109.576 274.154 109.752L277.106 110.256C279.058 110.576 280.034 111.712 280.034 113.664C280.034 115.888 278.85 117 276.482 117H271.85L271.034 116.376ZM283.395 113.472V100.44H284.907V104.568H289.611V105.912H284.907V113.712C284.907 115.024 285.563 115.68 286.875 115.68H289.851V116.376L289.035 117H286.923C284.571 117 283.395 115.824 283.395 113.472ZM295.559 117C293.191 117 292.007 115.816 292.007 113.448C292.007 111.064 293.191 109.872 295.559 109.872H300.263V107.856C300.263 106.56 299.615 105.912 298.319 105.912H293.159V105.192L293.999 104.568H298.271C300.607 104.568 301.775 105.744 301.775 108.096V117H295.559ZM293.519 113.712C293.519 115.024 294.175 115.68 295.487 115.68H300.263V111.144H295.487C294.175 111.144 293.519 111.792 293.519 113.088V113.712ZM305.544 113.472V100.44H307.056V104.568H311.76V105.912H307.056V113.712C307.056 115.024 307.712 115.68 309.024 115.68H312V116.376L311.184 117H309.072C306.72 117 305.544 115.824 305.544 113.472ZM314.731 113.472V104.568H316.243V113.712C316.243 115.024 316.899 115.68 318.211 115.68H323.371V104.568H324.883V117H318.259C315.907 117 314.731 115.824 314.731 113.472ZM328.339 116.376V115.68H333.907C335.187 115.68 335.827 115.04 335.827 113.76C335.827 112.48 335.315 111.76 334.291 111.6L331.363 111.096C329.347 110.76 328.339 109.696 328.339 107.904C328.339 105.68 329.523 104.568 331.891 104.568H335.947L336.763 105.192V105.912H331.795C330.499 105.912 329.851 106.544 329.851 107.808C329.851 108.928 330.387 109.576 331.459 109.752L334.411 110.256C336.363 110.576 337.339 111.712 337.339 113.664C337.339 115.888 336.155 117 333.787 117H329.155L328.339 116.376ZM192.208 147V130.44H194.44L200.248 142.728L206.032 130.44H208.264V147H206.656V132.576L201.04 144.528H199.432L193.816 132.576V147H192.208ZM212.333 143.472V134.568H213.845V143.712C213.845 145.024 214.501 145.68 215.813 145.68H220.973V134.568H222.485V147H215.861C213.509 147 212.333 145.824 212.333 143.472ZM226.349 143.952V129.24H227.861V144.072C227.861 145.224 228.445 145.824 229.613 145.872V147.192C227.437 147.192 226.349 146.112 226.349 143.952ZM232.231 143.472V130.44H233.743V134.568H238.447V135.912H233.743V143.712C233.743 145.024 234.399 145.68 235.711 145.68H238.687V146.376L237.871 147H235.759C233.407 147 232.231 145.824 232.231 143.472ZM241.419 132.192V130.224H243.147V132.192H241.419ZM241.515 147V134.568H243.027V147H241.515ZM245.968 140.352V139.008H252.544V140.352H245.968ZM255.364 143.952V129.24H256.876V144.072C256.876 145.224 257.46 145.824 258.628 145.872V147.192C256.452 147.192 255.364 146.112 255.364 143.952ZM264.223 147C261.855 147 260.671 145.816 260.671 143.448C260.671 141.064 261.855 139.872 264.223 139.872H268.927V137.856C268.927 136.56 268.279 135.912 266.983 135.912H261.823V135.192L262.663 134.568H266.935C269.271 134.568 270.439 135.744 270.439 138.096V147H264.223ZM262.183 143.712C262.183 145.024 262.839 145.68 264.151 145.68H268.927V141.144H264.151C262.839 141.144 262.183 141.792 262.183 143.088V143.712ZM274.304 147V134.568H280.952C283.288 134.568 284.456 135.744 284.456 138.096V147H282.944V137.856C282.944 136.56 282.296 135.912 281 135.912H275.816V147H274.304ZM288.152 143.472V138.096C288.152 135.744 289.328 134.568 291.68 134.568H298.328V148.272C298.328 150.624 297.152 151.8 294.8 151.8H289.904L289.088 151.176V150.48H294.848C296.16 150.48 296.816 149.824 296.816 148.512V147H291.68C289.328 147 288.152 145.824 288.152 143.472ZM289.664 143.712C289.664 145.024 290.32 145.68 291.632 145.68H296.816V135.912H291.632C290.32 135.912 289.664 136.56 289.664 137.856V143.712ZM302.192 143.472V134.568H303.704V143.712C303.704 145.024 304.36 145.68 305.672 145.68H310.832V134.568H312.344V147H305.72C303.368 147 302.192 145.824 302.192 143.472ZM319.184 147C316.816 147 315.632 145.816 315.632 143.448C315.632 141.064 316.816 139.872 319.184 139.872H323.888V137.856C323.888 136.56 323.24 135.912 321.944 135.912H316.784V135.192L317.624 134.568H321.896C324.232 134.568 325.4 135.744 325.4 138.096V147H319.184ZM317.144 143.712C317.144 145.024 317.8 145.68 319.112 145.68H323.888V141.144H319.112C317.8 141.144 317.144 141.792 317.144 143.088V143.712ZM329.097 143.472V138.096C329.097 135.744 330.273 134.568 332.625 134.568H339.273V148.272C339.273 150.624 338.097 151.8 335.745 151.8H330.849L330.033 151.176V150.48H335.793C337.105 150.48 337.761 149.824 337.761 148.512V147H332.625C330.273 147 329.097 145.824 329.097 143.472ZM330.609 143.712C330.609 145.024 331.265 145.68 332.577 145.68H337.761V135.912H332.577C331.265 135.912 330.609 136.56 330.609 137.856V143.712ZM343.042 143.472V138.096C343.042 135.744 344.218 134.568 346.57 134.568H349.69C352.026 134.568 353.194 135.744 353.194 138.096V141.384H344.554V143.712C344.554 145.024 345.21 145.68 346.522 145.68H352.714V146.376L351.898 147H346.57C344.218 147 343.042 145.824 343.042 143.472ZM344.554 140.112H351.682V137.856C351.682 136.56 351.034 135.912 349.738 135.912H346.522C345.21 135.912 344.554 136.56 344.554 137.856V140.112ZM362.734 147V132.768C362.734 130.416 363.91 129.24 366.262 129.24H368.374L369.19 129.864V130.56H366.214C364.902 130.56 364.246 131.216 364.246 132.528V134.568H368.95V135.912H364.246V147H362.734ZM371.544 147V135.96C372.104 135.032 373.12 134.568 374.592 134.568H376.944L377.76 135.192V135.912H374.664C373.928 135.912 373.392 136.112 373.056 136.512V147H371.544ZM380.167 143.472V138.096C380.167 135.744 381.343 134.568 383.695 134.568H387.055C389.391 134.568 390.559 135.744 390.559 138.096V143.472C390.559 145.824 389.391 147 387.055 147H383.695C381.343 147 380.167 145.824 380.167 143.472ZM381.679 143.712C381.679 145.024 382.335 145.68 383.647 145.68H387.103C388.399 145.68 389.047 145.024 389.047 143.712V137.856C389.047 136.56 388.399 135.912 387.103 135.912H383.647C382.335 135.912 381.679 136.56 381.679 137.856V143.712ZM394.327 147V134.568H400.975C403.311 134.568 404.479 135.744 404.479 138.096V147H402.967V137.856C402.967 136.56 402.319 135.912 401.023 135.912H395.839V147H394.327ZM408.247 143.472V130.44H409.759V134.568H414.463V135.912H409.759V143.712C409.759 145.024 410.415 145.68 411.727 145.68H414.703V146.376L413.887 147H411.775C409.423 147 408.247 145.824 408.247 143.472ZM417.339 143.472V138.096C417.339 135.744 418.515 134.568 420.867 134.568H423.987C426.323 134.568 427.491 135.744 427.491 138.096V141.384H418.851V143.712C418.851 145.024 419.507 145.68 420.819 145.68H427.011V146.376L426.195 147H420.867C418.515 147 417.339 145.824 417.339 143.472ZM418.851 140.112H425.979V137.856C425.979 136.56 425.331 135.912 424.035 135.912H420.819C419.507 135.912 418.851 136.56 418.851 137.856V140.112ZM431.265 147V134.568H437.913C440.249 134.568 441.417 135.744 441.417 138.096V147H439.905V137.856C439.905 136.56 439.257 135.912 437.961 135.912H432.777V147H431.265ZM445.089 143.472V138.096C445.089 135.744 446.265 134.568 448.617 134.568H453.729V129.24H455.241V147H448.617C446.265 147 445.089 145.824 445.089 143.472ZM446.601 143.712C446.601 145.024 447.257 145.68 448.569 145.68H453.729V135.912H448.569C447.257 135.912 446.601 136.56 446.601 137.856V143.712ZM191.968 173.424V164.016C191.968 161.632 193.16 160.44 195.544 160.44H201.184C203.568 160.44 204.76 161.632 204.76 164.016V173.424C204.76 175.808 203.568 177 201.184 177H195.544C193.16 177 191.968 175.808 191.968 173.424ZM193.576 173.664C193.576 174.912 194.208 175.536 195.472 175.536H201.28C202.528 175.536 203.152 174.912 203.152 173.664V163.776C203.152 162.528 202.528 161.904 201.28 161.904H195.472C194.208 161.904 193.576 162.528 193.576 163.776V173.664ZM208.63 177V165.96C209.19 165.032 210.206 164.568 211.678 164.568H214.03L214.846 165.192V165.912H211.75C211.014 165.912 210.478 166.112 210.142 166.512V177H208.63ZM217.253 173.472V168.096C217.253 165.744 218.429 164.568 220.781 164.568H225.893V159.24H227.405V177H220.781C218.429 177 217.253 175.824 217.253 173.472ZM218.765 173.712C218.765 175.024 219.421 175.68 220.733 175.68H225.893V165.912H220.733C219.421 165.912 218.765 166.56 218.765 167.856V173.712ZM231.174 173.472V168.096C231.174 165.744 232.35 164.568 234.702 164.568H237.822C240.158 164.568 241.326 165.744 241.326 168.096V171.384H232.686V173.712C232.686 175.024 233.342 175.68 234.654 175.68H240.846V176.376L240.03 177H234.702C232.35 177 231.174 175.824 231.174 173.472ZM232.686 170.112H239.814V167.856C239.814 166.56 239.166 165.912 237.87 165.912H234.654C233.342 165.912 232.686 166.56 232.686 167.856V170.112ZM245.005 177V165.96C245.565 165.032 246.581 164.568 248.053 164.568H250.405L251.221 165.192V165.912H248.125C247.389 165.912 246.853 166.112 246.517 166.512V177H245.005ZM259.585 177V159.24H261.097V164.568H266.233C268.569 164.568 269.737 165.744 269.737 168.096V177H268.225V167.856C268.225 166.56 267.577 165.912 266.281 165.912H261.097V177H259.585ZM273.505 162.192V160.224H275.233V162.192H273.505ZM273.601 177V164.568H275.113V177H273.601ZM278.558 176.376V175.68H284.126C285.406 175.68 286.046 175.04 286.046 173.76C286.046 172.48 285.534 171.76 284.51 171.6L281.582 171.096C279.566 170.76 278.558 169.696 278.558 167.904C278.558 165.68 279.742 164.568 282.11 164.568H286.166L286.982 165.192V165.912H282.014C280.718 165.912 280.07 166.544 280.07 167.808C280.07 168.928 280.606 169.576 281.678 169.752L284.63 170.256C286.582 170.576 287.558 171.712 287.558 173.664C287.558 175.888 286.374 177 284.006 177H279.374L278.558 176.376ZM290.919 173.472V160.44H292.431V164.568H297.135V165.912H292.431V173.712C292.431 175.024 293.087 175.68 294.399 175.68H297.375V176.376L296.559 177H294.447C292.095 177 290.919 175.824 290.919 173.472ZM300.01 173.472V168.096C300.01 165.744 301.186 164.568 303.538 164.568H306.898C309.234 164.568 310.402 165.744 310.402 168.096V173.472C310.402 175.824 309.234 177 306.898 177H303.538C301.186 177 300.01 175.824 300.01 173.472ZM301.522 173.712C301.522 175.024 302.178 175.68 303.49 175.68H306.946C308.242 175.68 308.89 175.024 308.89 173.712V167.856C308.89 166.56 308.242 165.912 306.946 165.912H303.49C302.178 165.912 301.522 166.56 301.522 167.856V173.712ZM314.075 177V165.96C314.635 165.032 315.651 164.568 317.123 164.568H319.475L320.291 165.192V165.912H317.195C316.459 165.912 315.923 166.112 315.587 166.512V177H314.075ZM321.402 164.88L321.594 164.568H322.914L326.754 175.68H327.306L331.17 164.568H332.466L332.658 164.88L326.634 181.8H325.338L325.146 181.512L326.826 177H325.722L321.402 164.88Z" fill="white"/>
<path d="M192.208 417V400.44H202.864V401.904H193.816V408.264H202.144V409.704H193.816V417H192.208ZM205.466 402.192V400.224H207.194V402.192H205.466ZM205.562 417V404.568H207.074V417H205.562ZM210.927 417V405.96C211.487 405.032 212.503 404.568 213.975 404.568H216.327L217.143 405.192V405.912H214.047C213.311 405.912 212.775 406.112 212.439 406.512V417H210.927ZM219.237 416.376V415.68H224.805C226.085 415.68 226.725 415.04 226.725 413.76C226.725 412.48 226.213 411.76 225.189 411.6L222.261 411.096C220.245 410.76 219.237 409.696 219.237 407.904C219.237 405.68 220.421 404.568 222.789 404.568H226.845L227.661 405.192V405.912H222.693C221.397 405.912 220.749 406.544 220.749 407.808C220.749 408.928 221.285 409.576 222.357 409.752L225.309 410.256C227.261 410.576 228.237 411.712 228.237 413.664C228.237 415.888 227.053 417 224.685 417H220.053L219.237 416.376ZM231.599 413.472V400.44H233.111V404.568H237.815V405.912H233.111V413.712C233.111 415.024 233.767 415.68 235.079 415.68H238.055V416.376L237.239 417H235.127C232.775 417 231.599 415.824 231.599 413.472ZM246.144 416.376V415.68H251.712C252.992 415.68 253.632 415.04 253.632 413.76C253.632 412.48 253.12 411.76 252.096 411.6L249.168 411.096C247.152 410.76 246.144 409.696 246.144 407.904C246.144 405.68 247.328 404.568 249.696 404.568H253.752L254.568 405.192V405.912H249.6C248.304 405.912 247.656 406.544 247.656 407.808C247.656 408.928 248.192 409.576 249.264 409.752L252.216 410.256C254.168 410.576 255.144 411.712 255.144 413.664C255.144 415.888 253.96 417 251.592 417H246.96L246.144 416.376ZM258.505 413.472V400.44H260.017V404.568H264.721V405.912H260.017V413.712C260.017 415.024 260.673 415.68 261.985 415.68H264.961V416.376L264.145 417H262.033C259.681 417 258.505 415.824 258.505 413.472ZM267.596 413.472V408.096C267.596 405.744 268.772 404.568 271.124 404.568H274.484C276.82 404.568 277.988 405.744 277.988 408.096V413.472C277.988 415.824 276.82 417 274.484 417H271.124C268.772 417 267.596 415.824 267.596 413.472ZM269.108 413.712C269.108 415.024 269.764 415.68 271.076 415.68H274.532C275.828 415.68 276.476 415.024 276.476 413.712V407.856C276.476 406.56 275.828 405.912 274.532 405.912H271.076C269.764 405.912 269.108 406.56 269.108 407.856V413.712ZM281.661 417V405.96C282.221 405.032 283.237 404.568 284.709 404.568H287.061L287.877 405.192V405.912H284.781C284.045 405.912 283.509 406.112 283.173 406.512V417H281.661ZM290.284 413.472V408.096C290.284 405.744 291.46 404.568 293.812 404.568H296.932C299.268 404.568 300.436 405.744 300.436 408.096V411.384H291.796V413.712C291.796 415.024 292.452 415.68 293.764 415.68H299.956V416.376L299.14 417H293.812C291.46 417 290.284 415.824 290.284 413.472ZM291.796 410.112H298.924V407.856C298.924 406.56 298.276 405.912 296.98 405.912H293.764C292.452 405.912 291.796 406.56 291.796 407.856V410.112ZM309.88 417V405.96C310.44 405.032 311.456 404.568 312.928 404.568H315.28L316.096 405.192V405.912H313C312.264 405.912 311.728 406.112 311.392 406.512V417H309.88ZM318.503 413.472V408.096C318.503 405.744 319.679 404.568 322.031 404.568H325.151C327.487 404.568 328.655 405.744 328.655 408.096V411.384H320.015V413.712C320.015 415.024 320.671 415.68 321.983 415.68H328.175V416.376L327.359 417H322.031C319.679 417 318.503 415.824 318.503 413.472ZM320.015 410.112H327.143V407.856C327.143 406.56 326.495 405.912 325.199 405.912H321.983C320.671 405.912 320.015 406.56 320.015 407.856V410.112ZM332.261 413.472V408.096C332.261 405.744 333.437 404.568 335.789 404.568H342.437V418.272C342.437 420.624 341.261 421.8 338.909 421.8H334.013L333.197 421.176V420.48H338.957C340.269 420.48 340.925 419.824 340.925 418.512V417H335.789C333.437 417 332.261 415.824 332.261 413.472ZM333.773 413.712C333.773 415.024 334.429 415.68 335.741 415.68H340.925V405.912H335.741C334.429 405.912 333.773 406.56 333.773 407.856V413.712ZM346.302 402.192V400.224H348.03V402.192H346.302ZM346.398 417V404.568H347.91V417H346.398ZM351.355 416.376V415.68H356.923C358.203 415.68 358.843 415.04 358.843 413.76C358.843 412.48 358.331 411.76 357.307 411.6L354.379 411.096C352.363 410.76 351.355 409.696 351.355 407.904C351.355 405.68 352.539 404.568 354.907 404.568H358.963L359.779 405.192V405.912H354.811C353.515 405.912 352.867 406.544 352.867 407.808C352.867 408.928 353.403 409.576 354.475 409.752L357.427 410.256C359.379 410.576 360.355 411.712 360.355 413.664C360.355 415.888 359.171 417 356.803 417H352.171L351.355 416.376ZM363.716 413.472V400.44H365.228V404.568H369.932V405.912H365.228V413.712C365.228 415.024 365.884 415.68 367.196 415.68H370.172V416.376L369.356 417H367.244C364.892 417 363.716 415.824 363.716 413.472ZM372.807 413.472V408.096C372.807 405.744 373.983 404.568 376.335 404.568H379.455C381.791 404.568 382.959 405.744 382.959 408.096V411.384H374.319V413.712C374.319 415.024 374.975 415.68 376.287 415.68H382.479V416.376L381.663 417H376.335C373.983 417 372.807 415.824 372.807 413.472ZM374.319 410.112H381.447V407.856C381.447 406.56 380.799 405.912 379.503 405.912H376.287C374.975 405.912 374.319 406.56 374.319 407.856V410.112ZM386.638 417V405.96C387.198 405.032 388.214 404.568 389.686 404.568H392.038L392.854 405.192V405.912H389.758C389.022 405.912 388.486 406.112 388.15 406.512V417H386.638ZM192.208 447V430.44H194.44L200.248 442.728L206.032 430.44H208.264V447H206.656V432.576L201.04 444.528H199.432L193.816 432.576V447H192.208ZM212.333 443.472V434.568H213.845V443.712C213.845 445.024 214.501 445.68 215.813 445.68H220.973V434.568H222.485V447H215.861C213.509 447 212.333 445.824 212.333 443.472ZM226.349 443.952V429.24H227.861V444.072C227.861 445.224 228.445 445.824 229.613 445.872V447.192C227.437 447.192 226.349 446.112 226.349 443.952ZM232.231 443.472V430.44H233.743V434.568H238.447V435.912H233.743V443.712C233.743 445.024 234.399 445.68 235.711 445.68H238.687V446.376L237.871 447H235.759C233.407 447 232.231 445.824 232.231 443.472ZM241.419 432.192V430.224H243.147V432.192H241.419ZM241.515 447V434.568H243.027V447H241.515ZM245.968 440.352V439.008H252.544V440.352H245.968ZM255.268 443.472V438.096C255.268 435.744 256.444 434.568 258.796 434.568H263.572L264.388 435.192V435.912H258.748C257.436 435.912 256.78 436.56 256.78 437.856V443.712C256.78 445.024 257.436 445.68 258.748 445.68H264.388V446.376L263.572 447H258.796C256.444 447 255.268 445.824 255.268 443.472ZM267.46 447V429.24H268.972V434.568H274.108C276.444 434.568 277.612 435.744 277.612 438.096V447H276.1V437.856C276.1 436.56 275.452 435.912 274.156 435.912H268.972V447H267.46ZM284.356 447C281.988 447 280.804 445.816 280.804 443.448C280.804 441.064 281.988 439.872 284.356 439.872H289.06V437.856C289.06 436.56 288.412 435.912 287.116 435.912H281.956V435.192L282.796 434.568H287.068C289.404 434.568 290.572 435.744 290.572 438.096V447H284.356ZM282.316 443.712C282.316 445.024 282.972 445.68 284.284 445.68H289.06V441.144H284.284C282.972 441.144 282.316 441.792 282.316 443.088V443.712ZM294.341 432.192V430.224H296.069V432.192H294.341ZM294.437 447V434.568H295.949V447H294.437ZM299.898 447V434.568H306.546C308.882 434.568 310.05 435.744 310.05 438.096V447H308.538V437.856C308.538 436.56 307.89 435.912 306.594 435.912H301.41V447H299.898ZM319.487 443.472V438.096C319.487 435.744 320.663 434.568 323.015 434.568H328.127V429.24H329.639V447H323.015C320.663 447 319.487 445.824 319.487 443.472ZM320.999 443.712C320.999 445.024 321.655 445.68 322.967 445.68H328.127V435.912H322.967C321.655 435.912 320.999 436.56 320.999 437.856V443.712ZM333.409 443.472V438.096C333.409 435.744 334.585 434.568 336.937 434.568H340.057C342.393 434.568 343.561 435.744 343.561 438.096V441.384H334.921V443.712C334.921 445.024 335.577 445.68 336.889 445.68H343.081V446.376L342.265 447H336.937C334.585 447 333.409 445.824 333.409 443.472ZM334.921 440.112H342.049V437.856C342.049 436.56 341.401 435.912 340.105 435.912H336.889C335.577 435.912 334.921 436.56 334.921 437.856V440.112ZM347.335 451.8V434.568H353.983C356.319 434.568 357.487 435.744 357.487 438.096V443.472C357.487 445.824 356.319 447 353.983 447H348.847V451.8H347.335ZM348.847 445.68H354.031C355.327 445.68 355.975 445.024 355.975 443.712V437.856C355.975 436.56 355.327 435.912 354.031 435.912H348.847V445.68ZM361.161 443.952V429.24H362.673V444.072C362.673 445.224 363.257 445.824 364.425 445.872V447.192C362.249 447.192 361.161 446.112 361.161 443.952ZM366.948 443.472V438.096C366.948 435.744 368.124 434.568 370.476 434.568H373.836C376.172 434.568 377.34 435.744 377.34 438.096V443.472C377.34 445.824 376.172 447 373.836 447H370.476C368.124 447 366.948 445.824 366.948 443.472ZM368.46 443.712C368.46 445.024 369.116 445.68 370.428 445.68H373.884C375.18 445.68 375.828 445.024 375.828 443.712V437.856C375.828 436.56 375.18 435.912 373.884 435.912H370.428C369.116 435.912 368.46 436.56 368.46 437.856V443.712ZM379.621 434.88L379.813 434.568H381.133L384.973 445.68H385.525L389.389 434.568H390.685L390.877 434.88L384.853 451.8H383.557L383.365 451.512L385.045 447H383.941L379.621 434.88ZM393.32 447V434.568H407.408C409.744 434.568 410.912 435.744 410.912 438.096V447H409.4V437.856C409.4 436.56 408.752 435.912 407.456 435.912H402.872V447H401.36V435.912H394.832V447H393.32ZM414.573 443.472V438.096C414.573 435.744 415.749 434.568 418.101 434.568H421.221C423.557 434.568 424.725 435.744 424.725 438.096V441.384H416.085V443.712C416.085 445.024 416.741 445.68 418.053 445.68H424.245V446.376L423.429 447H418.101C415.749 447 414.573 445.824 414.573 443.472ZM416.085 440.112H423.213V437.856C423.213 436.56 422.565 435.912 421.269 435.912H418.053C416.741 435.912 416.085 436.56 416.085 437.856V440.112ZM428.499 447V434.568H435.147C437.483 434.568 438.651 435.744 438.651 438.096V447H437.139V437.856C437.139 436.56 436.491 435.912 435.195 435.912H430.011V447H428.499ZM442.419 443.472V430.44H443.931V434.568H448.635V435.912H443.931V443.712C443.931 445.024 444.587 445.68 445.899 445.68H448.875V446.376L448.059 447H445.947C443.595 447 442.419 445.824 442.419 443.472ZM191.968 473.424V464.016C191.968 461.632 193.16 460.44 195.544 460.44H202.408L203.344 461.16V461.904H195.472C194.208 461.904 193.576 462.528 193.576 463.776V473.664C193.576 474.912 194.208 475.536 195.472 475.536H203.344V476.28L202.408 477H195.544C193.16 477 191.968 475.808 191.968 473.424ZM206.427 477V465.96C206.987 465.032 208.003 464.568 209.475 464.568H211.827L212.643 465.192V465.912H209.547C208.811 465.912 208.275 466.112 207.939 466.512V477H206.427ZM215.049 473.472V468.096C215.049 465.744 216.225 464.568 218.577 464.568H221.937C224.273 464.568 225.441 465.744 225.441 468.096V473.472C225.441 475.824 224.273 477 221.937 477H218.577C216.225 477 215.049 475.824 215.049 473.472ZM216.561 473.712C216.561 475.024 217.217 475.68 218.529 475.68H221.985C223.281 475.68 223.929 475.024 223.929 473.712V467.856C223.929 466.56 223.281 465.912 221.985 465.912H218.529C217.217 465.912 216.561 466.56 216.561 467.856V473.712ZM228.706 476.376V475.68H234.274C235.554 475.68 236.194 475.04 236.194 473.76C236.194 472.48 235.682 471.76 234.658 471.6L231.73 471.096C229.714 470.76 228.706 469.696 228.706 467.904C228.706 465.68 229.89 464.568 232.258 464.568H236.314L237.13 465.192V465.912H232.162C230.866 465.912 230.218 466.544 230.218 467.808C230.218 468.928 230.754 469.576 231.826 469.752L234.778 470.256C236.73 470.576 237.706 471.712 237.706 473.664C237.706 475.888 236.522 477 234.154 477H229.522L228.706 476.376ZM240.659 476.376V475.68H246.227C247.507 475.68 248.147 475.04 248.147 473.76C248.147 472.48 247.635 471.76 246.611 471.6L243.683 471.096C241.667 470.76 240.659 469.696 240.659 467.904C240.659 465.68 241.843 464.568 244.211 464.568H248.267L249.083 465.192V465.912H244.115C242.819 465.912 242.171 466.544 242.171 467.808C242.171 468.928 242.707 469.576 243.779 469.752L246.731 470.256C248.683 470.576 249.659 471.712 249.659 473.664C249.659 475.888 248.475 477 246.107 477H241.475L240.659 476.376ZM252.108 470.352V469.008H258.684V470.352H252.108ZM261.409 473.472V468.096C261.409 465.744 262.585 464.568 264.937 464.568H269.713L270.529 465.192V465.912H264.889C263.577 465.912 262.921 466.56 262.921 467.856V473.712C262.921 475.024 263.577 475.68 264.889 475.68H270.529V476.376L269.713 477H264.937C262.585 477 261.409 475.824 261.409 473.472ZM273.601 477V459.24H275.113V464.568H280.249C282.585 464.568 283.753 465.744 283.753 468.096V477H282.241V467.856C282.241 466.56 281.593 465.912 280.297 465.912H275.113V477H273.601ZM290.496 477C288.128 477 286.944 475.816 286.944 473.448C286.944 471.064 288.128 469.872 290.496 469.872H295.2V467.856C295.2 466.56 294.552 465.912 293.256 465.912H288.096V465.192L288.936 464.568H293.208C295.544 464.568 296.712 465.744 296.712 468.096V477H290.496ZM288.456 473.712C288.456 475.024 289.112 475.68 290.424 475.68H295.2V471.144H290.424C289.112 471.144 288.456 471.792 288.456 473.088V473.712ZM300.481 462.192V460.224H302.209V462.192H300.481ZM300.577 477V464.568H302.089V477H300.577ZM306.038 477V464.568H312.686C315.022 464.568 316.19 465.744 316.19 468.096V477H314.678V467.856C314.678 466.56 314.03 465.912 312.734 465.912H307.55V477H306.038ZM325.82 477V459.24H327.332V464.568H332.468C334.804 464.568 335.972 465.744 335.972 468.096V473.472C335.972 475.824 334.804 477 332.468 477H325.82ZM327.332 475.68H332.516C333.812 475.68 334.46 475.024 334.46 473.712V467.856C334.46 466.56 333.812 465.912 332.516 465.912H327.332V475.68ZM339.645 477V465.96C340.205 465.032 341.221 464.568 342.693 464.568H345.045L345.861 465.192V465.912H342.765C342.029 465.912 341.493 466.112 341.157 466.512V477H339.645ZM348.364 462.192V460.224H350.092V462.192H348.364ZM348.46 477V464.568H349.972V477H348.46ZM353.729 473.472V468.096C353.729 465.744 354.905 464.568 357.257 464.568H362.369V459.24H363.881V477H357.257C354.905 477 353.729 475.824 353.729 473.472ZM355.241 473.712C355.241 475.024 355.897 475.68 357.209 475.68H362.369V465.912H357.209C355.897 465.912 355.241 466.56 355.241 467.856V473.712ZM367.675 473.472V468.096C367.675 465.744 368.851 464.568 371.203 464.568H377.851V478.272C377.851 480.624 376.675 481.8 374.323 481.8H369.427L368.611 481.176V480.48H374.371C375.683 480.48 376.339 479.824 376.339 478.512V477H371.203C368.851 477 367.675 475.824 367.675 473.472ZM369.187 473.712C369.187 475.024 369.843 475.68 371.155 475.68H376.339V465.912H371.155C369.843 465.912 369.187 466.56 369.187 467.856V473.712ZM381.62 473.472V468.096C381.62 465.744 382.796 464.568 385.148 464.568H388.268C390.604 464.568 391.772 465.744 391.772 468.096V471.384H383.132V473.712C383.132 475.024 383.788 475.68 385.1 475.68H391.292V476.376L390.476 477H385.148C382.796 477 381.62 475.824 381.62 473.472ZM383.132 470.112H390.26V467.856C390.26 466.56 389.612 465.912 388.316 465.912H385.1C383.788 465.912 383.132 466.56 383.132 467.856V470.112Z" fill="white"/>
<path d="M190.48 266.616L196.072 250.44H198.808L204.376 266.616L204.136 267H202.816L201.352 262.584H193.504L192.04 267H190.744L190.48 266.616ZM194.032 261.144H200.848L197.752 251.904H197.128L194.032 261.144ZM204.871 254.88L205.063 254.568H206.383L210.223 265.68H210.775L214.639 254.568H215.935L216.127 254.88L211.831 267H209.191L204.871 254.88ZM221.215 267C218.847 267 217.663 265.816 217.663 263.448C217.663 261.064 218.847 259.872 221.215 259.872H225.919V257.856C225.919 256.56 225.271 255.912 223.975 255.912H218.815V255.192L219.655 254.568H223.927C226.263 254.568 227.431 255.744 227.431 258.096V267H221.215ZM219.175 263.712C219.175 265.024 219.831 265.68 221.143 265.68H225.919V261.144H221.143C219.831 261.144 219.175 261.792 219.175 263.088V263.712ZM231.2 263.952V249.24H232.712V264.072C232.712 265.224 233.296 265.824 234.464 265.872V267.192C232.288 267.192 231.2 266.112 231.2 263.952ZM240.059 267C237.691 267 236.507 265.816 236.507 263.448C236.507 261.064 237.691 259.872 240.059 259.872H244.763V257.856C244.763 256.56 244.115 255.912 242.819 255.912H237.659V255.192L238.499 254.568H242.771C245.107 254.568 246.275 255.744 246.275 258.096V267H240.059ZM238.019 263.712C238.019 265.024 238.675 265.68 239.987 265.68H244.763V261.144H239.987C238.675 261.144 238.019 261.792 238.019 263.088V263.712ZM250.14 267V254.568H256.788C259.124 254.568 260.292 255.744 260.292 258.096V267H258.78V257.856C258.78 256.56 258.132 255.912 256.836 255.912H251.652V267H250.14ZM263.964 263.472V258.096C263.964 255.744 265.14 254.568 267.492 254.568H272.268L273.084 255.192V255.912H267.444C266.132 255.912 265.476 256.56 265.476 257.856V263.712C265.476 265.024 266.132 265.68 267.444 265.68H273.084V266.376L272.268 267H267.492C265.14 267 263.964 265.824 263.964 263.472ZM276.156 267V249.24H277.668V254.568H282.804C285.14 254.568 286.307 255.744 286.307 258.096V267H284.796V257.856C284.796 256.56 284.148 255.912 282.852 255.912H277.668V267H276.156ZM289.979 263.472V258.096C289.979 255.744 291.155 254.568 293.507 254.568H296.627C298.963 254.568 300.131 255.744 300.131 258.096V261.384H291.491V263.712C291.491 265.024 292.147 265.68 293.459 265.68H299.651V266.376L298.835 267H293.507C291.155 267 289.979 265.824 289.979 263.472ZM291.491 260.112H298.619V257.856C298.619 256.56 297.971 255.912 296.675 255.912H293.459C292.147 255.912 291.491 256.56 291.491 257.856V260.112ZM309.911 267V250.44H312.143L317.951 262.728L323.735 250.44H325.967V267H324.359V252.576L318.743 264.528H317.135L311.519 252.576V267H309.911ZM333.012 267C330.644 267 329.46 265.816 329.46 263.448C329.46 261.064 330.644 259.872 333.012 259.872H337.716V257.856C337.716 256.56 337.068 255.912 335.772 255.912H330.612V255.192L331.452 254.568H335.724C338.06 254.568 339.228 255.744 339.228 258.096V267H333.012ZM330.972 263.712C330.972 265.024 331.628 265.68 332.94 265.68H337.716V261.144H332.94C331.628 261.144 330.972 261.792 330.972 263.088V263.712ZM342.997 252.192V250.224H344.725V252.192H342.997ZM343.093 267V254.568H344.605V267H343.093ZM348.554 267V254.568H355.202C357.538 254.568 358.706 255.744 358.706 258.096V267H357.194V257.856C357.194 256.56 356.546 255.912 355.25 255.912H350.066V267H348.554ZM362.57 267V254.568H369.218C371.554 254.568 372.722 255.744 372.722 258.096V267H371.21V257.856C371.21 256.56 370.562 255.912 369.266 255.912H364.082V267H362.57ZM376.393 263.472V258.096C376.393 255.744 377.569 254.568 379.921 254.568H383.041C385.377 254.568 386.545 255.744 386.545 258.096V261.384H377.905V263.712C377.905 265.024 378.561 265.68 379.873 265.68H386.065V266.376L385.249 267H379.921C377.569 267 376.393 265.824 376.393 263.472ZM377.905 260.112H385.033V257.856C385.033 256.56 384.385 255.912 383.089 255.912H379.873C378.561 255.912 377.905 256.56 377.905 257.856V260.112ZM390.224 263.472V250.44H391.736V254.568H396.44V255.912H391.736V263.712C391.736 265.024 392.392 265.68 393.704 265.68H396.68V266.376L395.864 267H393.752C391.4 267 390.224 265.824 390.224 263.472ZM191.968 293.424V284.016C191.968 281.632 193.16 280.44 195.544 280.44H202.408L203.344 281.16V281.904H195.472C194.208 281.904 193.576 282.528 193.576 283.776V293.664C193.576 294.912 194.208 295.536 195.472 295.536H203.344V296.28L202.408 297H195.544C193.16 297 191.968 295.808 191.968 293.424ZM206.523 293.424V284.016C206.523 281.632 207.715 280.44 210.099 280.44H215.739C218.123 280.44 219.315 281.632 219.315 284.016V293.424C219.315 295.808 218.123 297 215.739 297H210.099C207.715 297 206.523 295.808 206.523 293.424ZM208.131 293.664C208.131 294.912 208.763 295.536 210.027 295.536H215.835C217.083 295.536 217.707 294.912 217.707 293.664V283.776C217.707 282.528 217.083 281.904 215.835 281.904H210.027C208.763 281.904 208.131 282.528 208.131 283.776V293.664ZM223.521 297V280.44H234.177V281.904H225.129V288.264H233.457V289.704H225.129V297H223.521ZM237.114 297V280.44H247.77V281.904H238.722V288.264H247.05V289.704H238.722V297H237.114ZM256.042 293.472V288.096C256.042 285.744 257.218 284.568 259.57 284.568H264.346L265.162 285.192V285.912H259.522C258.21 285.912 257.554 286.56 257.554 287.856V293.712C257.554 295.024 258.21 295.68 259.522 295.68H265.162V296.376L264.346 297H259.57C257.218 297 256.042 295.824 256.042 293.472ZM268.042 293.472V288.096C268.042 285.744 269.218 284.568 271.57 284.568H274.93C277.266 284.568 278.434 285.744 278.434 288.096V293.472C278.434 295.824 277.266 297 274.93 297H271.57C269.218 297 268.042 295.824 268.042 293.472ZM269.554 293.712C269.554 295.024 270.21 295.68 271.522 295.68H274.978C276.274 295.68 276.922 295.024 276.922 293.712V287.856C276.922 286.56 276.274 285.912 274.978 285.912H271.522C270.21 285.912 269.554 286.56 269.554 287.856V293.712ZM282.202 297V284.568H288.85C291.186 284.568 292.354 285.744 292.354 288.096V297H290.842V287.856C290.842 286.56 290.194 285.912 288.898 285.912H283.714V297H282.202ZM296.122 293.472V280.44H297.634V284.568H302.338V285.912H297.634V293.712C297.634 295.024 298.29 295.68 299.602 295.68H302.578V296.376L301.762 297H299.65C297.298 297 296.122 295.824 296.122 293.472ZM305.31 297V285.96C305.87 285.032 306.886 284.568 308.358 284.568H310.71L311.526 285.192V285.912H308.43C307.694 285.912 307.158 286.112 306.822 286.512V297H305.31ZM316.77 297C314.402 297 313.218 295.816 313.218 293.448C313.218 291.064 314.402 289.872 316.77 289.872H321.474V287.856C321.474 286.56 320.826 285.912 319.53 285.912H314.37V285.192L315.21 284.568H319.482C321.818 284.568 322.986 285.744 322.986 288.096V297H316.77ZM314.73 293.712C314.73 295.024 315.386 295.68 316.698 295.68H321.474V291.144H316.698C315.386 291.144 314.73 291.792 314.73 293.088V293.712ZM326.659 293.472V288.096C326.659 285.744 327.835 284.568 330.187 284.568H334.963L335.779 285.192V285.912H330.139C328.827 285.912 328.171 286.56 328.171 287.856V293.712C328.171 295.024 328.827 295.68 330.139 295.68H335.779V296.376L334.963 297H330.187C327.835 297 326.659 295.824 326.659 293.472ZM338.755 293.472V280.44H340.267V284.568H344.971V285.912H340.267V293.712C340.267 295.024 340.923 295.68 342.235 295.68H345.211V296.376L344.395 297H342.283C339.931 297 338.755 295.824 338.755 293.472ZM353.612 293.472V288.096C353.612 285.744 354.788 284.568 357.14 284.568H362.252V279.24H363.764V297H357.14C354.788 297 353.612 295.824 353.612 293.472ZM355.124 293.712C355.124 295.024 355.78 295.68 357.092 295.68H362.252V285.912H357.092C355.78 285.912 355.124 286.56 355.124 287.856V293.712ZM367.534 293.472V288.096C367.534 285.744 368.71 284.568 371.062 284.568H374.182C376.518 284.568 377.686 285.744 377.686 288.096V291.384H369.046V293.712C369.046 295.024 369.702 295.68 371.014 295.68H377.206V296.376L376.39 297H371.062C368.71 297 367.534 295.824 367.534 293.472ZM369.046 290.112H376.174V287.856C376.174 286.56 375.526 285.912 374.23 285.912H371.014C369.702 285.912 369.046 286.56 369.046 287.856V290.112ZM381.46 301.8V284.568H388.108C390.444 284.568 391.612 285.744 391.612 288.096V293.472C391.612 295.824 390.444 297 388.108 297H382.972V301.8H381.46ZM382.972 295.68H388.156C389.452 295.68 390.1 295.024 390.1 293.712V287.856C390.1 286.56 389.452 285.912 388.156 285.912H382.972V295.68ZM395.286 293.952V279.24H396.798V294.072C396.798 295.224 397.382 295.824 398.55 295.872V297.192C396.374 297.192 395.286 296.112 395.286 293.952ZM401.073 293.472V288.096C401.073 285.744 402.249 284.568 404.601 284.568H407.961C410.297 284.568 411.465 285.744 411.465 288.096V293.472C411.465 295.824 410.297 297 407.961 297H404.601C402.249 297 401.073 295.824 401.073 293.472ZM402.585 293.712C402.585 295.024 403.241 295.68 404.553 295.68H408.009C409.305 295.68 409.953 295.024 409.953 293.712V287.856C409.953 286.56 409.305 285.912 408.009 285.912H404.553C403.241 285.912 402.585 286.56 402.585 287.856V293.712ZM413.746 284.88L413.938 284.568H415.258L419.098 295.68H419.65L423.514 284.568H424.81L425.002 284.88L418.978 301.8H417.682L417.49 301.512L419.17 297H418.066L413.746 284.88ZM427.445 297V284.568H441.533C443.869 284.568 445.037 285.744 445.037 288.096V297H443.525V287.856C443.525 286.56 442.877 285.912 441.581 285.912H436.997V297H435.485V285.912H428.957V297H427.445ZM448.698 293.472V288.096C448.698 285.744 449.874 284.568 452.226 284.568H455.346C457.682 284.568 458.85 285.744 458.85 288.096V291.384H450.21V293.712C450.21 295.024 450.866 295.68 452.178 295.68H458.37V296.376L457.554 297H452.226C449.874 297 448.698 295.824 448.698 293.472ZM450.21 290.112H457.338V287.856C457.338 286.56 456.69 285.912 455.394 285.912H452.178C450.866 285.912 450.21 286.56 450.21 287.856V290.112ZM462.624 297V284.568H469.272C471.608 284.568 472.776 285.744 472.776 288.096V297H471.264V287.856C471.264 286.56 470.616 285.912 469.32 285.912H464.136V297H462.624ZM476.544 293.472V280.44H478.056V284.568H482.76V285.912H478.056V293.712C478.056 295.024 478.712 295.68 480.024 295.68H483V296.376L482.184 297H480.072C477.72 297 476.544 295.824 476.544 293.472Z" fill="white"/>
<path d="M192.208 597V580.44H193.816V597H192.208ZM198.015 597V584.568H204.663C206.999 584.568 208.167 585.744 208.167 588.096V597H206.655V587.856C206.655 586.56 206.007 585.912 204.711 585.912H199.527V597H198.015ZM210.543 584.88L210.735 584.568H212.055L215.895 595.68H216.447L220.311 584.568H221.607L221.799 584.88L217.503 597H214.863L210.543 584.88ZM224.049 593.472V588.096C224.049 585.744 225.225 584.568 227.577 584.568H230.697C233.033 584.568 234.201 585.744 234.201 588.096V591.384H225.561V593.712C225.561 595.024 226.217 595.68 227.529 595.68H233.721V596.376L232.905 597H227.577C225.225 597 224.049 595.824 224.049 593.472ZM225.561 590.112H232.689V587.856C232.689 586.56 232.041 585.912 230.745 585.912H227.529C226.217 585.912 225.561 586.56 225.561 587.856V590.112ZM237.976 597V584.568H244.624C246.96 584.568 248.128 585.744 248.128 588.096V597H246.616V587.856C246.616 586.56 245.968 585.912 244.672 585.912H239.488V597H237.976ZM251.895 593.472V580.44H253.407V584.568H258.111V585.912H253.407V593.712C253.407 595.024 254.063 595.68 255.375 595.68H258.351V596.376L257.535 597H255.423C253.071 597 251.895 595.824 251.895 593.472ZM260.987 593.472V588.096C260.987 585.744 262.163 584.568 264.515 584.568H267.875C270.211 584.568 271.379 585.744 271.379 588.096V593.472C271.379 595.824 270.211 597 267.875 597H264.515C262.163 597 260.987 595.824 260.987 593.472ZM262.499 593.712C262.499 595.024 263.155 595.68 264.467 595.68H267.923C269.219 595.68 269.867 595.024 269.867 593.712V587.856C269.867 586.56 269.219 585.912 267.923 585.912H264.467C263.155 585.912 262.499 586.56 262.499 587.856V593.712ZM275.052 597V585.96C275.612 585.032 276.628 584.568 278.1 584.568H280.452L281.268 585.192V585.912H278.172C277.436 585.912 276.9 586.112 276.564 586.512V597H275.052ZM282.378 584.88L282.57 584.568H283.89L287.73 595.68H288.282L292.146 584.568H293.442L293.634 584.88L287.61 601.8H286.314L286.122 601.512L287.802 597H286.698L282.378 584.88ZM301.651 593.472V588.096C301.651 585.744 302.827 584.568 305.179 584.568H309.955L310.771 585.192V585.912H305.131C303.819 585.912 303.163 586.56 303.163 587.856V593.712C303.163 595.024 303.819 595.68 305.131 595.68H310.771V596.376L309.955 597H305.179C302.827 597 301.651 595.824 301.651 593.472ZM313.651 593.472V588.096C313.651 585.744 314.827 584.568 317.179 584.568H320.539C322.875 584.568 324.043 585.744 324.043 588.096V593.472C324.043 595.824 322.875 597 320.539 597H317.179C314.827 597 313.651 595.824 313.651 593.472ZM315.163 593.712C315.163 595.024 315.819 595.68 317.131 595.68H320.587C321.883 595.68 322.531 595.024 322.531 593.712V587.856C322.531 586.56 321.883 585.912 320.587 585.912H317.131C315.819 585.912 315.163 586.56 315.163 587.856V593.712ZM327.812 597V584.568H341.9C344.236 584.568 345.404 585.744 345.404 588.096V597H343.892V587.856C343.892 586.56 343.244 585.912 341.948 585.912H337.364V597H335.852V585.912H329.324V597H327.812ZM349.257 601.8V584.568H355.905C358.241 584.568 359.409 585.744 359.409 588.096V593.472C359.409 595.824 358.241 597 355.905 597H350.769V601.8H349.257ZM350.769 595.68H355.953C357.249 595.68 357.897 595.024 357.897 593.712V587.856C357.897 586.56 357.249 585.912 355.953 585.912H350.769V595.68ZM363.083 593.952V579.24H364.595V594.072C364.595 595.224 365.179 595.824 366.347 595.872V597.192C364.171 597.192 363.083 596.112 363.083 593.952ZM368.87 593.472V588.096C368.87 585.744 370.046 584.568 372.398 584.568H375.518C377.854 584.568 379.022 585.744 379.022 588.096V591.384H370.382V593.712C370.382 595.024 371.038 595.68 372.35 595.68H378.542V596.376L377.726 597H372.398C370.046 597 368.87 595.824 368.87 593.472ZM370.382 590.112H377.51V587.856C377.51 586.56 376.862 585.912 375.566 585.912H372.35C371.038 585.912 370.382 586.56 370.382 587.856V590.112ZM381.548 596.688L386.06 590.64L381.74 584.88L381.884 584.568H383.3L386.948 589.56L390.596 584.568H391.988L392.132 584.88L387.836 590.64L392.324 596.688L392.18 597H390.764L386.948 591.744L383.108 597H381.716L381.548 596.688ZM394.911 582.192V580.224H396.639V582.192H394.911ZM395.007 597V584.568H396.519V597H395.007ZM400.372 593.472V580.44H401.884V584.568H406.588V585.912H401.884V593.712C401.884 595.024 402.54 595.68 403.852 595.68H406.828V596.376L406.012 597H403.9C401.548 597 400.372 595.824 400.372 593.472ZM408.168 584.88L408.36 584.568H409.68L413.52 595.68H414.072L417.936 584.568H419.232L419.424 584.88L413.4 601.8H412.104L411.912 601.512L413.592 597H412.488L408.168 584.88ZM192.208 627V610.44H194.44L200.248 622.728L206.032 610.44H208.264V627H206.656V612.576L201.04 624.528H199.432L193.816 612.576V627H192.208ZM212.333 623.472V614.568H213.845V623.712C213.845 625.024 214.501 625.68 215.813 625.68H220.973V614.568H222.485V627H215.861C213.509 627 212.333 625.824 212.333 623.472ZM226.349 623.952V609.24H227.861V624.072C227.861 625.224 228.445 625.824 229.613 625.872V627.192C227.437 627.192 226.349 626.112 226.349 623.952ZM232.231 623.472V610.44H233.743V614.568H238.447V615.912H233.743V623.712C233.743 625.024 234.399 625.68 235.711 625.68H238.687V626.376L237.871 627H235.759C233.407 627 232.231 625.824 232.231 623.472ZM241.419 612.192V610.224H243.147V612.192H241.419ZM241.515 627V614.568H243.027V627H241.515ZM246.472 626.376V625.68H252.04C253.32 625.68 253.96 625.04 253.96 623.76C253.96 622.48 253.448 621.76 252.424 621.6L249.496 621.096C247.48 620.76 246.472 619.696 246.472 617.904C246.472 615.68 247.656 614.568 250.024 614.568H254.08L254.896 615.192V615.912H249.928C248.632 615.912 247.984 616.544 247.984 617.808C247.984 618.928 248.52 619.576 249.592 619.752L252.544 620.256C254.496 620.576 255.472 621.712 255.472 623.664C255.472 625.888 254.288 627 251.92 627H247.288L246.472 626.376ZM258.833 612.192V610.224H260.561V612.192H258.833ZM258.929 627V614.568H260.441V627H258.929ZM264.222 623.472V618.096C264.222 615.744 265.398 614.568 267.75 614.568H274.398V628.272C274.398 630.624 273.222 631.8 270.87 631.8H265.974L265.158 631.176V630.48H270.918C272.23 630.48 272.886 629.824 272.886 628.512V627H267.75C265.398 627 264.222 625.824 264.222 623.472ZM265.734 623.712C265.734 625.024 266.39 625.68 267.702 625.68H272.886V615.912H267.702C266.39 615.912 265.734 616.56 265.734 617.856V623.712ZM191.968 653.424V644.016C191.968 641.632 193.16 640.44 195.544 640.44H202.408L203.344 641.16V641.904H195.472C194.208 641.904 193.576 642.528 193.576 643.776V653.664C193.576 654.912 194.208 655.536 195.472 655.536H203.344V656.28L202.408 657H195.544C193.16 657 191.968 655.808 191.968 653.424ZM206.523 653.424V644.016C206.523 641.632 207.715 640.44 210.099 640.44H215.739C218.123 640.44 219.315 641.632 219.315 644.016V653.424C219.315 655.808 218.123 657 215.739 657H210.099C207.715 657 206.523 655.808 206.523 653.424ZM208.131 653.664C208.131 654.912 208.763 655.536 210.027 655.536H215.835C217.083 655.536 217.707 654.912 217.707 653.664V643.776C217.707 642.528 217.083 641.904 215.835 641.904H210.027C208.763 641.904 208.131 642.528 208.131 643.776V653.664ZM223.521 657V640.44H234.177V641.904H225.129V648.264H233.457V649.704H225.129V657H223.521ZM237.114 657V640.44H247.77V641.904H238.722V648.264H247.05V649.704H238.722V657H237.114ZM250.708 657V640.44H261.364V641.904H252.316V647.544H260.644V648.984H252.316V655.536H261.364V657H250.708ZM264.051 656.28V655.536H271.443C272.691 655.536 273.315 654.912 273.315 653.664V651.648C273.315 650.608 272.851 649.992 271.923 649.8L266.643 648.72C264.915 648.384 264.051 647.232 264.051 645.264V644.016C264.051 641.632 265.243 640.44 267.627 640.44H273.531L274.443 641.16V641.904H267.555C266.291 641.904 265.659 642.528 265.659 643.776V645.432C265.659 646.488 266.123 647.112 267.051 647.304L272.355 648.336C274.067 648.688 274.923 649.84 274.923 651.792V653.424C274.923 655.808 273.731 657 271.347 657H264.987L264.051 656.28ZM283.691 656.28V655.536H291.083C292.331 655.536 292.955 654.912 292.955 653.664V651.648C292.955 650.608 292.491 649.992 291.563 649.8L286.283 648.72C284.555 648.384 283.691 647.232 283.691 645.264V644.016C283.691 641.632 284.883 640.44 287.267 640.44H293.171L294.083 641.16V641.904H287.195C285.931 641.904 285.299 642.528 285.299 643.776V645.432C285.299 646.488 285.763 647.112 286.691 647.304L291.995 648.336C293.707 648.688 294.563 649.84 294.563 651.792V653.424C294.563 655.808 293.371 657 290.987 657H284.627L283.691 656.28ZM297.95 653.472V644.568H299.462V653.712C299.462 655.024 300.118 655.68 301.43 655.68H306.59V644.568H308.102V657H301.478C299.126 657 297.95 655.824 297.95 653.472ZM312.062 657V639.24H313.574V644.568H318.71C321.046 644.568 322.214 645.744 322.214 648.096V653.472C322.214 655.824 321.046 657 318.71 657H312.062ZM313.574 655.68H318.758C320.054 655.68 320.702 655.024 320.702 653.712V647.856C320.702 646.56 320.054 645.912 318.758 645.912H313.574V655.68ZM325.984 657V644.568H332.632C334.968 644.568 336.136 645.744 336.136 648.096V657H334.624V647.856C334.624 646.56 333.976 645.912 332.68 645.912H327.496V657H325.984ZM339.807 653.472V648.096C339.807 645.744 340.983 644.568 343.335 644.568H346.455C348.791 644.568 349.959 645.744 349.959 648.096V651.384H341.319V653.712C341.319 655.024 341.975 655.68 343.287 655.68H349.479V656.376L348.663 657H343.335C340.983 657 339.807 655.824 339.807 653.472ZM341.319 650.112H348.447V647.856C348.447 646.56 347.799 645.912 346.503 645.912H343.287C341.975 645.912 341.319 646.56 341.319 647.856V650.112ZM353.638 653.472V640.44H355.15V644.568H359.854V645.912H355.15V653.712C355.15 655.024 355.806 655.68 357.118 655.68H360.094V656.376L359.278 657H357.166C354.814 657 353.638 655.824 353.638 653.472ZM367.199 656.616L372.791 640.44H375.527L381.095 656.616L380.855 657H379.535L378.071 652.584H370.223L368.759 657H367.463L367.199 656.616ZM370.751 651.144H377.567L374.471 641.904H373.847L370.751 651.144ZM381.589 644.88L381.781 644.568H383.101L386.941 655.68H387.493L391.357 644.568H392.653L392.845 644.88L388.549 657H385.909L381.589 644.88ZM397.934 657C395.566 657 394.382 655.816 394.382 653.448C394.382 651.064 395.566 649.872 397.934 649.872H402.638V647.856C402.638 646.56 401.99 645.912 400.694 645.912H395.534V645.192L396.374 644.568H400.646C402.982 644.568 404.15 645.744 404.15 648.096V657H397.934ZM395.894 653.712C395.894 655.024 396.55 655.68 397.862 655.68H402.638V651.144H397.862C396.55 651.144 395.894 651.792 395.894 653.088V653.712ZM407.919 653.952V639.24H409.431V654.072C409.431 655.224 410.015 655.824 411.183 655.872V657.192C409.007 657.192 407.919 656.112 407.919 653.952ZM416.778 657C414.41 657 413.226 655.816 413.226 653.448C413.226 651.064 414.41 649.872 416.778 649.872H421.482V647.856C421.482 646.56 420.834 645.912 419.538 645.912H414.378V645.192L415.218 644.568H419.49C421.826 644.568 422.994 645.744 422.994 648.096V657H416.778ZM414.738 653.712C414.738 655.024 415.394 655.68 416.706 655.68H421.482V651.144H416.706C415.394 651.144 414.738 651.792 414.738 653.088V653.712ZM426.859 657V644.568H433.507C435.843 644.568 437.011 645.744 437.011 648.096V657H435.499V647.856C435.499 646.56 434.851 645.912 433.555 645.912H428.371V657H426.859ZM440.682 653.472V648.096C440.682 645.744 441.858 644.568 444.21 644.568H448.986L449.802 645.192V645.912H444.162C442.85 645.912 442.194 646.56 442.194 647.856V653.712C442.194 655.024 442.85 655.68 444.162 655.68H449.802V656.376L448.986 657H444.21C441.858 657 440.682 655.824 440.682 653.472ZM452.874 657V639.24H454.386V644.568H459.522C461.858 644.568 463.026 645.744 463.026 648.096V657H461.514V647.856C461.514 646.56 460.866 645.912 459.57 645.912H454.386V657H452.874ZM466.698 653.472V648.096C466.698 645.744 467.874 644.568 470.226 644.568H473.346C475.682 644.568 476.85 645.744 476.85 648.096V651.384H468.21V653.712C468.21 655.024 468.866 655.68 470.178 655.68H476.37V656.376L475.554 657H470.226C467.874 657 466.698 655.824 466.698 653.472ZM468.21 650.112H475.338V647.856C475.338 646.56 474.69 645.912 473.394 645.912H470.178C468.866 645.912 468.21 646.56 468.21 647.856V650.112Z" fill="white"/>
<path d="M192.184 21.5759V11.1039C192.184 8.1546 193.649 6.67993 196.58 6.67993H203.076C206.007 6.67993 207.472 8.1546 207.472 11.1039V21.6039C207.472 24.1986 206.305 25.6266 203.972 25.8879L205.848 29.5559L205.512 30.1999H203.076L200.948 25.9999H196.58C193.649 25.9999 192.184 24.5252 192.184 21.5759ZM195.012 21.8559C195.012 22.9012 195.544 23.4239 196.608 23.4239H203.048C204.112 23.4239 204.644 22.9012 204.644 21.8559V10.8239C204.644 9.7786 204.112 9.25593 203.048 9.25593H196.608C195.544 9.25593 195.012 9.7786 195.012 10.8239V21.8559ZM211.34 25.9999V20.0079C211.34 17.5999 212.395 16.1812 214.504 15.7519L220.076 14.6319C220.897 14.4639 221.308 13.9319 221.308 13.0359V10.8239C221.308 9.7786 220.776 9.25593 219.712 9.25593H211.9V7.79993L213.356 6.67993H219.74C222.689 6.67993 224.164 8.1546 224.164 11.1039V12.8959C224.164 15.3039 223.109 16.7226 221 17.1519L215.428 18.2719C214.607 18.4399 214.196 18.9719 214.196 19.8679V23.4239H224.164V25.9999H211.34ZM234.254 25.9999V20.0079C234.254 17.5999 235.309 16.1812 237.418 15.7519L242.99 14.6319C243.812 14.4639 244.222 13.9319 244.222 13.0359V10.8239C244.222 9.7786 243.69 9.25593 242.626 9.25593H234.814V7.79993L236.27 6.67993H242.654C245.604 6.67993 247.078 8.1546 247.078 11.1039V12.8959C247.078 15.3039 246.024 16.7226 243.914 17.1519L238.342 18.2719C237.521 18.4399 237.11 18.9719 237.11 19.8679V23.4239H247.078V25.9999H234.254ZM250.442 22.6119V20.2599L256.742 6.67993H259.15L259.486 7.32393L253.578 20.0359H260.41V13.9599H263.266V25.9999H260.41V22.6119H250.442Z" fill="#EB5D47"/>
<path d="M192.184 231.576V221.104C192.184 218.155 193.649 216.68 196.58 216.68H203.076C206.007 216.68 207.472 218.155 207.472 221.104V231.604C207.472 234.199 206.305 235.627 203.972 235.888L205.848 239.556L205.512 240.2H203.076L200.948 236H196.58C193.649 236 192.184 234.525 192.184 231.576ZM195.012 231.856C195.012 232.901 195.544 233.424 196.608 233.424H203.048C204.112 233.424 204.644 232.901 204.644 231.856V220.824C204.644 219.779 204.112 219.256 203.048 219.256H196.608C195.544 219.256 195.012 219.779 195.012 220.824V231.856ZM211.62 234.88V233.424H219.712C220.776 233.424 221.308 232.901 221.308 231.856V228.804C221.308 227.74 220.776 227.208 219.712 227.208H213.692V224.632H219.712C220.776 224.632 221.308 224.1 221.308 223.036V220.824C221.308 219.779 220.776 219.256 219.712 219.256H211.9V217.8L213.356 216.68H219.74C222.689 216.68 224.164 218.155 224.164 221.104V223.064C224.164 223.811 223.931 224.417 223.464 224.884L222.484 225.864L223.464 226.844C223.931 227.311 224.164 227.917 224.164 228.664V231.576C224.164 234.525 222.689 236 219.74 236H213.076L211.62 234.88ZM234.254 236V230.008C234.254 227.6 235.309 226.181 237.418 225.752L242.99 224.632C243.812 224.464 244.222 223.932 244.222 223.036V220.824C244.222 219.779 243.69 219.256 242.626 219.256H234.814V217.8L236.27 216.68H242.654C245.604 216.68 247.078 218.155 247.078 221.104V222.896C247.078 225.304 246.024 226.723 243.914 227.152L238.342 228.272C237.521 228.44 237.11 228.972 237.11 229.868V233.424H247.078V236H234.254ZM250.442 232.612V230.26L256.742 216.68H259.15L259.486 217.324L253.578 230.036H260.41V223.96H263.266V236H260.41V232.612H250.442Z" fill="#EB5D47"/>
<path d="M191.624 384.88V383.424H200.248C201.312 383.424 201.844 382.901 201.844 381.856V379.644C201.844 378.729 201.443 378.197 200.64 378.048L194.788 376.844C192.679 376.433 191.624 375.024 191.624 372.616V371.104C191.624 368.155 193.089 366.68 196.02 366.68H202.684L204.112 367.8V369.256H196.048C194.984 369.256 194.452 369.779 194.452 370.824V372.728C194.452 373.643 194.853 374.175 195.656 374.324L201.536 375.472C203.627 375.92 204.672 377.339 204.672 379.728V381.576C204.672 384.525 203.207 386 200.276 386H193.052L191.624 384.88ZM208.761 386V366.68H221.529V369.256H211.589V374.632H220.689V377.208H211.589V383.424H221.529V386H208.761ZM225.386 386V366.68H234.598C237.529 366.68 238.994 368.155 238.994 371.104V374.772C238.994 377.703 237.529 379.168 234.598 379.168H228.214V386H225.386ZM228.214 376.592H234.57C235.634 376.592 236.166 376.06 236.166 374.996V370.824C236.166 369.779 235.634 369.256 234.57 369.256H228.214V376.592ZM249.02 386V380.008C249.02 377.6 250.075 376.181 252.184 375.752L257.756 374.632C258.577 374.464 258.988 373.932 258.988 373.036V370.824C258.988 369.779 258.456 369.256 257.392 369.256H249.58V367.8L251.036 366.68H257.42C260.369 366.68 261.844 368.155 261.844 371.104V372.896C261.844 375.304 260.789 376.723 258.68 377.152L253.108 378.272C252.287 378.44 251.876 378.972 251.876 379.868V383.424H261.844V386H249.02ZM265.207 382.612V380.26L271.507 366.68H273.915L274.251 367.324L268.343 380.036H275.175V373.96H278.031V386H275.175V382.612H265.207Z" fill="#EB5D47"/>
<path d="M192.184 561.576V551.104C192.184 548.155 193.649 546.68 196.58 546.68H203.076C206.007 546.68 207.472 548.155 207.472 551.104V561.604C207.472 564.199 206.305 565.627 203.972 565.888L205.848 569.556L205.512 570.2H203.076L200.948 566H196.58C193.649 566 192.184 564.525 192.184 561.576ZM195.012 561.856C195.012 562.901 195.544 563.424 196.608 563.424H203.048C204.112 563.424 204.644 562.901 204.644 561.856V550.824C204.644 549.779 204.112 549.256 203.048 549.256H196.608C195.544 549.256 195.012 549.779 195.012 550.824V561.856ZM211.34 562.612V560.26L217.64 546.68H220.048L220.384 547.324L214.476 560.036H221.308V553.96H224.164V566H221.308V562.612H211.34ZM234.254 566V560.008C234.254 557.6 235.309 556.181 237.418 555.752L242.99 554.632C243.812 554.464 244.222 553.932 244.222 553.036V550.824C244.222 549.779 243.69 549.256 242.626 549.256H234.814V547.8L236.27 546.68H242.654C245.604 546.68 247.078 548.155 247.078 551.104V552.896C247.078 555.304 246.024 556.723 243.914 557.152L238.342 558.272C237.521 558.44 237.11 558.972 237.11 559.868V563.424H247.078V566H234.254ZM250.442 562.612V560.26L256.742 546.68H259.15L259.486 547.324L253.578 560.036H260.41V553.96H263.266V566H260.41V562.612H250.442Z" fill="#EB5D47"/>
</svg>
